<svg width="615" height="373" viewBox="0 0 615 373" fill="none" xmlns="http://www.w3.org/2000/svg">
<path d="M231.798 66.9722H231.812L240.942 66.9989L243.009 88.5528L232.358 94.1646L221.001 88.6062L222.841 66.9989L231.798 66.9722Z" fill="#F37A50"/>
<path d="M206.738 57.4548C212.35 71.4776 225.839 79.2754 236.85 74.8766C247.873 70.4645 252.245 55.5221 246.634 41.486C241.022 27.45 227.532 19.6655 216.522 24.0642C205.512 28.4897 201.126 43.4321 206.738 57.4548Z" fill="#F37A50"/>
<path d="M241.849 46.0982C242.502 47.0312 243.782 47.2712 244.728 46.618C245.661 45.9649 245.901 44.6852 245.248 43.7388C244.595 42.8058 243.315 42.5658 242.369 43.219C241.436 43.8721 241.196 45.1651 241.849 46.0982Z" fill="black"/>
<path d="M226.399 52.403C227.106 53.4161 228.492 53.6693 229.505 52.9629C230.518 52.2564 230.771 50.8701 230.065 49.8571C229.358 48.844 227.972 48.5908 226.959 49.2972C225.933 50.0037 225.693 51.39 226.399 52.403Z" fill="black"/>
<path d="M238.716 49.3904C241.502 51.5898 244.995 54.2424 244.995 54.2424C244.995 54.2424 245.035 57.6015 241.102 59.0677C242.529 57.7748 243.768 56.0552 242.289 54.0824C240.809 52.0963 238.716 49.3904 238.716 49.3904Z" fill="#DE623C"/>
<path d="M222.321 51.0566C222.241 51.0566 222.161 51.0433 222.081 51.03C221.521 50.8967 221.188 50.3368 221.321 49.7903C221.681 48.2841 223.187 45.4182 226.333 45.4049C226.906 45.4049 227.359 45.8581 227.373 46.4313C227.373 47.0044 226.919 47.4576 226.346 47.471C224.027 47.4843 223.334 50.2435 223.334 50.2702C223.214 50.7367 222.787 51.0566 222.321 51.0566Z" fill="#201D40"/>
<path d="M239.688 41.7259C239.542 41.7259 239.395 41.6859 239.262 41.606C238.849 41.366 238.715 40.8462 238.955 40.433C238.995 40.3663 239.902 38.8601 241.594 38.5401C242.754 38.3269 243.967 38.7001 245.167 39.6732C245.54 39.9664 245.593 40.5129 245.3 40.8728C245.007 41.246 244.46 41.2994 244.1 41.0061C243.301 40.3663 242.554 40.0997 241.914 40.2197C240.995 40.393 240.448 41.2861 240.435 41.2861C240.275 41.5793 239.982 41.7259 239.688 41.7259Z" fill="#201D40"/>
<path d="M199.074 46.9778C194.329 33.4616 205.899 25.6905 205.899 25.6905C205.899 25.6905 202.793 25.4105 202.42 21.0518C204.739 21.7716 207.352 21.7182 209.631 20.8918C225.053 15.3067 235.664 15.3867 235.664 21.9848C235.664 24.3309 245.847 22.718 244.994 38.5135C245.061 37.3938 241.422 30.9023 237.983 30.2625C234.531 29.6094 237.65 34.2081 230.465 35.1945C223.214 36.1942 217.882 34.4347 213.457 38.5135C209.991 42.0725 209.138 60.2274 209.658 61.3205C208.445 58.8278 201.167 52.9228 199.074 46.9778Z" fill="#201D40"/>
<path d="M248.766 49.3904C248.766 49.3904 249.419 57.6281 248.233 60.1741C246.993 56.8683 244.341 60.374 241.848 60.7072C235.823 61.507 224.973 59.4943 223.893 68.5317C216.535 70.8644 209.644 55.1088 209.644 55.1088C209.217 72.7039 222.094 82.6878 240.622 79.7686C252.832 77.8225 253.965 60.8272 248.766 49.3904Z" fill="#201D40"/>
<path d="M236.077 66.2523C234.891 65.9724 233.651 65.4792 232.358 64.7994C232.025 64.6261 231.891 64.1996 232.078 63.8663C232.251 63.5331 232.678 63.3998 233.011 63.5864C235.864 65.106 238.41 65.5459 240.609 64.8794C243.315 64.053 244.555 61.7736 244.568 61.7469C244.741 61.4137 245.154 61.2804 245.501 61.4537C245.834 61.627 245.967 62.0402 245.794 62.3734C245.741 62.4934 244.301 65.1593 241.049 66.1724C239.503 66.6522 237.85 66.6789 236.077 66.2523Z" fill="#DE623C"/>
<path d="M209.483 55.2155C212.576 56.9617 213.936 60.4274 212.509 62.96C211.083 65.4926 207.417 66.1458 204.325 64.3996C201.232 62.6535 199.873 59.1878 201.299 56.6551C202.712 54.1092 206.378 53.4694 209.483 55.2155Z" fill="#F37A50"/>
<path d="M209.004 62.8001C209.097 62.7335 209.177 62.6402 209.244 62.5335C210.097 60.9606 209.951 59.3478 208.871 58.2414C207.765 57.0951 205.965 56.7752 204.605 57.455C204.219 57.6549 204.072 58.1214 204.259 58.4947C204.459 58.8812 204.925 59.0279 205.299 58.8413C206.045 58.468 207.125 58.668 207.751 59.3211C208.351 59.9476 208.404 60.8274 207.871 61.8004C207.671 62.1737 207.805 62.6535 208.191 62.8535C208.458 63.0001 208.778 62.9734 209.004 62.8001Z" fill="#DE623C"/>
<path d="M242.355 354.691C244.301 349.426 248.447 348.826 248.447 348.826C256.511 359.957 276.319 353.132 275.666 368.181C245.541 367.981 233.024 368.181 233.024 368.181C233.064 364.729 233.664 356.517 234.357 353.305L235.93 353.598L242.355 354.691Z" fill="black"/>
<path d="M197.287 354.985C199.233 349.719 203.379 349.12 203.379 349.12C211.443 360.25 231.251 353.425 230.598 368.474C200.473 368.274 187.956 368.474 187.956 368.474C187.996 365.022 188.596 356.811 189.289 353.598L190.862 353.892L197.287 354.985Z" fill="black"/>
<path d="M262.39 178.941C262.39 178.941 267.282 250.267 265.295 266.116C263.309 281.978 256.271 302.306 257.071 354.758C247.247 357.211 233.025 354.758 233.025 354.758C233.025 354.758 230.918 295.455 241.289 268.969C237.063 243.243 223.521 184.299 223.521 184.299L262.39 178.941Z" fill="#201D40"/>
<path d="M243.808 180.887C243.808 180.887 233.93 260.958 229.105 276.153C224.266 291.336 214.842 304.186 206.098 355.851C196.008 356.358 186.61 355.851 186.61 355.851C186.61 355.851 187.97 290.309 203.686 275.407C204.219 249.321 201.14 181.407 201.14 181.407L243.808 180.887Z" fill="#2C2858"/>
<path d="M198.287 90.0191C198.287 90.0191 215.443 84.0208 221.161 86.7667C238.929 95.3242 243.008 86.7667 243.008 86.7667C248.687 87.2598 265.828 90.0191 265.828 90.0191C265.828 109.16 267.108 128.368 266.762 142.858C266.522 155.467 268.921 189.804 268.921 189.804C268.921 189.804 250.006 194.763 232.131 194.896C214.243 194.776 196.035 190.018 196.035 190.018C196.035 190.018 196.994 155.241 197.781 142.324C197.514 127.822 198.287 109.107 198.287 90.0191Z" fill="#01C7E2"/>
<path d="M296.312 118.465C289.234 101.576 268.227 90.8323 265.827 90.0192L260.949 111.706C271.039 117.678 278.371 124.13 278.371 124.13C277.131 130.168 277.331 136.086 273.839 143.724C273.839 143.724 276.878 139.539 280.623 142.018C284.262 144.431 290.954 139.512 290.954 139.512C290.954 139.512 301.711 131.368 296.312 118.465Z" fill="#02A5B2"/>
<path d="M292.367 161.146C292.487 161.186 292.607 161.212 292.74 161.226H293.14C293.873 161.146 294.54 160.639 294.766 159.893L313.641 99.0433C313.681 98.9233 313.708 98.8033 313.721 98.6701C313.734 98.5901 313.721 98.5101 313.721 98.4301C313.721 98.3768 313.721 98.3368 313.721 98.2835C313.721 98.2435 313.708 98.2035 313.694 98.1635C313.574 97.4704 313.095 96.8706 312.375 96.644C312.255 96.604 312.135 96.5773 312.015 96.564C311.882 96.5506 311.735 96.5506 311.602 96.564H264.095L245.06 161.212H292.394L292.367 161.146Z" fill="#95A6DB"/>
<path d="M264.535 96.6437C263.522 96.3238 262.456 96.8969 262.136 97.91L243.381 158.6L243.341 158.746C243.034 159.759 243.594 160.826 244.594 161.132C245.607 161.452 246.673 160.879 246.993 159.866L265.801 99.0296C266.108 98.0299 265.548 96.9636 264.535 96.6437Z" fill="#768FDB"/>
<path d="M300.418 135.246C300.591 135.126 300.791 135.06 300.991 134.993C300.965 134.966 300.951 134.94 300.925 134.9C299.738 133.114 299.818 130.981 301.098 130.141C301.311 130.008 301.538 129.915 301.778 129.861C301.444 128.542 301.738 127.275 302.657 126.676C303.017 126.436 303.444 126.329 303.884 126.329C303.471 125.036 303.804 123.676 304.817 122.997C306.096 122.143 307.949 122.703 308.962 124.223C309.975 125.742 309.749 127.662 308.469 128.515C308.149 128.728 307.789 128.848 307.416 128.902C308.269 130.554 308.096 132.381 306.936 133.14C306.723 133.274 306.496 133.367 306.256 133.42C306.59 134.74 306.296 136.006 305.377 136.606C305.043 136.833 304.657 136.939 304.244 136.953C304.67 138.086 304.404 139.312 303.497 139.898C302.417 140.618 300.845 140.152 299.991 138.872C299.152 137.579 299.338 135.966 300.418 135.246Z" fill="#F37A50"/>
<path d="M242.022 131.394L246.354 128.888C246.354 128.888 247.554 122.743 254.512 122.597C253.712 125.169 252.566 128.888 252.566 128.888C252.566 128.888 255.991 131.541 264.109 126.995C272.04 125.209 268.654 130.994 271.28 131.407C275.159 132.021 268.454 139.645 260.523 140.818C250.273 142.324 249.047 140.232 249.047 140.232L243.248 142.258L242.022 131.394Z" fill="#F37A50"/>
<path d="M201.939 137.966C216.415 136.953 241.102 129.808 241.102 129.808C245.047 135.873 243.954 143.924 243.954 143.924C221.481 163.625 187.65 169.997 177.266 165.265C167.789 160.932 174.481 103.242 198.274 90.0323C206.445 103.815 201.939 137.966 201.939 137.966Z" fill="#02A5B2"/>
<path d="M435.234 349.333C427.17 360.09 407.362 353.492 408.015 368.034C438.14 367.848 450.656 368.034 450.656 368.034C450.616 364.689 450.016 356.757 449.323 353.652L435.234 349.333Z" fill="black"/>
<path d="M480.302 349.626C472.238 360.383 452.43 353.785 453.083 368.328C483.208 368.141 495.724 368.328 495.724 368.328C495.684 364.982 495.084 357.051 494.391 353.945L480.302 349.626Z" fill="black"/>
<path d="M421.291 185.099C421.291 185.099 416.399 254.053 418.385 269.382C420.371 284.711 427.409 304.359 426.609 355.065C436.433 357.437 450.656 355.065 450.656 355.065C450.656 355.065 452.762 297.734 442.391 272.128C446.617 247.255 460.16 190.284 460.16 190.284L421.291 185.099Z" fill="#201D40"/>
<path d="M439.873 186.979C439.873 186.979 449.75 264.383 454.576 279.073C459.414 293.762 468.838 306.172 477.582 356.118C487.673 356.611 499.696 354.118 499.696 354.118C499.696 354.118 495.711 292.749 479.995 278.339C479.462 253.12 482.541 187.458 482.541 187.458L439.873 186.979Z" fill="#2C2858"/>
<path d="M480.088 60.334C474.729 73.7035 461.88 81.1415 451.376 76.9427C440.872 72.7438 436.7 58.4945 442.045 45.1116C447.404 31.742 460.253 24.3041 470.757 28.5029C481.261 32.7151 485.446 46.9644 480.088 60.334Z" fill="#F37A50"/>
<path d="M446.617 49.4972C445.991 50.3902 444.764 50.6035 443.885 49.9904C442.991 49.3639 442.778 48.1375 443.391 47.2578C444.018 46.3647 445.244 46.1514 446.124 46.7646C447.017 47.3778 447.244 48.6041 446.617 49.4972Z" fill="black"/>
<path d="M461.36 55.5221C460.693 56.4818 459.36 56.7218 458.401 56.0553C457.441 55.3888 457.201 54.0558 457.867 53.0961C458.534 52.1364 459.867 51.8965 460.827 52.5629C461.786 53.2294 462.026 54.549 461.36 55.5221Z" fill="black"/>
<path d="M449.604 52.6429C446.938 54.7357 443.619 57.2683 443.619 57.2683C443.619 57.2683 443.579 60.4807 447.338 61.867C445.978 60.6407 444.792 59.0012 446.205 57.1084C447.604 55.2156 449.604 52.6429 449.604 52.6429Z" fill="#DE623C"/>
<path d="M465.239 54.2425C464.799 54.2425 464.399 53.9359 464.279 53.4827C464.253 53.3761 463.599 50.8168 461.4 50.8034C460.854 50.8034 460.414 50.3636 460.427 49.8171C460.427 49.2705 460.88 48.8307 461.413 48.844C464.413 48.8573 465.852 51.5899 466.199 53.0295C466.319 53.5627 465.999 54.0825 465.466 54.2158C465.386 54.2291 465.306 54.2425 465.239 54.2425Z" fill="black"/>
<path d="M448.683 45.3383C448.403 45.3383 448.137 45.1917 447.977 44.9384C447.963 44.9118 447.43 44.072 446.551 43.912C445.937 43.8054 445.231 44.0587 444.471 44.6585C444.125 44.9384 443.605 44.8851 443.325 44.5252C443.045 44.1787 443.098 43.6588 443.458 43.3789C444.604 42.4591 445.764 42.0992 446.87 42.2992C448.497 42.6057 449.35 44.0453 449.39 44.0987C449.616 44.4852 449.483 44.9917 449.097 45.2183C448.963 45.2983 448.817 45.3383 448.683 45.3383Z" fill="black"/>
<path d="M476.356 61.7337C472.491 49.2839 477.383 42.6724 477.383 42.6724C474.064 42.0059 472.771 43.1523 472.771 43.1523C470.958 39.4333 472.358 36.7674 472.358 36.7674C465.493 34.0881 462.067 38.5402 455.869 40.0331C447.378 42.0859 436.901 38.7002 435.914 28.3431C435.768 26.8502 437.421 25.8771 438.674 26.7169C439.833 27.49 441.38 28.1165 443.299 28.0632C443.299 28.0632 441.526 26.0637 441.433 23.2778C441.38 21.7449 443.179 20.9185 444.352 21.9049C446.112 23.3711 449.391 24.7574 455.229 23.6644C459.108 22.9313 467.999 16.7197 473.544 17.9327C478.076 18.9191 481.662 22.7847 483.208 28.2898C483.208 28.2898 494.338 29.4494 495.458 41.686C496.551 53.7226 482.621 62.96 482.621 62.96L476.356 61.7337Z" fill="black"/>
<path d="M474.837 59.6543C471.891 61.3205 470.611 64.6395 471.971 67.0522C473.344 69.4648 476.836 70.0647 479.782 68.3985C482.728 66.7323 484.007 63.4132 482.648 61.0005C481.288 58.5879 477.782 57.9881 474.837 59.6543Z" fill="#F37A50"/>
<path d="M475.316 66.8922C475.223 66.8255 475.143 66.7456 475.089 66.6389C474.276 65.1327 474.396 63.5998 475.436 62.5334C476.489 61.4404 478.195 61.1205 479.501 61.7736C479.861 61.9602 480.021 62.4001 479.835 62.7733C479.648 63.1332 479.208 63.2932 478.835 63.1066C478.129 62.7467 477.102 62.9599 476.502 63.5731C475.929 64.1729 475.889 64.9994 476.396 65.9325C476.596 66.2924 476.462 66.7456 476.102 66.9322C475.836 67.0788 475.543 67.0521 475.316 66.8922Z" fill="#DE623C"/>
<path d="M444.232 66.1457C443.938 65.6792 444.352 65.0926 444.898 65.1993C446.271 65.4925 448.55 65.9191 450.75 66.119C452.949 66.319 455.255 66.2923 456.668 66.2523C457.215 66.239 457.521 66.8922 457.148 67.292C456.015 68.5584 453.749 70.4378 450.39 70.1446C447.017 69.838 445.111 67.5986 444.232 66.1457Z" fill="white"/>
<path d="M430.089 83.6609C430.089 83.6609 430.595 82.3014 387.248 82.6479L375.624 96.3774C387.647 106.028 427.929 107.734 427.929 107.734L430.089 83.6609Z" fill="#201D40"/>
<path d="M445.844 82.5545L459.52 81.2748L472.743 84.9671L457.841 100.296L445.844 82.5545Z" fill="#95A6DB"/>
<path d="M450.59 89.5926C456.162 94.1646 457.295 97.3238 469.131 91.2188L470.904 73.0239L451.643 71.5043L450.59 89.5926Z" fill="#F37A50"/>
<path d="M476.249 92.2852L472.197 90.6857L472.743 84.9673L461.507 93.9914L458.334 94.4979L455.295 93.4316L445.844 82.5546L445.364 88.2863L441.792 89.0061L428.902 91.0989L427.37 162.652L422.278 186.992C439.38 192.684 458.521 194.097 477.316 191.511L476.689 167.078L490.045 97.1505L476.249 92.2852Z" fill="#95A6DB"/>
<path d="M455.855 101.722L447.777 156.36L452.256 162.572L458.081 158.093L460.067 102.176L455.855 101.722Z" fill="#2C2858"/>
<path d="M455.375 95.271L458.334 94.4979L461.333 95.8042L460.067 102.282L455.828 101.909L455.375 95.271Z" fill="#2C2858"/>
<path d="M445.658 83.0078L443.632 149.003L434.901 191.497C434.901 191.497 421.092 190.111 412.601 182.033L423.478 150.042L427.197 83.181L445.658 83.0078Z" fill="#2C2858"/>
<path d="M445.658 83.0077L443.645 148.123L433.581 98.2168L445.658 83.0077Z" fill="#494C7F"/>
<path d="M473.77 87.2332L455.828 194.23C455.828 194.23 479.635 197.149 489.419 190.711L484.1 155.534L490.592 95.8174L473.77 87.2332Z" fill="#2C2858"/>
<path d="M473.769 87.2332L463.292 149.936L482.06 102.629L473.769 87.2332Z" fill="#494C7F"/>
<path d="M355.243 24.3042C356.202 27.6366 356.482 31.2489 360.721 33.0484C360.721 33.0484 360.095 44.1253 360.561 53.2161C360.561 53.2161 370.812 41.6593 370.812 41.646C370.225 37.9804 369.745 31.0623 370.318 27.1301C370.465 26.1037 370.665 25.0907 370.825 24.0643C371.265 21.585 371.998 19.039 370.478 16.0399C364.627 4.45647 366.599 0.644206 365.8 0.084363C364.493 -0.488809 361.414 1.84386 363.147 7.5356C364.827 13.0407 364.413 15.7466 364.413 15.7466C364.413 15.7466 359.988 14.9069 358.428 16.4531C357.709 17.1462 354.123 20.3986 355.243 24.3042Z" fill="#F37A50"/>
<path d="M357.616 39.9266C363.588 37.9404 366.734 37.0341 371.372 37.0341C382.356 69.7582 390.18 82.0747 386.915 91.4721C384.195 99.2966 375.584 98.6834 371.372 92.805C365.827 85.0739 360.909 55.6688 357.616 39.9266Z" fill="#201D40"/>
<path d="M490.605 95.8308L525.195 149.936L566.277 173.129L553.614 185.739L512.399 167.677L484.113 127.768L490.605 95.8308Z" fill="#201D40"/>
<path d="M458.335 94.4979C458.335 94.4979 453.243 99.6298 448.564 100.949L443.032 86.3269L445.845 82.5546L458.335 94.4979Z" fill="white"/>
<path d="M458.334 94.4978C458.334 94.4978 461.24 99.4831 466.798 102.589L474.849 89.2193L472.743 84.9672L458.334 94.4978Z" fill="white"/>
<path d="M495.977 248.548H193.968C186.863 248.548 181.118 244.682 181.118 239.897C181.118 235.125 186.877 231.246 193.968 231.246H495.977C503.068 231.246 508.826 235.112 508.826 239.897C508.826 244.669 503.081 248.548 495.977 248.548Z" fill="#95A6DB"/>
<path d="M307.163 370.407C303.924 370.407 301.978 366.821 303.75 364.102L383.488 241.91L390.313 246.362L310.575 368.554C309.815 369.714 308.536 370.407 307.163 370.407Z" fill="#95A6DB"/>
<path d="M382.782 370.407C386.021 370.407 387.967 366.821 386.195 364.102L306.457 241.91L299.632 246.362L379.37 368.554C380.13 369.714 381.409 370.407 382.782 370.407Z" fill="#95A6DB"/>
<path d="M508 368.474C505.841 368.474 504.094 366.728 504.094 364.569V295.401H511.906V364.569C511.906 366.728 510.159 368.474 508 368.474Z" fill="#768FDB"/>
<path d="M535.392 368.474C533.233 368.474 531.486 366.728 531.486 364.569V295.401H539.298V364.569C539.298 366.728 537.551 368.474 535.392 368.474Z" fill="#768FDB"/>
<path d="M571.343 368.474C569.183 368.474 567.437 366.728 567.437 364.569V295.401H575.248V364.569C575.248 366.728 573.489 368.474 571.343 368.474Z" fill="#768FDB"/>
<path d="M598.735 368.474C596.575 368.474 594.829 366.728 594.829 364.569V295.401H602.64V364.569C602.64 366.728 600.894 368.474 598.735 368.474Z" fill="#768FDB"/>
<path d="M555.533 192.75V275.06C555.533 275.994 554.773 276.753 553.84 276.753H502.801C497.656 276.753 493.484 280.926 493.484 286.071C493.484 291.216 497.656 295.388 502.801 295.388H555.533H564.85C569.996 295.388 574.168 291.216 574.168 286.071V276.753V192.75C574.168 187.605 569.996 183.433 564.85 183.433C559.705 183.433 555.533 187.605 555.533 192.75Z" fill="#95A6DB"/>
<path d="M605.212 183.433H564.864V278.273H605.212V183.433Z" fill="#95A6DB"/>
<path d="M595.881 192.75V275.06C595.881 275.994 595.122 276.753 594.189 276.753H543.15C538.004 276.753 533.832 280.926 533.832 286.071C533.832 291.216 538.004 295.388 543.15 295.388H595.881H605.199C610.344 295.388 614.516 291.216 614.516 286.071V276.753V192.75C614.516 187.605 610.344 183.433 605.199 183.433C600.067 183.433 595.881 187.605 595.881 192.75Z" fill="#768FDB"/>
<path d="M178.119 368.474C180.279 368.474 182.025 366.728 182.025 364.569V295.402H174.214V364.569C174.227 366.728 175.973 368.474 178.119 368.474Z" fill="#768FDB"/>
<path d="M150.726 368.474C152.885 368.474 154.632 366.728 154.632 364.569V295.402H146.82V364.569C146.82 366.728 148.58 368.474 150.726 368.474Z" fill="#768FDB"/>
<path d="M114.79 368.474C116.949 368.474 118.695 366.728 118.695 364.569V295.402H110.884V364.569C110.884 366.728 112.63 368.474 114.79 368.474Z" fill="#768FDB"/>
<path d="M87.3975 368.474C89.5569 368.474 91.3031 366.728 91.3031 364.569V295.402H83.4919V364.569C83.4919 366.728 85.2381 368.474 87.3975 368.474Z" fill="#768FDB"/>
<path d="M130.585 192.75V275.06C130.585 275.994 131.345 276.753 132.278 276.753H183.317C188.462 276.753 192.634 280.926 192.634 286.071C192.634 291.216 188.462 295.388 183.317 295.388H130.585H121.267C116.122 295.388 111.95 291.216 111.95 286.071V276.753V192.75C111.95 187.605 116.122 183.433 121.267 183.433C126.413 183.433 130.585 187.605 130.585 192.75Z" fill="#95A6DB"/>
<path d="M80.91 278.262H121.259L121.259 183.422H80.91L80.91 278.262Z" fill="#95A6DB"/>
<path d="M90.2371 192.749V275.06C90.2371 275.993 90.9968 276.753 91.9299 276.753H142.969C148.114 276.753 152.286 280.925 152.286 286.07C152.286 291.215 148.114 295.387 142.969 295.387H90.2371H80.9197C75.7745 295.387 71.6023 291.215 71.6023 286.07V276.753V192.749C71.6023 187.604 75.7745 183.432 80.9197 183.432C86.0649 183.432 90.2371 187.604 90.2371 192.749Z" fill="#768FDB"/>
<path d="M534.766 161.293C526.155 158.187 512.852 151.389 521.69 138.979C530.527 126.569 530.301 131.981 527.128 116.905C523.943 101.829 534.66 89.9659 544.883 92.9784C555.107 95.9775 557.706 104.242 570.236 102.149C582.766 100.056 593.177 111.773 588.458 121.93C583.739 132.087 581.726 136.979 586.138 142.604C590.551 148.229 610.412 154.281 602.121 167.757C593.83 181.234 590.044 180.407 592.91 187.312C595.789 194.217 589.151 202.081 577.634 201.001C566.117 199.922 555.694 195.576 551.468 182.713C547.256 169.863 534.766 161.293 534.766 161.293Z" fill="#2C2858"/>
<path d="M504.307 357.104L497.509 359.13L492.391 353.892C492.631 353.532 492.404 350.013 491.604 346.281L504.321 344.175C504.814 348.053 504.307 353.199 504.307 357.104Z" fill="#F37A50"/>
<path d="M497.549 357.917C495.937 353.665 492.471 353.199 492.471 353.199C485.753 362.169 469.237 356.664 469.784 368.794C494.883 368.634 505.321 368.794 505.321 368.794C505.294 366.008 504.787 359.397 504.214 356.811L502.908 357.038L497.549 357.917Z" fill="#E62552"/>
<path d="M459.053 358.37L451.975 358.85L447.897 354.505C448.216 354.198 448.99 348.826 449.03 345.014L460.973 345.547C460.626 349.453 459.92 354.558 459.053 358.37Z" fill="#F37A50"/>
<path d="M452.735 357.917C451.122 353.665 447.657 353.199 447.657 353.199C440.938 362.169 424.423 356.664 424.97 368.794C450.069 368.634 460.506 368.794 460.506 368.794C460.48 366.008 459.973 359.397 459.4 356.811L458.094 357.038L452.735 357.917Z" fill="#E62552"/>
<path d="M530.7 239.91C511.359 242.51 456.881 262.704 453.842 266.356C447.563 273.901 450.869 314.956 447.897 348.826L463.732 349.759C471.317 322.167 470.717 310.264 474.142 278.619C474.142 278.619 536.392 283.285 558.879 268.102C582.072 252.453 546.336 236.205 530.7 239.91Z" fill="#110935"/>
<path d="M505.495 199.695C510.067 200.482 511.826 204.147 512.933 210.892C495.524 221.156 469.652 221.876 469.652 221.876L461.401 217.797C461.401 217.81 482.141 210.332 505.495 199.695Z" fill="#DE623C"/>
<path d="M553.108 180.394C545.484 191.471 516.292 215.277 511.466 216.024L505.615 199.642C505.615 199.642 534.113 168.797 539.299 163.345C548.256 153.881 565.585 162.346 553.108 180.394Z" fill="#DE623C"/>
<path d="M521.01 178.621C527.115 172.036 535.073 157.174 545.43 158.227C555.787 159.28 556.533 170.277 553.414 176.195C550.295 182.113 539.512 196.696 539.512 196.696L521.01 178.621Z" fill="#FF4F78"/>
<path d="M522.876 206.48C527.261 207.986 529.767 221.822 528.541 222.875C509.719 230.326 470.57 222.262 470.57 222.262L468.491 215.171C468.491 215.171 498.136 213.358 522.876 206.48Z" fill="#F37A50"/>
<path d="M584.805 251.534C580.5 229.327 578.647 221.462 576.861 211.012C572.449 185.192 585.432 167.038 563.158 154.668L546.923 157.28C533.793 171.09 525.715 183.62 525.022 192.284C524.076 203.454 535.153 209.506 535.153 209.506L530.701 239.91C530.701 239.91 529.647 242.39 547.949 245.855C566.251 249.308 584.805 251.534 584.805 251.534Z" fill="#E62552"/>
<path d="M571.463 183.54C563.838 194.736 531.287 223.208 526.395 223.462L522.89 206.48C522.89 206.48 552.468 171.809 557.653 166.304C566.611 156.72 583.939 165.278 571.463 183.54Z" fill="#F37A50"/>
<path d="M540.325 183.62C546.017 175.342 557.48 160.08 567.837 161.133C578.194 162.186 578.941 173.183 575.822 179.101C572.703 185.019 561.919 199.602 561.919 199.602L540.325 183.62Z" fill="#FF4F78"/>
<path d="M468.492 215.171C462.507 213.705 449.484 209.332 444.245 223.035C445.565 225.555 450.377 219.343 452.443 218.77C455.722 217.85 458.548 219.583 461.041 221.956C464.613 225.368 470.571 222.262 470.571 222.262L468.492 215.171Z" fill="#F37A50"/>
<path d="M463.84 231.1H407.602V223.555H471.384C471.384 227.727 467.999 231.1 463.84 231.1Z" fill="#FF4F78"/>
<path d="M378.69 183.673L407.602 231.113L414.28 227.594L381.849 173.476C378.157 175.409 376.744 179.981 378.69 183.673Z" fill="#FF4F78"/>
<path d="M570.583 133.514C567.851 144.937 558.36 152.455 549.389 150.309C540.418 148.163 535.366 137.166 538.099 125.743C540.831 114.319 550.322 106.801 559.293 108.947C568.264 111.093 573.316 122.09 570.583 133.514Z" fill="#F37A50"/>
<path d="M566.237 139.525L551.335 148.763C551.335 148.763 550.015 155.348 549.348 157.494C547.989 161.906 553.201 163.825 557.613 161.093C562.025 158.347 563.145 154.668 563.145 154.668L566.237 139.525Z" fill="#F37A50"/>
<path d="M537.072 121.37C541.311 121.73 550.482 120.997 553.827 117.025C556.213 125.076 566.357 132.754 574.741 136.353C575.075 128.088 575.021 112.879 560.199 106.561C548.562 101.603 537.072 121.37 537.072 121.37Z" fill="#2C2858"/>
<path d="M542.31 128.742C541.91 129.528 540.95 129.861 540.164 129.461C539.378 129.062 539.044 128.102 539.444 127.315C539.844 126.529 540.804 126.196 541.59 126.596C542.377 126.982 542.697 127.942 542.31 128.742Z" fill="black"/>
<path d="M554.907 131.847C554.481 132.7 553.441 133.06 552.575 132.634C551.722 132.207 551.362 131.168 551.788 130.301C552.215 129.448 553.254 129.088 554.121 129.515C554.987 129.941 555.334 130.981 554.907 131.847Z" fill="black"/>
<path d="M556.826 130.408C556.706 130.355 556.613 130.248 556.546 130.115C555.68 128.235 553.32 127.875 553.307 127.862C552.974 127.809 552.747 127.502 552.801 127.182C552.854 126.849 553.147 126.622 553.48 126.676C553.6 126.689 556.506 127.129 557.653 129.608C557.799 129.915 557.666 130.275 557.359 130.408C557.173 130.501 556.986 130.488 556.826 130.408Z" fill="#2C2858"/>
<path d="M538.805 126.409C538.752 126.382 538.698 126.342 538.645 126.289C538.405 126.049 538.418 125.676 538.645 125.436C540.485 123.61 542.764 124.369 542.857 124.409C543.177 124.516 543.337 124.863 543.23 125.183C543.124 125.502 542.777 125.662 542.471 125.556C542.391 125.529 540.804 125.023 539.498 126.302C539.311 126.489 539.032 126.529 538.805 126.409Z" fill="#2C2858"/>
<path d="M543.337 132.221C542.457 133.127 541.684 134.06 540.844 134.593C540.564 134.767 540.471 135.153 540.631 135.447C541.311 136.646 543.297 137.646 544.51 138.152C544.683 138.232 544.83 137.992 544.683 137.872C543.457 136.793 542.923 136.006 542.71 135.566C542.604 135.353 542.604 135.1 542.71 134.887C542.963 134.393 543.457 133.38 543.803 132.541C543.923 132.234 543.55 132.007 543.337 132.221Z" fill="#DE623C"/>
<path d="M566.263 133.594C564.077 135.286 563.437 138.112 564.824 139.898C566.21 141.685 569.102 141.751 571.289 140.058C573.475 138.366 574.114 135.54 572.728 133.754C571.342 131.967 568.449 131.887 566.263 133.594Z" fill="#F37A50"/>
<path d="M567.504 139.365C567.424 139.325 567.344 139.259 567.291 139.192C566.451 138.072 566.371 136.833 567.077 135.846C567.797 134.847 569.143 134.38 570.263 134.753C570.583 134.86 570.756 135.193 570.65 135.513C570.543 135.833 570.21 136.006 569.89 135.9C569.277 135.7 568.477 135.98 568.064 136.553C567.677 137.099 567.744 137.779 568.264 138.472C568.464 138.739 568.41 139.112 568.144 139.312C567.957 139.459 567.704 139.472 567.504 139.365Z" fill="#DE623C"/>
<path d="M552.335 243.443C532.994 246.042 478.436 263.73 475.397 267.383C469.118 274.927 483.088 307.238 487.553 348.84H506.215C506.015 319.208 508.387 291.936 499.27 282.272C499.27 282.272 551.575 278.779 577.634 278.779C590.937 278.779 598.295 233.872 552.335 243.443Z" fill="#110239"/>
<path d="M542.523 141.831C542.27 141.485 542.55 140.991 542.977 141.045C544.07 141.178 545.883 141.351 547.602 141.351C549.335 141.351 551.134 141.178 552.227 141.045C552.654 140.991 552.934 141.485 552.681 141.831C551.881 142.898 550.241 144.524 547.602 144.524C544.949 144.537 543.31 142.911 542.523 141.831Z" fill="white"/>
<path d="M171.149 211.505C167.457 213.957 168.483 227.354 169.869 228.033C189.077 230.379 221.508 214.464 221.508 214.464L222.775 207.346C222.788 207.359 195.689 211.891 171.149 211.505Z" fill="#F37A50"/>
<path d="M128.947 188.285C135.812 199.268 165.857 227.647 170.522 228.074L174.494 211.985C174.494 211.985 147.515 177.794 142.77 172.329C134.572 162.852 117.71 170.383 128.947 188.285Z" fill="#F37A50"/>
<path d="M145.368 129.621C146.195 118.385 142.942 108.454 133.985 103.389C124.907 98.2568 113.524 103.295 113.524 103.295C113.524 103.295 103.886 99.8697 95.1556 109.48C86.4247 119.091 93.0228 127.555 89.4638 134.567C87.3444 138.725 76.6008 139.579 79.3733 153.108C80.1731 157.014 84.8651 159.64 88.8373 159.893C95.822 160.346 102.327 157.653 105.153 160.346C114.483 169.237 135.144 166.024 138.037 157.893C138.93 155.374 157.525 160.253 155.672 143.071C154.739 134.367 144.635 139.672 145.368 129.621Z" fill="#2C2858"/>
<path d="M128.333 165.958L113.577 163.238L108.045 170.596L119.802 194.71L137.104 180.034L128.333 165.958Z" fill="#F37A50"/>
<path d="M147.475 224.115C147.222 219.529 154.633 200.681 150.741 191.191C147.902 183.566 143.143 170.756 137.331 168.61C134.586 167.597 131.76 166.904 128.347 165.958C128.347 165.958 130.28 175.568 126.255 175.902C118.51 176.528 113.578 163.238 113.578 163.238C109.406 162.839 90.2647 169.13 90.278 170.703C90.318 183.006 100.329 200.975 103.594 214.277C104.887 228.647 99.862 245.855 99.8487 247.481C99.8487 247.481 130.64 256.132 148.888 246.095C149.261 244.682 147.822 230.446 147.475 224.115Z" fill="#FD425F"/>
<path d="M104.473 232.712C104.473 232.712 97.6748 249.854 96.0219 260.651C94.3691 271.448 103.713 278.366 103.713 278.366H181.505C181.505 278.366 189.836 264.863 187.436 255.533C185.037 246.202 179.518 244.722 179.518 244.722L104.473 232.712Z" fill="#FD425F"/>
<path d="M182.545 244.256C172.614 242.856 143.796 254.053 131.506 278.366H165.883L182.545 244.256Z" fill="#DE623C"/>
<path d="M171.655 253.2C172.935 251.8 174.108 250.067 175.134 248.255C178.026 243.149 185.024 242.283 188.97 246.628C203.313 262.437 233.864 298.467 240.676 302.946C242.595 304.212 253.832 310.677 264.509 309.397C264.509 309.397 269.774 311.41 266.268 315.596C264.456 317.755 237.33 319.981 237.33 319.981L235.21 312.01C219.415 300.32 199.754 301.16 183.078 279.792C173.894 268.022 171.655 253.2 171.655 253.2Z" fill="#DE623C"/>
<path d="M242.821 324.593L253.738 331.685L255.244 329.898L246.393 321.634C251.419 317.662 263.082 320.981 263.082 320.981C266.894 318.515 274.346 310.517 275.105 306.238C272.666 303.199 264.522 309.464 264.522 309.464C264.815 310.824 262.242 315.516 260.203 316.329C251.312 318.248 242.448 315.716 235.223 312.05C235.21 312.024 229.158 321.181 242.821 324.593Z" fill="#E62552"/>
<path d="M171.494 255.346C169.508 255.879 168.028 257.545 167.735 259.585C166.962 265.103 162.936 276.274 168.375 287.977C181.718 316.702 189.595 335.617 190.995 343.041C187.516 349.573 201.406 367.395 201.619 368.568L211.616 365.435C211.616 365.435 205.871 356.904 203.818 353.558C198.9 345.601 198.1 335.83 197.3 328.259C193.888 295.935 199.753 275.527 176.373 256.572C174.96 255.439 173.213 254.893 171.494 255.346Z" fill="#F37A50"/>
<path d="M186.009 356.704L186.995 369.687L189.328 369.794L190.528 357.744C196.739 359.344 201.165 370.607 201.165 370.607C205.444 372.153 216.307 373.22 220.186 371.22C221.133 367.435 211.202 364.755 211.202 364.755C210.309 365.822 205.004 366.621 203.124 365.488C196.206 359.583 192.447 350.999 190.981 343.028C190.994 343.041 180.437 343.788 186.009 356.704Z" fill="#E62552"/>
<path d="M124.601 153.908L112.618 152.108L113.578 163.238C113.578 163.238 115.871 168.277 118.536 168.624L128.347 165.971L124.601 153.908Z" fill="#F37A50"/>
<path d="M101.527 137.819C104.62 150.749 115.364 159.253 125.507 156.814C135.651 154.388 141.383 141.938 138.277 129.008C135.185 116.078 124.441 107.574 114.297 110.013C104.153 112.439 98.4349 124.889 101.527 137.819Z" fill="#F37A50"/>
<path d="M133.532 132.407C133.985 133.3 135.065 133.673 135.971 133.22C136.865 132.767 137.238 131.687 136.785 130.781C136.331 129.888 135.252 129.515 134.345 129.968C133.452 130.421 133.079 131.514 133.532 132.407Z" fill="black"/>
<path d="M119.269 135.926C119.749 136.899 120.935 137.286 121.908 136.806C122.881 136.326 123.281 135.14 122.788 134.167C122.308 133.194 121.122 132.794 120.149 133.287C119.189 133.78 118.789 134.953 119.269 135.926Z" fill="black"/>
<path d="M117.097 134.3C117.23 134.233 117.35 134.127 117.417 133.98C118.403 131.861 121.056 131.447 121.082 131.434C121.455 131.381 121.709 131.034 121.655 130.661C121.602 130.288 121.255 130.034 120.882 130.088C120.749 130.101 117.47 130.594 116.164 133.407C116.004 133.753 116.15 134.153 116.497 134.313C116.71 134.393 116.923 134.393 117.097 134.3Z" fill="#2C2858"/>
<path d="M137.491 129.781C137.558 129.755 137.624 129.701 137.678 129.648C137.944 129.381 137.944 128.942 137.678 128.675C135.598 126.622 133.026 127.475 132.919 127.502C132.559 127.622 132.373 128.008 132.493 128.368C132.613 128.728 132.999 128.915 133.359 128.795C133.439 128.768 135.252 128.195 136.718 129.648C136.918 129.861 137.238 129.901 137.491 129.781Z" fill="#2C2858"/>
<path d="M132.359 136.353C133.359 137.379 134.226 138.432 135.185 139.032C135.505 139.232 135.612 139.658 135.425 139.992C134.652 141.351 132.413 142.471 131.04 143.057C130.84 143.137 130.68 142.884 130.84 142.738C132.226 141.525 132.826 140.618 133.079 140.138C133.199 139.898 133.199 139.605 133.079 139.365C132.799 138.805 132.226 137.659 131.84 136.713C131.693 136.366 132.119 136.099 132.359 136.353Z" fill="#DE623C"/>
<path d="M106.42 137.899C108.886 139.818 109.619 143.004 108.046 145.03C106.473 147.043 103.207 147.123 100.741 145.204C98.2754 143.284 97.5423 140.098 99.1152 138.072C100.675 136.06 103.954 135.98 106.42 137.899Z" fill="#F37A50"/>
<path d="M105.007 144.444C105.101 144.404 105.181 144.337 105.247 144.244C106.194 142.978 106.287 141.565 105.487 140.458C104.674 139.325 103.155 138.805 101.875 139.219C101.515 139.339 101.328 139.725 101.435 140.085C101.555 140.445 101.942 140.632 102.301 140.525C102.995 140.298 103.901 140.618 104.368 141.258C104.807 141.871 104.727 142.644 104.141 143.431C103.914 143.737 103.981 144.164 104.274 144.39C104.514 144.537 104.781 144.55 105.007 144.444Z" fill="#DE623C"/>
<path d="M121.135 146.656C120.856 146.27 121.162 145.737 121.629 145.79C122.842 145.937 124.841 146.137 126.761 146.137C128.68 146.137 130.679 145.937 131.892 145.79C132.372 145.737 132.679 146.27 132.386 146.656C131.506 147.843 129.693 149.642 126.761 149.642C123.841 149.642 122.015 147.843 121.135 146.656Z" fill="white"/>
<path d="M101.275 136.673C113.391 135.046 130.346 122.703 131.733 116.372C129.387 108.76 116.91 104.935 109.859 108.467C102.807 111.986 96.1427 127.102 101.275 136.673Z" fill="#2C2858"/>
<path d="M214.616 228.287C213.003 227.767 212.123 226.021 212.643 224.408L231.344 167.117C231.864 165.505 233.611 164.625 235.223 165.145C236.836 165.665 237.716 167.411 237.196 169.024L218.495 226.314C217.962 227.927 216.229 228.807 214.616 228.287Z" fill="white"/>
<path d="M224.547 207.759L228.359 196.083C228.359 196.083 231.665 202.801 228.359 209.172C225.053 215.544 221.908 215.824 221.908 215.824L224.547 207.759Z" fill="#F37A50"/>
<path d="M219.108 204.627C218.148 202.361 215.882 196.696 218.148 196.723C220.414 196.749 220.787 199.508 220.787 199.508L219.108 204.627Z" fill="#F37A50"/>
<path d="M31.7736 170.516C36.9188 165.331 33.5465 160.013 33.5465 160.013C36.3723 159.413 51.2615 181.966 57.673 196.296C68.8699 185.006 88.5977 169.77 93.9428 168.877C93.9428 168.877 101.141 166.944 103.727 175.648C106.033 183.419 97.0353 188.924 97.0353 188.924C97.0353 188.924 58.5261 216.117 52.821 213.704C43.9569 209.932 35.9325 177.568 31.7736 170.516Z" fill="#F37A50"/>
<path d="M23.7361 169.877C26.8819 170.063 30.7608 168.517 31.9738 171.33L38.172 168.304L38.5453 164.558C33.2134 156.014 20.2304 153.601 18.9374 153.481C15.5917 153.188 14.0455 152.841 13.7789 153.295C13.5123 153.748 12.6992 156.72 17.5512 157.294C23.6428 158.027 19.5906 162.892 7.24738 158.253C4.15491 157.094 -1.65678 158.6 0.44929 160.853C2.76864 163.358 9.43343 169.01 23.7361 169.877Z" fill="#F37A50"/>
</svg>
