<svg width="505" height="805" viewBox="0 0 505 805" fill="none" xmlns="http://www.w3.org/2000/svg">
<path d="M308.243 320.881L330.682 333.848C330.682 333.848 397.319 355.034 407.704 359.496C418.088 363.958 386.909 521.341 375.037 585.187C363.166 649.032 390.718 804.929 390.718 804.929H251.808V384.726L308.243 320.881Z" fill="#2C2858"/>
<path d="M196.05 320.881L173.611 333.848C173.611 333.848 106.974 355.034 96.5895 359.496C86.2051 363.958 117.384 521.341 129.256 585.187C141.128 649.032 119.367 804.929 119.367 804.929H252.486V384.726L196.05 320.881Z" fill="#2C2858"/>
<path d="M252.487 726.785L207.531 804.537L252.487 804.903L297.99 804.537L252.487 726.785Z" fill="#E0EAF3"/>
<path d="M183.605 719.871L227.23 711.287L261.201 732.395C261.201 732.395 262.636 744.553 259.766 745.258C256.896 745.962 259.062 755.277 254.391 758.852C249.747 762.426 239.024 763.861 236.519 766.366C234.014 768.871 229.005 774.585 224.726 774.585C220.447 774.585 184.31 759.556 184.31 759.556L183.605 719.871Z" fill="#FDD1A3"/>
<path d="M263.053 733.777L246.98 723.628L232.891 732.395C232.891 732.395 231.456 744.553 234.326 745.258C237.196 745.962 235.03 755.277 239.701 758.851C241.606 760.312 244.502 761.408 247.424 762.374C252.407 760.443 259.061 754.625 259.061 754.625L263.053 733.777Z" fill="#EDBA89"/>
<path d="M313.593 719.871L269.968 711.287L235.997 732.395C235.997 732.395 234.562 744.553 237.432 745.258C240.302 745.962 238.137 755.277 242.807 758.852C247.452 762.426 258.175 763.861 260.68 766.366C263.185 768.871 268.194 774.585 272.473 774.585C276.752 774.585 312.889 759.556 312.889 759.556L313.593 719.871Z" fill="#FDD1A3"/>
<path d="M96.5895 359.47C96.5895 359.47 73.6812 369.515 59.4614 407.791C31.8567 482.204 2.99958 613.392 0.0773377 634.969C-4.3843 667.636 185.666 778.994 190.127 780.481L194.589 703.277L96.5895 614.201L144.102 522.15L96.5895 359.47Z" fill="#2C2858"/>
<path d="M92.5 362C92.5 362 116.656 398.233 118.848 457.539V506.591C118.848 506.591 138.798 422.42 100 358L96 359.5L92.5 362Z" fill="#201D40"/>
<path d="M316.96 334.579L251.784 362.757V705.468V646.006L285.207 639.744C285.207 639.744 341.616 518.836 342.921 463.053C344.199 407.243 316.96 334.579 316.96 334.579Z" fill="#95A6DB"/>
<path d="M160.646 463.053C161.951 518.862 218.36 639.744 218.36 639.744L251.783 646.006V705.468V362.757L186.607 334.579C186.607 334.579 159.341 407.243 160.646 463.053Z" fill="#95A6DB"/>
<path d="M262.478 418.671L281.603 379.247L251.781 362.757L221.932 379.247L241.057 418.671L218.357 639.744L251.781 705.468L285.204 639.744L262.478 418.671Z" fill="#312C66"/>
<path d="M290.58 241.823L251.782 248.659L216.271 241.823L210.349 306.217L251.782 362.757L293.215 306.217L290.58 241.823Z" fill="#F37A50"/>
<path d="M136.273 192.224C132.36 195.277 131.577 201.121 133.116 205.844C134.629 210.566 137.995 214.454 141.257 218.185C146.344 224.003 151.458 229.848 156.546 235.666C157.694 236.971 159.051 238.38 160.799 238.38C163.173 238.354 164.582 235.771 165.287 233.527C168.418 223.482 168 210.645 161.217 202.243C156.051 195.851 144.675 185.649 136.273 192.224Z" fill="#FDD1A3"/>
<path d="M368.462 192.224C372.375 195.277 373.158 201.121 371.619 205.844C370.105 210.566 366.74 214.454 363.478 218.185C358.39 224.003 353.276 229.848 348.189 235.666C347.041 236.971 345.684 238.38 343.936 238.38C341.561 238.354 340.152 235.771 339.448 233.527C336.317 223.482 336.734 210.645 343.518 202.243C348.684 195.851 360.06 185.649 368.462 192.224Z" fill="#F37A50"/>
<path d="M353.772 79.0656H190.57C177.368 79.0656 164.688 77.0566 152.633 73.4038C142.666 91.72 138.179 113.245 141.127 135.501C144.597 161.593 150.703 187.215 157.017 212.758C161.139 229.457 155.947 249.86 168.706 262.619C187.778 281.718 217.027 306.27 242.597 308.931C248.702 309.557 254.833 309.557 260.939 308.931C282.464 306.687 306.051 286.91 323.663 273.655C333.551 266.219 341.066 255.913 342.735 243.416C347.588 206.94 357.581 172.029 362.408 135.527C365.07 115.489 361.704 96.1033 353.772 79.0656Z" fill="#F37A50"/>
<path d="M185.692 88.0927C181.621 81.9351 168.863 84.6747 165.862 77.8909C155.191 75.2296 126.725 71.2376 119.106 101.66C109.687 139.31 159.261 228.438 159.261 228.438C159.261 228.438 154.799 194.624 152.816 164.332C150.442 128.456 180.734 94.7721 185.692 88.0927Z" fill="black"/>
<path d="M243.824 237.936C240.459 237.441 239.102 233.396 240.146 230.318C241.189 227.239 243.772 224.812 245.86 222.229C253.139 213.228 254.887 201.278 253.217 190.398C251.521 179.492 246.747 169.394 242.024 159.401C245.364 168.559 247.764 178.526 248.938 188.206C250.112 197.886 248.964 208.166 243.72 216.854C241.111 221.186 237.484 225.178 236.467 229.978C235.475 234.779 238.632 238.406 243.824 237.936Z" fill="#DE623C"/>
<path d="M295.33 158.253C303.548 156.896 311.559 157.862 319.412 160.549C327.135 163.21 330.475 150.974 322.778 148.338C312.707 144.868 302.427 144.32 291.964 146.042C283.954 147.347 287.346 159.584 295.33 158.253Z" fill="black"/>
<path d="M299.165 202.426C315.472 202.426 315.498 177.065 299.165 177.065C282.858 177.091 282.832 202.426 299.165 202.426Z" fill="black"/>
<path d="M209.852 158.253C201.633 156.896 193.623 157.862 185.77 160.549C178.047 163.21 174.707 150.974 182.404 148.338C192.475 144.868 202.755 144.32 213.218 146.042C221.254 147.347 217.862 159.584 209.852 158.253Z" fill="black"/>
<path d="M206.016 202.426C189.709 202.426 189.683 177.065 206.016 177.065C222.323 177.091 222.349 202.426 206.016 202.426Z" fill="black"/>
<path d="M222.61 256.018C225.272 268.646 236.308 281.9 249.537 281.9C262.765 281.9 273.776 268.646 276.463 256.018C268.088 259.175 259.008 260.897 249.537 260.897C240.066 260.897 231.012 259.175 222.61 256.018Z" fill="black"/>
<path d="M143.163 150.817V179.491C136.145 181.396 130.9 187.814 130.9 195.433V219.75C130.9 228.83 138.336 236.292 147.442 236.292C156.522 236.292 163.984 228.856 163.984 219.75V195.433C163.984 187.475 158.296 180.796 150.782 179.23V150.791C150.782 91.9022 199.443 43.9984 259.27 43.9984V36.4058C195.242 36.4319 143.163 87.7537 143.163 150.817Z" fill="#48423C"/>
<path d="M154.721 180.691C154.461 180.561 154.226 180.431 153.965 180.326V180.483C154.226 180.509 154.461 180.613 154.721 180.691Z" fill="#524943"/>
<path d="M134.109 220.95V196.633C134.109 189.015 139.327 182.596 146.372 180.691V152.017C146.372 89.9975 196.728 39.3802 259.27 37.6842V36.4058C195.267 36.4058 143.189 87.7276 143.189 150.817V179.491C136.17 181.396 130.926 187.814 130.926 195.433V219.75C130.926 227.421 136.222 233.866 143.319 235.718C137.866 233.031 134.109 227.421 134.109 220.95Z" fill="#574E48"/>
<path d="M358.73 71.7597C344.954 69.7768 332.195 63.3583 323.011 52.8957C321.993 51.7476 321.289 50.9127 321.08 50.6257C296.972 15.5588 246.641 1.626 206.278 0.112699C173.351 -1.1136 126.986 7.13129 131.578 51.4606C135.414 88.4061 185.118 102.339 215.123 107.348C271.585 116.767 329.951 94.1723 329.951 94.1723C329.951 94.1723 358.182 129.944 354.425 160.053C350.668 190.163 345.137 228.152 345.137 228.152C345.137 228.152 397.711 137.458 388.318 99.808C383.308 79.822 370.054 73.3774 358.73 71.7597Z" fill="black"/>
<path d="M210.036 262.253L202.052 260.688C197.956 259.879 193.964 262.436 192.894 266.428C180.657 264.132 163.411 260.27 158.532 255.965C150.861 249.208 149.217 233.944 149.191 233.788L146.66 234.049C146.738 234.727 148.408 250.46 156.836 257.87C162.211 262.593 180.083 266.637 192.607 268.959C192.842 272.481 195.373 275.56 198.973 276.264L206.957 277.83C211.236 278.665 215.437 275.847 216.272 271.568C217.133 267.263 214.315 263.088 210.036 262.253Z" fill="#48423C"/>
<path d="M251.782 362.758L293.215 306.218C293.215 306.218 319.933 312.323 330.709 333.822L276.934 406.722L251.782 362.758Z" fill="white"/>
<path d="M251.782 362.758L210.349 306.218C210.349 306.218 183.631 312.323 172.855 333.822L226.63 406.722L251.782 362.758Z" fill="white"/>
<path d="M127.065 743.04L124.899 757.077L190.128 780.455L127.065 743.04Z" fill="#201E1D"/>
<path d="M380.698 739.857L382.863 753.868L317.635 777.272L380.698 739.857Z" fill="#201E1D"/>
<path d="M407.731 359.47C407.731 359.47 430.639 369.515 444.859 407.791C472.464 482.204 501.295 613.392 504.243 634.969C508.705 667.636 318.655 778.994 314.193 780.481L309.731 703.277L407.731 614.201L360.218 522.15L407.731 359.47Z" fill="#2C2858"/>
<path d="M407.729 359.47C407.729 359.47 383.073 396.859 380.881 456.164V505.216C380.881 505.216 361.025 420.967 399.823 356.547L407.729 359.47Z" fill="#201D40"/>
</svg>
