<svg width="103" height="103" viewBox="0 0 103 103" fill="none" xmlns="http://www.w3.org/2000/svg">
<path opacity="0.8" d="M51.2393 103C79.5379 103 102.479 80.9267 102.479 53.6981C102.479 26.4696 79.5379 4.39648 51.2393 4.39648C22.9406 4.39648 0 26.4696 0 53.6981C0 80.9267 22.9406 103 51.2393 103Z" fill="url(#paint0_radial)"/>
<path d="M73.5949 34.0463C73.5949 15.5181 57.9848 0.52124 38.7522 0.52124C19.5196 0.52124 3.90948 15.541 3.90948 34.0463C3.90948 50.786 16.6597 64.6592 33.3184 67.1587V43.7462H24.4767V34.0463H33.3184V26.6626C33.3184 18.2698 38.5139 13.6148 46.4738 13.6148C50.287 13.6148 54.2669 14.2798 54.2669 14.2798V22.535H49.8818C45.5443 22.535 44.2098 25.1262 44.2098 27.7633V34.0463H53.8856L52.3365 43.7462H44.2098V67.1817C60.8446 64.6592 73.5949 50.786 73.5949 34.0463Z" fill="url(#paint1_linear)"/>
<path d="M52.3136 43.7463L53.8627 34.0465H44.1868V27.7634C44.1868 25.1034 45.5452 22.5351 49.8589 22.5351H54.244V14.28C54.244 14.28 50.264 13.615 46.4509 13.615C38.4909 13.615 33.2955 18.2471 33.2955 26.6627V34.0465H24.4537V43.7463H33.2955V67.1818C35.0591 67.457 36.8942 67.5946 38.7292 67.5946C40.5643 67.5946 42.3994 67.457 44.163 67.1818V43.7463H52.3136Z" fill="white"/>
<defs>
<radialGradient id="paint0_radial" cx="0" cy="0" r="1" gradientUnits="userSpaceOnUse" gradientTransform="translate(51.2373 53.6972) scale(51.2393 49.3016)">
<stop stop-color="#000056"/>
<stop offset="0.2482" stop-color="#4C4C88" stop-opacity="0.7518"/>
<stop offset="0.5193" stop-color="#9898BB" stop-opacity="0.4807"/>
<stop offset="0.744" stop-color="#D0D0E0" stop-opacity="0.256"/>
<stop offset="0.9103" stop-color="#F2F2F6" stop-opacity="0.0897"/>
<stop offset="1" stop-color="white" stop-opacity="0"/>
</radialGradient>
<linearGradient id="paint1_linear" x1="14.1092" y1="10.3483" x2="61.4898" y2="59.5912" gradientUnits="userSpaceOnUse">
<stop stop-color="#4676ED"/>
<stop offset="0.1854" stop-color="#436DE4"/>
<stop offset="0.487" stop-color="#3C55CD"/>
<stop offset="0.8651" stop-color="#302EA8"/>
<stop offset="1" stop-color="#2B1E99"/>
</linearGradient>
</defs>
</svg>
