<svg width="714" height="397" viewBox="0 0 714 397" fill="none" xmlns="http://www.w3.org/2000/svg">
<circle cx="339" cy="383" r="4" fill="#000B8C"/>
<circle cx="358" cy="383" r="4" fill="white"/>
<circle cx="377" cy="383" r="4" fill="white"/>
<path d="M194.406 338.872C198.244 355.081 203.876 373.298 209.732 390.458H306.809C308.999 383.396 311.175 375.819 313.233 367.767C325.156 321.276 312.6 281.068 301.309 262.852C290.006 244.636 280.285 222.961 297.511 196.389C314.75 169.818 316.372 149.146 316.372 149.146C313.866 139.101 306.018 135.643 285.64 125.901C285.64 125.901 284.426 125.492 282.54 124.858C278.227 142.401 269.113 156.354 252.982 159.192C231.957 162.901 212.977 150.057 203.388 127.538C194.129 130.27 183.828 133.187 178.921 135.946C178.921 135.946 204.654 191.862 209.561 223.476C214.454 255.104 182.667 289.239 194.406 338.872Z" fill="#E33E4A"/>
<path d="M252.967 159.205C269.098 156.367 278.213 142.414 282.526 124.871C275.772 122.588 259.892 117.123 255.473 114.918C249.828 112.093 251.398 89.1648 251.398 89.1648L221.562 97.6789C221.562 107.975 221.562 115.855 221.562 119.948C221.562 122.033 213.042 124.7 203.36 127.551C212.976 150.07 231.956 162.901 252.967 159.205Z" fill="url(#paint0_linear)"/>
<path d="M251.412 89.5212L221.577 98.0353C221.577 106.021 221.577 112.516 221.577 116.951C234.186 123.762 248.326 136.421 253.127 159.522C269.166 156.617 278.227 142.705 282.527 125.214C275.774 122.931 259.893 117.466 255.475 115.261C249.842 112.45 251.412 89.5212 251.412 89.5212Z" fill="#CB9FAF"/>
<path d="M269.81 228.228C256.502 232.307 243.932 236.782 237.284 236.782C224.108 236.782 204.64 218.249 195.446 229.575C186.24 240.9 184.881 248.398 192.083 253.427C199.285 258.457 222.222 251.54 233.209 253.744C238.115 254.721 254.827 255.579 272.594 255.302C274.097 248.24 273.886 235.317 269.81 228.228Z" fill="url(#paint1_linear)"/>
<path d="M316.886 149.146C313.786 136.765 288.33 159.509 294.608 180.246C299.99 198.027 298.038 221.906 298.038 221.906L322.966 247.144C331.434 236.782 319.405 159.205 316.886 149.146Z" fill="#D12F3B"/>
<path d="M306.334 222.024C296.692 220.612 282.883 224.229 269.812 228.228C273.887 235.317 274.111 248.24 272.595 255.302C294.635 254.959 318.271 252.886 322.966 247.144C322.966 247.144 334.27 226.103 306.334 222.024Z" fill="#D12F3B"/>
<path d="M214.69 54.8711C209.454 65.0616 210.034 99.7119 224.583 102.906C237.284 105.705 244.367 93.2967 244.367 93.2967V70.3152C244.367 70.3152 237.205 66.5796 236.216 57.7751C235.438 50.7395 231.27 49.9871 231.27 49.9871C231.27 49.9871 222.538 55.1615 214.69 54.8711Z" fill="url(#paint2_linear)"/>
<path d="M192.071 223.489C185.502 210.263 181.136 193.578 177.298 184.153C170.044 166.386 168.857 141.609 178.907 135.959C197.426 126.468 205.274 159.099 206.527 168.577C207.78 178.054 210.299 200.191 217.197 208.124L192.071 223.489Z" fill="#D12F3B"/>
<path d="M274.137 108.899C261.581 101.045 275.575 57.7486 254.524 41.0768C237.193 27.3619 209.547 37.6712 209.547 63.583C209.547 74.1299 209.547 110.034 209.547 125.676C216.406 123.538 221.576 121.558 221.576 119.934V102.101V101.705C210.022 94.3393 209.784 64.4278 214.691 54.8842C222.539 55.1746 231.271 50.0001 231.271 50.0001C231.271 50.0001 235.438 50.7525 236.217 57.7882C237.193 66.5926 244.368 70.3283 244.368 70.3283V93.3097C244.368 114.892 249.552 138.481 261.845 139.787C274.137 141.094 276.221 124.871 285.639 125.914C285.639 125.914 286.681 116.753 274.137 108.899Z" fill="black"/>
<path d="M210.021 192.179C203.162 201.551 192.425 209.748 192.069 223.503C197.899 235.237 205.457 244.266 215.943 243.078C231.388 241.336 236.73 223.159 238.55 206.514C228.236 207.293 215.099 199.122 210.021 192.179Z" fill="#D12F3B"/>
<path d="M233.342 107.526C230.401 108.859 219.954 117.967 219.954 120.251C219.954 122.522 224.637 139.669 224.637 144.896C224.637 150.123 219.849 172.88 213.571 186.344C212.621 188.377 211.394 190.291 210.022 192.165C215.101 199.122 228.238 207.293 238.552 206.488C239.357 199.109 239.489 192.033 239.489 186.833C239.489 186.833 240.544 148.763 242.272 146.057C243.841 143.589 243.828 139.51 243.828 136.052C243.828 129.584 243.828 129.003 243.828 129.003C243.828 129.003 246.229 128.844 246.36 124.726C246.36 124.607 246.36 124.475 246.36 124.343C246.36 119.855 236.283 106.193 233.342 107.526Z" fill="url(#paint3_linear)"/>
<path d="M485.964 124.37C485.964 161.462 485.964 235.502 485.964 235.502C485.964 235.502 523.027 236.637 521.893 235.502C520.759 234.366 521.893 183.876 521.893 183.876L485.964 124.37Z" fill="#D12F3B"/>
<path d="M559.195 247.355C562.255 268.159 560.343 291.853 559.195 300.802C558.048 309.752 531.694 389.784 531.694 389.784H595.942L613.63 305L590.152 240.227L559.195 247.355Z" fill="#E33E4A"/>
<path d="M559.195 247.355C562.255 268.159 560.342 291.853 559.195 300.802C558.047 309.752 526.444 390.458 526.444 390.458H595.942L613.629 305L590.151 240.227L559.195 247.355Z" fill="#171717"/>
<path d="M634.89 225.298C644.347 254.985 686.765 264.581 675.066 312.537C666.625 347.148 649.399 390.458 649.399 390.458H569.218C569.218 390.458 594.358 314.993 594.358 305C594.358 295.008 578.569 243.646 578.569 243.646L634.89 225.298Z" fill="black"/>
<path d="M498.931 99.2365C489.46 103.751 480.821 123.855 489.46 142.731C498.1 161.607 499.34 158.228 502.611 173.052C505.895 187.862 504.602 196.073 531.694 214.54C558.786 233.007 557.968 237.93 559.195 247.368C560.422 256.806 636.685 254.747 635.445 219.463C634.219 184.179 636.158 143.43 613.458 124.211C590.771 104.978 498.931 99.2365 498.931 99.2365Z" fill="#E33E4A"/>
<path d="M489.46 55.5442V161.462C489.46 161.462 527.882 140.83 527.539 120.647C527.196 100.464 510.168 55.5574 510.168 55.5574H489.46V55.5442Z" fill="black"/>
<path d="M516.446 119.103C516.446 119.103 521.564 127.393 523.292 130.957C525.033 134.521 517.33 150.268 519.862 163.772C522.395 177.276 539.093 174.966 542.826 163.772C543.947 160.393 546.941 136.448 546.941 136.448V96.8342L516.446 119.103Z" fill="url(#paint4_linear)"/>
<path d="M523.306 130.943C534.109 118.839 545.281 170.095 527.58 172.695C527.62 172.709 527.672 172.709 527.712 172.722L530.244 172.999C535.402 172.999 540.889 169.607 542.841 163.746C543.962 160.366 546.956 136.421 546.956 136.421V96.8079L516.461 119.076C516.448 119.103 521.565 127.393 523.306 130.943Z" fill="#CB9FAF"/>
<path d="M493.945 52.5213C488.696 85.0992 494.473 115.143 510.169 118.707C525.865 122.271 548.38 105.084 548.38 89.9173C548.38 74.7503 563.561 35.2555 546.282 26.2398C529.017 17.2242 497.295 31.7575 493.945 52.5213Z" fill="url(#paint5_linear)"/>
<path d="M507.148 49.5513C507.148 49.5513 498.944 56.4417 492.929 60.019C486.915 63.5962 488.392 42.938 500.039 33.2227C511.685 23.5074 526.959 15.2442 533.158 20.8278C533.158 20.8278 552.561 15.4554 564.326 35.2952C576.091 55.135 576.922 72.9023 580.629 77.8524C584.348 82.8156 590.534 85.9044 587.646 95.2105C587.646 95.2105 608.288 91.0789 611.387 105.335C614.487 119.591 613.458 124.198 613.458 124.198C613.458 124.198 607.048 119.182 593.884 114.562C593.884 114.562 585.021 121.545 576.553 121.545C568.085 121.545 557.428 155.72 542.563 155.72L542.444 74.3411C542.444 74.3411 508.876 70.0643 507.148 49.5513Z" fill="black"/>
<path d="M318.76 222.684C279.758 263.34 246.163 387.316 246.163 387.316H302.154L337.146 305L318.76 222.684Z" fill="#02B0C8"/>
<path d="M521.896 229.403C513.732 220.123 470.272 189.591 414.848 192.905C365.98 195.835 326.463 210.936 318.747 222.684C313.115 231.277 325.46 289.292 334.047 312.379C342.634 335.479 346.393 360.177 346.393 381.125C346.393 381.125 484.596 380.32 485.4 381.125C486.205 381.93 502.573 330.094 504.723 304.314C506.873 278.547 502.033 250.088 521.896 229.403Z" fill="#01C7E2"/>
<path d="M447.109 144.777C447.109 144.777 447.795 187.757 447.109 200.587C446.423 213.418 426.546 224.968 419.173 225.285C411.8 225.601 395.458 214.698 392.886 196.416V157.608L447.109 144.777Z" fill="url(#paint6_linear)"/>
<path d="M447.373 168.128C447.294 155.667 447.109 144.777 447.109 144.777L392.886 157.608V189.433C397.397 209.326 427.39 203.887 434.526 185.037C438.628 174.226 442.123 171.019 447.373 168.128Z" fill="#CB9FAF"/>
<path d="M378.524 128.079C380.555 159.574 393.388 190.053 413.701 186.846C438.907 182.859 446.557 144.605 445.567 123.749C444.578 102.893 432.694 89.8644 414.624 89.8512C397.438 89.8248 376.796 101.415 378.524 128.079Z" fill="url(#paint7_linear)"/>
<path d="M451.489 138.573C450.143 144.856 447.083 149.621 444.669 149.212C442.256 148.803 441.385 143.391 442.731 137.108C444.076 130.825 447.136 126.059 449.55 126.468C451.977 126.878 452.834 132.29 451.489 138.573Z" fill="url(#paint8_linear)"/>
<path d="M378.931 133.002C375.093 127.128 374.829 124.805 375.106 115.037C375.383 105.269 383.626 104.926 383.455 100.755C383.283 96.5833 388.599 85.3632 410.323 84.4656C432.046 83.568 430.74 93.534 437.467 94.1809C444.194 94.8277 454.627 101.731 449.549 126.455C449.549 126.455 443.64 127.023 441.319 138.969C441.16 139.814 439.907 140.065 439.419 139.325C438.747 138.322 437.995 136.83 437.428 134.745C435.805 128.778 429.303 137.754 428.129 125.835C427.285 117.347 406.603 132.923 391.25 119.156C391.25 119.156 388.968 122.192 382.439 121.994C378.641 121.914 378.931 133.002 378.931 133.002Z" fill="black"/>
<path d="M392.885 246.958C392.885 246.958 394.679 249.242 398.016 244.146C401.353 239.038 412.788 223.541 416.745 225.072L416.732 225.046C408.686 223.369 395.193 212.915 392.885 196.441V195.108C386.488 195.992 380.368 197.088 374.538 198.316C372.929 207.411 379.748 236.886 392.885 246.958Z" fill="#057E8E"/>
<path d="M447.096 200.587C446.503 211.741 431.387 221.932 422.616 224.611C426.758 223.001 441.992 243.052 444.63 247.461C447.268 251.883 452.122 245.903 456.936 233.574C460.431 224.624 465.852 209.207 463.583 198.317C458.4 196.865 452.953 195.637 447.294 194.687C447.241 197.01 447.189 199.029 447.096 200.587Z" fill="#057E8E"/>
<path d="M392.9 196.429V187.083C384.802 190.647 377.297 193.657 376.466 198.29C374.844 207.385 382.138 233.812 392.9 243.144C392.9 243.144 394.694 245.428 398.031 240.333C401.368 235.224 412.804 223.542 416.761 225.073L416.748 225.047C408.702 223.357 395.209 212.903 392.9 196.429Z" fill="#02B0C8"/>
<path d="M460.657 194.832C458.415 189.75 451.134 185.631 447.415 183.863C447.388 190.766 447.309 196.917 447.111 200.587C446.518 211.741 431.402 221.932 422.631 224.611C426.772 223.001 442.007 239.237 444.645 243.646C447.283 248.068 450.554 242.92 455.909 230.815C461.356 218.5 464.311 203.122 460.657 194.832Z" fill="#02B0C8"/>
<path d="M548.737 355.372C548.737 319.732 538.357 248.292 521.909 229.403C521.909 229.403 496.149 243.197 487.998 286.903C485.558 299.958 489.713 337.275 490.781 353.036L548.737 355.372Z" fill="#02B0C8"/>
<path d="M448.27 390.458C448.27 390.458 514.866 390.458 526.446 390.458C538.027 390.458 550.478 380.993 548.737 355.372C546.983 329.737 505.092 333.341 490.768 353.035L447.703 359.622L448.27 390.458Z" fill="#02B0C8"/>
<path d="M408.885 388.887L412.579 385.415L423.816 389.402C425.768 390.088 427.826 390.444 429.897 390.444H452.214C452.214 390.444 462.779 388.174 463.122 375.713C463.465 363.239 452.742 359.609 448.059 359.609H423.592C422.365 359.609 421.139 359.477 419.938 359.226L402.541 355.583C399.969 355.042 397.292 355.477 395.01 356.784L385.144 362.447C383.231 363.543 381.477 364.889 379.921 366.447L362.022 384.386C359.793 386.616 361.376 390.431 364.528 390.431H404.889C406.406 390.458 407.817 389.903 408.885 388.887Z" fill="url(#paint9_linear)"/>
<path d="M616.203 128.686C599.452 118.997 570.078 146.559 576.396 179.15C582.714 211.741 546.956 252.173 546.956 252.173C546.956 252.173 506.424 268.462 490.161 271.551C494.065 277.095 498.51 285.332 500.528 295.945C527.145 293.753 565.343 288.328 580.775 275.458C604.108 256.001 628.878 184.258 628.891 161.462C628.891 134.929 616.203 128.686 616.203 128.686Z" fill="#D12F3B"/>
<path d="M485.914 272.052C474.333 272.052 433.511 272.052 433.511 272.052C433.511 272.052 396.091 284.738 395.115 286.902C394.139 289.067 392.2 301.977 395.115 305C398.03 308.036 416.984 313.382 421.851 312.405C426.705 311.428 464.625 297.331 473.37 297.331C476.325 297.331 486.916 297.053 500.528 295.931C498.51 285.318 494.052 277.082 490.161 271.537C488.446 271.867 487.008 272.052 485.914 272.052Z" fill="url(#paint10_linear)"/>
<path d="M150.077 237.204C150.077 237.204 163.214 247.606 176.641 237.204C190.069 226.803 180.823 209.049 180.823 209.049L150.09 225.443V237.204H150.077Z" fill="url(#paint11_linear)"/>
<path d="M169.03 139.774V217.523H143.758V144.025L169.03 139.774Z" fill="#02B0C8"/>
<path d="M127.835 332.958C125.408 345.934 111.585 364.15 102.801 390.458H153.001C157.816 358.857 162.168 316.431 155.296 278.719H126.345C129.035 291.43 130.13 320.748 127.835 332.958Z" fill="#171717"/>
<path d="M79.6924 330.146C79.6924 330.146 85.5091 358.381 89.4792 390.458H102.814C111.599 364.15 125.422 345.921 127.848 332.958C130.13 320.748 129.049 291.43 126.371 278.719H80.8927L79.6924 330.146Z" fill="url(#paint12_linear)"/>
<path d="M126.358 278.719C126.015 277.082 125.646 275.709 125.25 274.706H37.9863C39.1866 316.748 42.4972 358.579 44.4889 390.458H102.801C111.586 364.15 125.408 345.921 127.835 332.958C130.13 320.748 129.036 291.43 126.358 278.719Z" fill="black"/>
<path d="M97.4752 70.5792C45.8502 56.719 10.9895 79.7797 5.26514 112.899C0.0419688 143.153 37.9891 236.822 37.9891 274.693C37.9891 274.693 99.1767 306.254 155.313 278.706C155.313 278.706 146.897 238.538 155.313 202.95C163.728 167.363 174.926 146.982 165.416 121.452C157.106 99.1707 121.613 77.0604 97.4752 70.5792Z" fill="#01C7E2"/>
<path d="M116.772 36.3645C116.772 36.3645 97.2903 60.8903 89.0731 68.7048C80.8558 76.5193 96.0241 92.5046 107.526 99.3027C115.123 103.791 131.162 108.767 126.427 94.7751C126.427 94.7751 123.749 86.9606 136.701 75.8592C136.701 75.846 122.311 32.8665 116.772 36.3645Z" fill="url(#paint13_linear)"/>
<path d="M136.702 75.8459C136.702 75.8459 130.028 55.9269 124.027 44.3108L117.682 47.3072C110.283 62.4874 108.964 91.092 126.427 94.7617C126.427 94.7749 123.75 86.9604 136.702 75.8459Z" fill="#CB9FAF"/>
<path d="M124.45 31.9556C126.098 22.6099 117.749 21.9102 115.138 29.7115C112.144 38.6348 115.441 44.8125 118.87 42.7532C118.87 42.7532 112.223 62.8966 120.598 75.0144C128.974 87.1453 139.671 82.4856 153.032 69.3119C164.52 57.9862 172.012 44.1392 173.173 38.8196C176.207 24.9067 161.764 13.6602 148.218 14.3862C131.638 15.2574 124.45 31.9556 124.45 31.9556Z" fill="url(#paint14_linear)"/>
<path d="M124.448 31.9555C123.92 37.46 124.83 41.7236 128.062 39.8492C131.293 37.9748 138.956 26.8999 145.947 34.9124C152.924 42.9248 158.583 50.3829 170.981 49.0629C186.994 47.3601 190.7 25.6723 176.6 21.7914C176.6 21.7914 182.733 14.3465 171.839 10.8881C161.867 7.72008 161.458 9.68693 154.481 1.84606C150.458 -2.66839 126.373 -0.252785 119.805 24.5107C119.792 24.4975 125.265 23.3755 124.448 31.9555Z" fill="black"/>
<path d="M45.2971 191.835C45.8115 181.064 52.4723 153.119 61.8635 135.26C71.2546 117.4 66.6514 94.4449 53.8837 85.4556C41.2082 76.5324 23.4283 78.1164 15.0132 90.5509C-7.62052 123.987 -1.05198 199.175 11.1618 224.545C13.5887 229.588 19.4318 232.861 27.3589 234.828C10.1594 226.948 27.3853 187.73 45.2971 191.835Z" fill="#02B0C8"/>
<path d="M111.867 222.46L145.778 181.394C147.242 179.625 149.603 178.873 151.819 179.48L209.353 195.347C210.777 195.743 211.2 197.538 210.105 198.528L166.592 237.838C165.668 238.669 164.402 238.999 163.189 238.709L113.357 226.921C111.366 226.459 110.561 224.044 111.867 222.46Z" fill="url(#paint15_linear)"/>
<path d="M152.568 206.21C150.602 200.574 144.957 196.337 141.673 195.4C139.286 194.713 121.545 195.03 112.009 195.241C108.303 195.32 104.689 196.39 101.55 198.37C98.5422 200.257 94.7963 202.343 92.9498 202.343C89.56 202.343 62.9825 202.343 62.9825 202.343C62.9825 202.343 54.6861 196.06 45.2949 191.822C27.3831 187.73 10.1572 226.948 27.3436 234.802C56.2425 241.97 113.275 231.502 137.254 223.305C142.557 221.483 147.279 218.17 150.471 213.55C152.172 211.094 153.333 208.402 152.568 206.21Z" fill="url(#paint16_linear)"/>
<path d="M20.7275 390.431L105.978 390.115L191.228 389.996L361.728 389.785L532.228 389.996L617.478 390.115L702.728 390.431L617.478 390.761L532.228 390.88L361.728 391.091L191.228 390.88L105.978 390.761L20.7275 390.431Z" fill="#20245D"/>
<path d="M356.034 396.979H438.141C442.849 396.979 446.661 393.164 446.661 388.451C446.661 386.3 444.92 384.557 442.77 384.557H356.021C353.871 384.557 352.13 386.3 352.13 388.451V393.098C352.143 395.236 353.884 396.979 356.034 396.979Z" fill="#EB747D"/>
<path d="M210.707 396.979H382.214C388.835 396.979 393.637 390.682 391.882 384.293L361.612 274.02C359.646 266.878 353.17 261.928 345.771 261.928H174.25C167.629 261.928 162.828 268.225 164.582 274.614L194.853 384.887C196.818 392.029 203.307 396.979 210.707 396.979Z" fill="#FF8790"/>
<path d="M713.729 305.6C711.144 306.3 707.556 309.164 703.599 312.979C699.59 316.754 695.237 321.229 689.776 325.321C686.453 327.882 683.168 330.205 680.003 332.476C676.903 334.786 673.83 336.95 671.165 339.155C665.758 343.485 661.629 347.761 660.205 350.969C661.629 347.801 662.236 341.901 664.927 334.759C666.219 331.169 668.132 327.394 670.664 323.605C673.249 319.883 676.547 316.239 680.57 313.137C687.244 308.121 694.709 306.366 700.618 305.943C706.607 305.442 711.157 306.3 713.729 305.6Z" fill="#E33E4A"/>
<path d="M658.095 348.567C658.345 345.372 656.789 340.237 655.747 333.479C654.692 326.734 654.111 318.299 656.169 309.151C658.728 297.957 663.621 288.467 668.304 281.114C672.973 273.709 677.391 268.35 679.08 264.521C677.391 268.363 676.468 275.253 675.492 283.688C674.477 292.136 673.448 302.063 671.047 312.544C669.122 321.124 666.009 328.384 663.305 334.469C660.601 340.515 658.345 345.359 658.095 348.567Z" fill="#E33E4A"/>
<path d="M610.438 293.285C613.01 294.486 617.93 294.499 624.024 296.334C630.091 298.063 637.425 301.521 643.36 308.082C650.536 316.16 654.176 325.664 655.614 333.585C657.157 341.544 656.722 347.827 657.5 351.444C656.722 347.775 653.398 342.429 648.676 336.753C644.007 330.997 637.979 325.031 632.017 318.286C627.071 312.834 623.338 307.329 619.803 302.696C616.347 298.023 613.037 294.486 610.438 293.285Z" fill="#E33E4A"/>
<path d="M688.81 330.205H638.188C635.497 330.205 633.426 332.555 633.743 335.221L639.916 387.019C640.18 389.276 642.092 390.966 644.361 390.966H682.638C684.906 390.966 686.819 389.263 687.083 387.019L693.255 335.221C693.585 332.555 691.501 330.205 688.81 330.205Z" fill="#02B0C8"/>
<path d="M631.252 332.403L633.534 351.583C633.665 352.639 634.562 353.444 635.631 353.444H691.371C692.439 353.444 693.336 352.639 693.468 351.583L695.75 332.403C695.895 331.149 694.919 330.041 693.653 330.041H633.349C632.083 330.041 631.107 331.136 631.252 332.403Z" fill="#01C7E2"/>
<defs>
<linearGradient id="paint0_linear" x1="268.31" y1="103.632" x2="226.568" y2="141.17" gradientUnits="userSpaceOnUse">
<stop stop-color="#F6B3B5"/>
<stop offset="1" stop-color="#FAD0CF"/>
</linearGradient>
<linearGradient id="paint1_linear" x1="218.902" y1="222.465" x2="236.27" y2="250.358" gradientUnits="userSpaceOnUse">
<stop stop-color="#F6B3B5"/>
<stop offset="1" stop-color="#FAD0CF"/>
</linearGradient>
<linearGradient id="paint2_linear" x1="237.158" y1="43.9229" x2="217.107" y2="120.932" gradientUnits="userSpaceOnUse">
<stop stop-color="#F6B3B5"/>
<stop offset="1" stop-color="#FAD0CF"/>
</linearGradient>
<linearGradient id="paint3_linear" x1="196.443" y1="156.996" x2="250.171" y2="156.996" gradientUnits="userSpaceOnUse">
<stop stop-color="#F6B3B5"/>
<stop offset="1" stop-color="#FAD0CF"/>
</linearGradient>
<linearGradient id="paint4_linear" x1="549.598" y1="128.593" x2="511.781" y2="155.23" gradientUnits="userSpaceOnUse">
<stop stop-color="#F6B3B5"/>
<stop offset="0.9914" stop-color="#FAD0CF"/>
</linearGradient>
<linearGradient id="paint5_linear" x1="527.131" y1="64.9404" x2="498.603" y2="99.0242" gradientUnits="userSpaceOnUse">
<stop stop-color="#F6B3B5"/>
<stop offset="0.9914" stop-color="#FAD0CF"/>
</linearGradient>
<linearGradient id="paint6_linear" x1="455.825" y1="172.173" x2="385.174" y2="200.04" gradientUnits="userSpaceOnUse">
<stop stop-color="#F6B3B5"/>
<stop offset="0.9914" stop-color="#FAD0CF"/>
</linearGradient>
<linearGradient id="paint7_linear" x1="416.567" y1="79.7634" x2="406.638" y2="183.939" gradientUnits="userSpaceOnUse">
<stop stop-color="#F6B3B5"/>
<stop offset="0.9914" stop-color="#FAD0CF"/>
</linearGradient>
<linearGradient id="paint8_linear" x1="406.463" y1="280.224" x2="450.535" y2="126.092" gradientUnits="userSpaceOnUse">
<stop stop-color="#94C2E8"/>
<stop offset="1" stop-color="#F6B3B5"/>
</linearGradient>
<linearGradient id="paint9_linear" x1="412.076" y1="393.024" x2="412.076" y2="349.577" gradientUnits="userSpaceOnUse">
<stop stop-color="#F6B3B5"/>
<stop offset="0.9914" stop-color="#FAD0CF"/>
</linearGradient>
<linearGradient id="paint10_linear" x1="457.764" y1="328.935" x2="437.909" y2="271.275" gradientUnits="userSpaceOnUse">
<stop stop-color="#F6B3B5"/>
<stop offset="0.9914" stop-color="#FAD0CF"/>
</linearGradient>
<linearGradient id="paint11_linear" x1="226.786" y1="213.813" x2="151.278" y2="230.215" gradientUnits="userSpaceOnUse">
<stop stop-color="#94C2E8"/>
<stop offset="0.00595503" stop-color="#A2C1E1"/>
<stop offset="0.0165" stop-color="#C1BED2"/>
<stop offset="0.0302" stop-color="#ECB5BA"/>
<stop offset="0.033" stop-color="#F6B3B5"/>
<stop offset="0.9908" stop-color="#4066B0"/>
</linearGradient>
<linearGradient id="paint12_linear" x1="-27.0083" y1="308.668" x2="375.153" y2="385.809" gradientUnits="userSpaceOnUse">
<stop offset="0.1048" stop-color="#20245D"/>
<stop offset="0.1271" stop-color="#222760"/>
<stop offset="0.3658" stop-color="#323F7C"/>
<stop offset="0.5961" stop-color="#3D5194"/>
<stop offset="0.8123" stop-color="#455DA5"/>
<stop offset="1" stop-color="#4762AD"/>
</linearGradient>
<linearGradient id="paint13_linear" x1="107.425" y1="40.4971" x2="115.571" y2="106.555" gradientUnits="userSpaceOnUse">
<stop stop-color="#F6B3B5"/>
<stop offset="1" stop-color="#FAD0CF"/>
</linearGradient>
<linearGradient id="paint14_linear" x1="173.904" y1="3.86371" x2="112.849" y2="73.0064" gradientUnits="userSpaceOnUse">
<stop stop-color="#F6B3B5"/>
<stop offset="1" stop-color="#FAD0CF"/>
</linearGradient>
<linearGradient id="paint15_linear" x1="95.0322" y1="250.524" x2="221.643" y2="165.72" gradientUnits="userSpaceOnUse">
<stop stop-color="#20245D"/>
<stop offset="0.1402" stop-color="#2C3671"/>
<stop offset="0.3237" stop-color="#384888"/>
<stop offset="0.5192" stop-color="#40569A"/>
<stop offset="0.7331" stop-color="#455EA7"/>
<stop offset="1" stop-color="#4762AD"/>
</linearGradient>
<linearGradient id="paint16_linear" x1="86.5289" y1="235.518" x2="86.5289" y2="193.93" gradientUnits="userSpaceOnUse">
<stop stop-color="#F6B3B5"/>
<stop offset="1" stop-color="#FAD0CF"/>
</linearGradient>
</defs>
</svg>
