<svg width="103" height="103" viewBox="0 0 103 103" fill="none" xmlns="http://www.w3.org/2000/svg">
<path opacity="0.8" d="M51.7324 103C80.0311 103 102.972 81.1863 102.972 54.2778C102.972 27.3694 80.0311 5.55579 51.7324 5.55579C23.4338 5.55579 0.493164 27.3694 0.493164 54.2778C0.493164 81.1863 23.4338 103 51.7324 103Z" fill="url(#paint0_radial)"/>
<path d="M37.9476 68.3609C57.6488 68.3609 73.6199 53.1745 73.6199 34.4411C73.6199 15.7077 57.6488 0.52124 37.9476 0.52124C18.2463 0.52124 2.27533 15.7077 2.27533 34.4411C2.27533 53.1745 18.2463 68.3609 37.9476 68.3609Z" fill="url(#paint1_linear)"/>
<path d="M49.0251 21.6111C47.6587 21.6111 46.5608 22.6551 46.5608 23.9312C46.5608 25.2304 47.6587 26.2745 49.0251 26.2745C50.3915 26.2745 51.4895 25.2304 51.4895 23.9312C51.4651 22.6551 50.3671 21.6111 49.0251 21.6111Z" fill="white"/>
<path d="M38.1173 24.6042C32.4322 24.6042 27.8207 28.9892 27.8207 34.395C27.8207 39.8009 32.4322 44.1859 38.1173 44.1859C43.8024 44.1859 48.414 39.8009 48.414 34.395C48.414 29.0124 43.8024 24.6042 38.1173 24.6042ZM38.1173 40.6825C34.4818 40.6825 31.5294 37.8752 31.5294 34.4182C31.5294 30.9613 34.4818 28.154 38.1173 28.154C41.7529 28.154 44.7052 30.9613 44.7052 34.4182C44.7052 37.852 41.7529 40.6825 38.1173 40.6825Z" fill="white"/>
<path d="M46.2916 54.301H29.6022C22.6727 54.301 17.0364 48.9416 17.0364 42.3525V26.483C17.0364 19.894 22.6727 14.5345 29.6022 14.5345H46.2916C53.2211 14.5345 58.8574 19.894 58.8574 26.483V42.3525C58.8574 48.9416 53.2211 54.301 46.2916 54.301ZM29.6022 18.2467C24.8443 18.2467 20.9648 21.9357 20.9648 26.4598V42.3293C20.9648 46.8535 24.8443 50.5425 29.6022 50.5425H46.2916C51.0495 50.5425 54.9291 46.8535 54.9291 42.3293V26.4598C54.9291 21.9357 51.0495 18.2467 46.2916 18.2467H29.6022Z" fill="white"/>
<defs>
<radialGradient id="paint0_radial" cx="0" cy="0" r="1" gradientUnits="userSpaceOnUse" gradientTransform="translate(51.7341 54.2769) scale(51.2393 48.722)">
<stop stop-color="#000056"/>
<stop offset="0.2482" stop-color="#4C4C88" stop-opacity="0.7518"/>
<stop offset="0.5193" stop-color="#9898BB" stop-opacity="0.4807"/>
<stop offset="0.744" stop-color="#D0D0E0" stop-opacity="0.256"/>
<stop offset="0.9103" stop-color="#F2F2F6" stop-opacity="0.0897"/>
<stop offset="1" stop-color="white" stop-opacity="0"/>
</radialGradient>
<linearGradient id="paint1_linear" x1="63.1693" y1="10.4636" x2="15.2556" y2="60.8527" gradientUnits="userSpaceOnUse">
<stop offset="0.0011048" stop-color="#FBE18A"/>
<stop offset="0.2094" stop-color="#FCBB45"/>
<stop offset="0.3765" stop-color="#F75274"/>
<stop offset="0.5238" stop-color="#D53692"/>
<stop offset="0.7394" stop-color="#8F39CE"/>
<stop offset="1" stop-color="#5B4FE9"/>
</linearGradient>
</defs>
</svg>
