<svg width="103" height="103" viewBox="0 0 103 103" fill="none" xmlns="http://www.w3.org/2000/svg">
<path opacity="0.8" d="M51.6191 102.478C79.9178 102.478 102.858 80.6649 102.858 53.7565C102.858 26.8481 79.9178 5.03455 51.6191 5.03455C23.3205 5.03455 0.379883 26.8481 0.379883 53.7565C0.379883 80.6649 23.3205 102.478 51.6191 102.478Z" fill="url(#paint0_radial)"/>
<path d="M36.858 67.8395C56.5593 67.8395 72.5303 52.6531 72.5303 33.9198C72.5303 15.1864 56.5593 0 36.858 0C17.1568 0 1.18576 15.1864 1.18576 33.9198C1.18576 52.6531 17.1568 67.8395 36.858 67.8395Z" fill="#007AB9"/>
<path d="M53.6197 36.4405V48.7049H46.5091V37.2625C46.5091 34.3894 45.4825 32.4274 42.908 32.4274C40.9433 32.4274 39.7761 33.7483 39.2607 35.0273C39.0735 35.4844 39.0252 36.1192 39.0252 36.7603V48.7044H31.9141C31.9141 48.7044 32.0096 29.3247 31.9141 27.3186H39.0258V30.3492C39.0115 30.373 38.9913 30.3964 38.9786 30.4192H39.0258V30.3492C39.9707 28.8951 41.656 26.8164 45.4343 26.8164C50.1124 26.8164 53.6197 29.873 53.6197 36.4405ZM24.4753 17.0099C22.0429 17.0099 20.4515 18.6066 20.4515 20.7044C20.4515 22.7576 21.9968 24.4004 24.382 24.4004H24.4281C26.9083 24.4004 28.4503 22.7576 28.4503 20.7044C28.4031 18.6066 26.9083 17.0099 24.4753 17.0099ZM20.8742 48.7049H27.9826V27.3186H20.8742V48.7049Z" fill="#F1F2F2"/>
<defs>
<radialGradient id="paint0_radial" cx="0" cy="0" r="1" gradientUnits="userSpaceOnUse" gradientTransform="translate(51.625 53.7556) scale(51.2393 48.7219)">
<stop stop-color="#000056"/>
<stop offset="0.2482" stop-color="#4C4C88" stop-opacity="0.7518"/>
<stop offset="0.5193" stop-color="#9898BB" stop-opacity="0.4807"/>
<stop offset="0.744" stop-color="#D0D0E0" stop-opacity="0.256"/>
<stop offset="0.9103" stop-color="#F2F2F6" stop-opacity="0.0897"/>
<stop offset="1" stop-color="white" stop-opacity="0"/>
</radialGradient>
</defs>
</svg>
