<svg width="361" height="107" viewBox="0 0 361 107" fill="none" xmlns="http://www.w3.org/2000/svg">
<path d="M161.049 76.0444H157.445V85.8473H155.02V76.0444H151.464V74.0806H161.049V76.0444ZM165.583 86.0089C164.301 86.0089 163.255 85.6156 162.447 84.829C161.644 84.0424 161.243 82.9945 161.243 81.6853V81.459C161.243 80.5809 161.413 79.797 161.752 79.1073C162.092 78.4123 162.571 77.8789 163.191 77.5072C163.816 77.1301 164.527 76.9415 165.324 76.9415C166.52 76.9415 167.46 77.3186 168.145 78.0729C168.834 78.8272 169.179 79.8966 169.179 81.2813V82.2349H163.611C163.686 82.806 163.913 83.2639 164.29 83.6087C164.672 83.9535 165.155 84.1259 165.736 84.1259C166.636 84.1259 167.339 83.8 167.846 83.1481L168.993 84.433C168.643 84.9287 168.169 85.3166 167.571 85.5968C166.973 85.8715 166.31 86.0089 165.583 86.0089ZM165.316 78.8326C164.853 78.8326 164.476 78.9888 164.185 79.3013C163.899 79.6138 163.716 80.0609 163.635 80.6428H166.884V80.4569C166.873 79.9397 166.733 79.541 166.464 79.2609C166.194 78.9753 165.812 78.8326 165.316 78.8326ZM174.149 84.1259C174.58 84.1259 174.93 84.0074 175.2 83.7703C175.469 83.5333 175.609 83.2181 175.62 82.8248H177.81C177.805 83.4175 177.643 83.9616 177.325 84.4573C177.007 84.9476 176.571 85.3301 176.016 85.6048C175.467 85.8742 174.858 86.0089 174.19 86.0089C172.94 86.0089 171.954 85.6129 171.232 84.8209C170.51 84.0236 170.149 82.9245 170.149 81.5237V81.3701C170.149 80.0232 170.507 78.9484 171.224 78.1456C171.94 77.3429 172.924 76.9415 174.173 76.9415C175.267 76.9415 176.143 77.254 176.8 77.8789C177.463 78.4985 177.799 79.3255 177.81 80.36H175.62C175.609 79.9074 175.469 79.541 175.2 79.2609C174.93 78.9753 174.575 78.8326 174.133 78.8326C173.589 78.8326 173.177 79.0319 172.897 79.4306C172.622 79.8239 172.484 80.465 172.484 81.354V81.5964C172.484 82.4962 172.622 83.1427 172.897 83.536C173.171 83.9293 173.589 84.1259 174.149 84.1259ZM181.423 78.0567C182.042 77.3132 182.821 76.9415 183.758 76.9415C185.655 76.9415 186.616 78.0433 186.643 80.2468V85.8473H184.308V80.3115C184.308 79.8104 184.2 79.4414 183.984 79.2043C183.769 78.9619 183.411 78.8406 182.91 78.8406C182.225 78.8406 181.73 79.1046 181.423 79.6326V85.8473H179.087V73.4341H181.423V78.0567ZM190.555 77.1031L190.627 78.1133C191.252 77.3321 192.09 76.9415 193.141 76.9415C194.067 76.9415 194.757 77.2136 195.21 77.7577C195.662 78.3019 195.894 79.1154 195.905 80.1983V85.8473H193.569V80.2549C193.569 79.7592 193.461 79.401 193.246 79.1801C193.03 78.9538 192.672 78.8406 192.171 78.8406C191.514 78.8406 191.021 79.1208 190.692 79.6811V85.8473H188.356V77.1031H190.555ZM197.319 81.3944C197.319 80.527 197.486 79.7538 197.82 79.075C198.154 78.3962 198.633 77.8709 199.258 77.4991C199.889 77.1274 200.619 76.9415 201.448 76.9415C202.628 76.9415 203.59 77.3025 204.334 78.0244C205.082 78.7464 205.5 79.7269 205.586 80.9661L205.602 81.5641C205.602 82.9056 205.228 83.9832 204.479 84.7967C203.73 85.6048 202.725 86.0089 201.465 86.0089C200.204 86.0089 199.196 85.6048 198.442 84.7967C197.693 83.9885 197.319 82.8895 197.319 81.4995V81.3944ZM199.654 81.5641C199.654 82.3938 199.811 83.0295 200.123 83.4713C200.436 83.9077 200.883 84.1259 201.465 84.1259C202.03 84.1259 202.472 83.9104 202.79 83.4794C203.108 83.043 203.267 82.348 203.267 81.3944C203.267 80.5809 203.108 79.9505 202.79 79.5033C202.472 79.0561 202.025 78.8326 201.448 78.8326C200.877 78.8326 200.436 79.0561 200.123 79.5033C199.811 79.9451 199.654 80.632 199.654 81.5641ZM209.506 85.8473H207.162V73.4341H209.506V85.8473ZM211.074 81.3944C211.074 80.527 211.241 79.7538 211.575 79.075C211.909 78.3962 212.388 77.8709 213.013 77.4991C213.643 77.1274 214.373 76.9415 215.203 76.9415C216.383 76.9415 217.345 77.3025 218.088 78.0244C218.837 78.7464 219.255 79.7269 219.341 80.9661L219.357 81.5641C219.357 82.9056 218.983 83.9832 218.234 84.7967C217.485 85.6048 216.48 86.0089 215.219 86.0089C213.959 86.0089 212.951 85.6048 212.197 84.7967C211.448 83.9885 211.074 82.8895 211.074 81.4995V81.3944ZM213.409 81.5641C213.409 82.3938 213.565 83.0295 213.878 83.4713C214.19 83.9077 214.637 84.1259 215.219 84.1259C215.785 84.1259 216.227 83.9104 216.545 83.4794C216.863 83.043 217.022 82.348 217.022 81.3944C217.022 80.5809 216.863 79.9505 216.545 79.5033C216.227 79.0561 215.78 78.8326 215.203 78.8326C214.632 78.8326 214.19 79.0561 213.878 79.5033C213.565 79.9451 213.409 80.632 213.409 81.5641ZM220.456 81.4106C220.456 80.069 220.774 78.9888 221.41 78.1699C222.051 77.351 222.913 76.9415 223.996 76.9415C224.955 76.9415 225.701 77.2701 226.234 77.9274L226.331 77.1031H228.449V85.5564C228.449 86.3214 228.274 86.9868 227.923 87.5525C227.579 88.1182 227.091 88.5492 226.461 88.8455C225.83 89.1418 225.092 89.29 224.246 89.29C223.605 89.29 222.98 89.1607 222.371 88.9021C221.763 88.6489 221.302 88.3202 220.99 87.9162L222.024 86.4938C222.606 87.1457 223.312 87.4717 224.141 87.4717C224.761 87.4717 225.243 87.3047 225.588 86.9706C225.933 86.642 226.105 86.1732 226.105 85.5644V85.0957C225.566 85.7045 224.858 86.0089 223.98 86.0089C222.929 86.0089 222.078 85.5995 221.426 84.7805C220.779 83.9562 220.456 82.8652 220.456 81.5075V81.4106ZM222.792 81.5803C222.792 82.3723 222.951 82.9945 223.269 83.4471C223.586 83.8943 224.023 84.1179 224.578 84.1179C225.289 84.1179 225.798 83.8512 226.105 83.3178V79.6407C225.793 79.1073 225.289 78.8406 224.594 78.8406C224.034 78.8406 223.592 79.0696 223.269 79.5276C222.951 79.9855 222.792 80.6698 222.792 81.5803ZM232.716 85.8473H230.372V77.1031H232.716V85.8473ZM230.235 74.8403C230.235 74.4901 230.351 74.2019 230.582 73.9756C230.819 73.7493 231.14 73.6362 231.544 73.6362C231.943 73.6362 232.261 73.7493 232.498 73.9756C232.735 74.2019 232.853 74.4901 232.853 74.8403C232.853 75.1959 232.732 75.4868 232.489 75.7131C232.252 75.9394 231.937 76.0525 231.544 76.0525C231.151 76.0525 230.833 75.9394 230.59 75.7131C230.353 75.4868 230.235 75.1959 230.235 74.8403ZM238.672 86.0089C237.39 86.0089 236.344 85.6156 235.536 84.829C234.733 84.0424 234.332 82.9945 234.332 81.6853V81.459C234.332 80.5809 234.502 79.797 234.841 79.1073C235.181 78.4123 235.66 77.8789 236.28 77.5072C236.905 77.1301 237.616 76.9415 238.413 76.9415C239.609 76.9415 240.549 77.3186 241.234 78.0729C241.923 78.8272 242.268 79.8966 242.268 81.2813V82.2349H236.7C236.775 82.806 237.002 83.2639 237.379 83.6087C237.761 83.9535 238.243 84.1259 238.825 84.1259C239.725 84.1259 240.428 83.8 240.935 83.1481L242.082 84.433C241.732 84.9287 241.258 85.3166 240.66 85.5968C240.062 85.8715 239.399 86.0089 238.672 86.0089ZM238.405 78.8326C237.942 78.8326 237.565 78.9888 237.274 79.3013C236.988 79.6138 236.805 80.0609 236.724 80.6428H239.973V80.4569C239.962 79.9397 239.822 79.541 239.553 79.2609C239.283 78.9753 238.901 78.8326 238.405 78.8326ZM248.337 83.4309C248.337 83.1454 248.194 82.9218 247.909 82.7602C247.629 82.5931 247.176 82.445 246.551 82.3157C244.472 81.8793 243.432 80.9957 243.432 79.665C243.432 78.8891 243.752 78.2426 244.394 77.7254C245.04 77.2028 245.883 76.9415 246.923 76.9415C248.033 76.9415 248.919 77.2028 249.582 77.7254C250.25 78.248 250.584 78.9268 250.584 79.7619H248.248C248.248 79.4279 248.141 79.1531 247.925 78.9376C247.71 78.7167 247.373 78.6063 246.915 78.6063C246.522 78.6063 246.217 78.6952 246.002 78.873C245.786 79.0508 245.678 79.277 245.678 79.5518C245.678 79.8104 245.8 80.0205 246.042 80.1822C246.29 80.3384 246.705 80.4758 247.287 80.5943C247.869 80.7075 248.359 80.8368 248.758 80.9822C249.991 81.4348 250.608 82.2187 250.608 83.3339C250.608 84.1313 250.266 84.7778 249.582 85.2735C248.898 85.7638 248.014 86.0089 246.931 86.0089C246.198 86.0089 245.546 85.8796 244.975 85.621C244.41 85.357 243.965 84.9987 243.642 84.5462C243.319 84.0882 243.157 83.5952 243.157 83.0673H245.371C245.393 83.4821 245.546 83.8 245.832 84.0209C246.118 84.2418 246.5 84.3522 246.98 84.3522C247.427 84.3522 247.763 84.2687 247.99 84.1017C248.221 83.9293 248.337 83.7057 248.337 83.4309ZM258.819 81.7015V85.8473H256.395V74.0806H260.985C261.868 74.0806 262.644 74.2423 263.312 74.5655C263.986 74.8888 264.503 75.3494 264.864 75.9475C265.225 76.5401 265.405 77.2163 265.405 77.9759C265.405 79.1289 265.009 80.0394 264.217 80.7075C263.431 81.3701 262.34 81.7015 260.944 81.7015H258.819ZM258.819 79.7377H260.985C261.626 79.7377 262.114 79.5868 262.448 79.2851C262.787 78.9834 262.957 78.5524 262.957 77.9921C262.957 77.4156 262.787 76.9496 262.448 76.594C262.108 76.2384 261.639 76.0552 261.041 76.0444H258.819V79.7377ZM270.327 82.9945L271.951 77.1031H274.392L271.442 85.8473H269.212L266.262 77.1031H268.703L270.327 82.9945ZM278.223 74.9534V77.1031H279.718V78.8164H278.223V83.1804C278.223 83.5037 278.285 83.7353 278.408 83.8754C278.532 84.0155 278.769 84.0855 279.12 84.0855C279.378 84.0855 279.607 84.0667 279.807 84.029V85.7988C279.349 85.9389 278.877 86.0089 278.392 86.0089C276.754 86.0089 275.919 85.1819 275.887 83.5279V78.8164H274.61V77.1031H275.887V74.9534H278.223ZM281.14 84.6997C281.14 84.328 281.264 84.0263 281.512 83.7946C281.765 83.5629 282.08 83.4471 282.457 83.4471C282.84 83.4471 283.155 83.5629 283.403 83.7946C283.656 84.0263 283.783 84.328 283.783 84.6997C283.783 85.0661 283.659 85.3651 283.411 85.5968C283.163 85.823 282.845 85.9362 282.457 85.9362C282.075 85.9362 281.76 85.823 281.512 85.5968C281.264 85.3651 281.14 85.0661 281.14 84.6997ZM292.535 83.8997H297.683V85.8473H290.11V74.0806H292.535V83.8997ZM301.724 74.9534V77.1031H303.219V78.8164H301.724V83.1804C301.724 83.5037 301.786 83.7353 301.909 83.8754C302.033 84.0155 302.27 84.0855 302.621 84.0855C302.879 84.0855 303.108 84.0667 303.308 84.029V85.7988C302.85 85.9389 302.378 86.0089 301.893 86.0089C300.255 86.0089 299.42 85.1819 299.388 83.5279V78.8164H298.111V77.1031H299.388V74.9534H301.724ZM304.156 81.4106C304.156 80.0475 304.461 78.9619 305.069 78.1537C305.684 77.3456 306.521 76.9415 307.583 76.9415C308.434 76.9415 309.137 77.2594 309.692 77.8951V73.4341H312.036V85.8473H309.926L309.813 84.9179C309.231 85.6453 308.482 86.0089 307.566 86.0089C306.537 86.0089 305.71 85.6048 305.085 84.7967C304.466 83.9832 304.156 82.8544 304.156 81.4106ZM306.492 81.5803C306.492 82.3992 306.634 83.0269 306.92 83.4633C307.206 83.8997 307.62 84.1179 308.165 84.1179C308.886 84.1179 309.396 83.8134 309.692 83.2046V79.7538C309.401 79.145 308.897 78.8406 308.181 78.8406C307.055 78.8406 306.492 79.7538 306.492 81.5803Z" fill="#303030"/>
<path d="M141.224 30.8058H131.409V57.5001H124.807V30.8058H115.124V25.4581H141.224V30.8058ZM153.57 57.9403C150.078 57.9403 147.232 56.8693 145.031 54.7273C142.845 52.5852 141.752 49.7317 141.752 46.1666V45.5504C141.752 43.159 142.214 41.0243 143.138 39.1464C144.063 37.2538 145.368 35.8013 147.056 34.789C148.757 33.762 150.694 33.2485 152.865 33.2485C156.122 33.2485 158.683 34.2755 160.546 36.3295C162.424 38.3835 163.363 41.2957 163.363 45.0662V47.663H148.2C148.405 49.2182 149.021 50.4653 150.048 51.4042C151.09 52.3432 152.403 52.8127 153.988 52.8127C156.438 52.8127 158.352 51.925 159.732 50.1498L162.856 53.6489C161.903 54.9987 160.612 56.055 158.983 56.8179C157.355 57.5661 155.55 57.9403 153.57 57.9403ZM152.843 38.3981C151.582 38.3981 150.555 38.8236 149.762 39.6745C148.985 40.5255 148.486 41.7432 148.266 43.3277H157.113V42.8215C157.083 41.4131 156.702 40.3274 155.968 39.5645C155.235 38.7869 154.193 38.3981 152.843 38.3981ZM176.897 52.8127C178.071 52.8127 179.024 52.4899 179.758 51.8443C180.491 51.1988 180.873 50.3405 180.902 49.2695H186.866C186.851 50.8834 186.411 52.3652 185.546 53.7149C184.68 55.05 183.492 56.0917 181.98 56.8399C180.484 57.5735 178.826 57.9403 177.007 57.9403C173.603 57.9403 170.918 56.8619 168.952 54.7052C166.986 52.5339 166.003 49.541 166.003 45.7264V45.3083C166.003 41.6405 166.979 38.7136 168.93 36.5275C170.882 34.3415 173.559 33.2485 176.963 33.2485C179.941 33.2485 182.325 34.0995 184.115 35.8013C185.92 37.4885 186.837 39.7406 186.866 42.5574H180.902C180.873 41.3251 180.491 40.3274 179.758 39.5645C179.024 38.7869 178.056 38.3981 176.853 38.3981C175.371 38.3981 174.249 38.941 173.486 40.0266C172.738 41.0976 172.363 42.8435 172.363 45.2643V45.9245C172.363 48.3746 172.738 50.1351 173.486 51.2061C174.234 52.2772 175.371 52.8127 176.897 52.8127ZM196.703 36.2855C198.39 34.2608 200.51 33.2485 203.063 33.2485C208.227 33.2485 210.846 36.2488 210.92 42.2493V57.5001H204.56V42.4254C204.56 41.061 204.266 40.056 203.679 39.4105C203.092 38.7502 202.117 38.4201 200.752 38.4201C198.889 38.4201 197.539 39.139 196.703 40.5768V57.5001H190.343V23.6975H196.703V36.2855ZM235.413 43.6138H222.737V52.1965H237.614V57.5001H216.135V25.4581H237.57V30.8058H222.737V38.4421H235.413V43.6138ZM253.965 50.9201C253.965 50.1425 253.576 49.5336 252.799 49.0935C252.036 48.6387 250.803 48.2352 249.102 47.8831C243.438 46.6947 240.607 44.2886 240.607 40.6648C240.607 38.5522 241.48 36.7916 243.226 35.3832C244.986 33.9601 247.282 33.2485 250.114 33.2485C253.136 33.2485 255.55 33.9601 257.354 35.3832C259.173 36.8063 260.083 38.6549 260.083 40.9289H253.723C253.723 40.0193 253.43 39.2711 252.843 38.6842C252.256 38.0827 251.339 37.7819 250.092 37.7819C249.021 37.7819 248.192 38.024 247.605 38.5082C247.018 38.9923 246.725 39.6085 246.725 40.3567C246.725 41.061 247.055 41.6331 247.715 42.0733C248.39 42.4988 249.52 42.8729 251.104 43.1956C252.689 43.5037 254.024 43.8558 255.109 44.252C258.469 45.4844 260.149 47.619 260.149 50.656C260.149 52.8273 259.217 54.5879 257.354 55.9376C255.491 57.2727 253.085 57.9403 250.136 57.9403C248.141 57.9403 246.365 57.5881 244.81 56.8839C243.27 56.165 242.059 55.1894 241.179 53.957C240.299 52.71 239.859 51.3675 239.859 49.9297H245.889C245.947 51.0594 246.365 51.925 247.143 52.5266C247.92 53.1281 248.962 53.4288 250.268 53.4288C251.486 53.4288 252.403 53.2014 253.019 52.7466C253.65 52.2772 253.965 51.6683 253.965 50.9201ZM285.699 45.8145C285.699 49.4823 284.863 52.4239 283.19 54.6392C281.532 56.8399 279.288 57.9403 276.456 57.9403C274.05 57.9403 272.106 57.104 270.624 55.4315V66.655H264.264V33.6887H270.162L270.382 36.0214C271.923 34.1728 273.933 33.2485 276.412 33.2485C279.346 33.2485 281.628 34.3342 283.256 36.5055C284.885 38.6769 285.699 41.6698 285.699 45.4844V45.8145ZM279.339 45.3523C279.339 43.137 278.943 41.4278 278.151 40.2247C277.373 39.0217 276.236 38.4201 274.74 38.4201C272.744 38.4201 271.372 39.183 270.624 40.7089V50.4579C271.402 52.0277 272.788 52.8127 274.784 52.8127C277.821 52.8127 279.339 50.3259 279.339 45.3523ZM303.459 57.5001C303.165 56.9279 302.952 56.2164 302.82 55.3655C301.28 57.082 299.277 57.9403 296.812 57.9403C294.48 57.9403 292.543 57.2654 291.003 55.9156C289.477 54.5659 288.714 52.864 288.714 50.81C288.714 48.2866 289.646 46.35 291.509 45.0002C293.387 43.6504 296.094 42.9682 299.629 42.9536H302.556V41.5891C302.556 40.4888 302.27 39.6085 301.698 38.9483C301.14 38.2881 300.253 37.958 299.035 37.958C297.964 37.958 297.121 38.2147 296.504 38.7282C295.903 39.2417 295.602 39.946 295.602 40.8409H289.242C289.242 39.4618 289.668 38.1854 290.519 37.0117C291.369 35.838 292.572 34.921 294.128 34.2608C295.683 33.586 297.429 33.2485 299.365 33.2485C302.3 33.2485 304.625 33.9894 306.341 35.4712C308.073 36.9383 308.938 39.007 308.938 41.6772V51.9984C308.953 54.2578 309.268 55.967 309.885 57.126V57.5001H303.459ZM298.199 53.0767C299.138 53.0767 300.003 52.8713 300.796 52.4605C301.588 52.0351 302.175 51.4702 302.556 50.766V46.6727H300.18C296.996 46.6727 295.301 47.7731 295.096 49.9738L295.074 50.3479C295.074 51.1401 295.353 51.793 295.91 52.3065C296.468 52.82 297.231 53.0767 298.199 53.0767ZM323.727 52.8127C324.901 52.8127 325.854 52.4899 326.588 51.8443C327.321 51.1988 327.703 50.3405 327.732 49.2695H333.696C333.681 50.8834 333.241 52.3652 332.376 53.7149C331.51 55.05 330.322 56.0917 328.811 56.8399C327.314 57.5735 325.656 57.9403 323.837 57.9403C320.433 57.9403 317.748 56.8619 315.782 54.7052C313.816 52.5339 312.833 49.541 312.833 45.7264V45.3083C312.833 41.6405 313.809 38.7136 315.76 36.5275C317.712 34.3415 320.389 33.2485 323.793 33.2485C326.771 33.2485 329.155 34.0995 330.945 35.8013C332.75 37.4885 333.667 39.7406 333.696 42.5574H327.732C327.703 41.3251 327.321 40.3274 326.588 39.5645C325.854 38.7869 324.886 38.3981 323.683 38.3981C322.201 38.3981 321.079 38.941 320.316 40.0266C319.568 41.0976 319.193 42.8435 319.193 45.2643V45.9245C319.193 48.3746 319.568 50.1351 320.316 51.2061C321.064 52.2772 322.201 52.8127 323.727 52.8127ZM348.287 57.9403C344.795 57.9403 341.949 56.8693 339.748 54.7273C337.562 52.5852 336.469 49.7317 336.469 46.1666V45.5504C336.469 43.159 336.931 41.0243 337.855 39.1464C338.78 37.2538 340.085 35.8013 341.773 34.789C343.474 33.762 345.411 33.2485 347.582 33.2485C350.839 33.2485 353.4 34.2755 355.263 36.3295C357.141 38.3835 358.08 41.2957 358.08 45.0662V47.663H342.917C343.122 49.2182 343.739 50.4653 344.766 51.4042C345.807 52.3432 347.12 52.8127 348.705 52.8127C351.155 52.8127 353.069 51.925 354.449 50.1498L357.574 53.6489C356.62 54.9987 355.329 56.055 353.7 56.8179C352.072 57.5661 350.267 57.9403 348.287 57.9403ZM347.56 38.3981C346.299 38.3981 345.272 38.8236 344.479 39.6745C343.702 40.5255 343.203 41.7432 342.983 43.3277H351.83V42.8215C351.8 41.4131 351.419 40.3274 350.685 39.5645C349.952 38.7869 348.91 38.3981 347.56 38.3981Z" fill="#303030"/>
<path d="M92.7398 18.1168C65.6986 -11.862 16.3221 -2.05568 2.81964 35.9054C20.1684 28.3475 57.3274 23.3179 92.7398 18.1168Z" fill="#005484"/>
<path d="M62.6848 32.5823C55.9335 47.4182 44.4672 86.6977 40.3043 105.362C85.9612 116.577 122.016 67.9429 99.7352 27.9139C87.2282 29.6477 67.074 32.1128 62.6848 32.5823Z" fill="#0B83C7"/>
<path d="M3.09004 47.6437C11.6177 39.1351 39.3214 34.8864 52.1073 33.8256L34.9847 87.4233C31.7617 67.1902 29.4452 87.87 28.6898 100.739C-4.48077 83.9897 -2.19778 58.3633 3.09004 47.6437Z" fill="#005484"/>
</svg>
