<svg width="212" height="212" viewBox="0 0 212 212" fill="none" xmlns="http://www.w3.org/2000/svg">
<g filter="url(#filter0_d)">
<circle cx="105.679" cy="100.321" r="95.6788" fill="#F8F9FA"/>
</g>
<path d="M155.185 120.321H56.9594V134.744H155.185V120.321Z" fill="#110239"/>
<path d="M158.482 130.184H53.662C50.3335 130.184 47.6381 127.486 47.6381 124.16V57.8685C47.6381 54.54 50.3335 51.8446 53.662 51.8446H158.479C161.808 51.8446 164.503 54.5431 164.503 57.8685V124.16C164.506 127.489 161.808 130.184 158.482 130.184Z" fill="#110239"/>
<path d="M159.126 57.0348H53.0201V124.182H159.126V57.0348Z" fill="#FEFEFE"/>
<path d="M36.249 151.102V153.243C36.249 154.427 37.5403 155.386 39.1294 155.386H173.016C174.609 155.386 175.897 154.424 175.897 153.243V151.102H36.249Z" fill="#110239"/>
<path d="M106.075 134.578H48.7562C48.5619 134.785 39.551 142.85 36.7992 148.842C35.6238 151.403 36.3917 152.751 38.5825 152.751H106.075H173.567C175.757 152.751 176.525 151.403 175.35 148.842C172.598 142.85 163.587 134.785 163.393 134.578H106.075Z" fill="#110239"/>
<path d="M168.644 149.689H46.513L54.9753 137.158H160.181L168.644 149.689Z" fill="#9C9EB9"/>
<path d="M167.159 147.488L166.896 147.097H158.747L157.23 144.056H164.846L164.583 143.665H157.039L155.522 140.624H162.533L162.27 140.233H155.327L153.792 137.158H153.087L154.597 140.233H145.872L144.649 137.158H143.944L145.144 140.233H136.419L135.507 137.158H134.802L135.689 140.233H126.963L126.364 137.158H125.659L126.233 140.233H117.507L117.222 137.158H116.517L116.78 140.233H108.496V137.158H107.722V140.233H99.1374L99.4007 137.158H98.6955L98.4103 140.233H89.6847L90.2582 137.158H89.553L88.9544 140.233H80.2287L81.1157 137.158H80.4105L79.4985 140.233H70.776L71.9764 137.158H71.2712L70.0488 140.233H61.3232L62.8339 137.158H62.1287L60.5929 140.233H52.8985L52.6352 140.624H60.3986L58.8817 143.665H50.5823L50.319 144.056H58.6873L57.1704 147.097H48.263L47.9997 147.488H56.9729L55.876 149.689H56.6783L57.7596 147.488H67.1654L66.2909 149.689H67.0933L67.9521 147.488H77.3578L76.7059 149.689H77.5083L78.1414 147.488H87.5471L87.1209 149.689H87.9232L88.3338 147.488H97.7396L97.5358 149.689H98.3382L98.5262 147.488H107.728V149.689H108.502V147.488H117.4L117.589 149.689H118.391L118.187 147.488H127.593L128.003 149.689H128.806L128.38 147.488H137.785L138.418 149.689H139.221L138.569 147.488H147.975L148.833 149.689H149.636L148.761 147.488H158.167L159.248 149.689H160.051L158.954 147.488H167.159ZM70.6255 140.628H79.3888L78.4893 143.668H69.4439L70.6255 140.628ZM61.132 140.628H69.8921L68.6823 143.668H59.637L61.132 140.628ZM67.319 147.097H57.9508L59.4458 144.056H68.5288L67.319 147.097ZM77.4706 147.097H68.1025L69.2872 144.056H78.3702L77.4706 147.097ZM87.6192 147.097H78.2511L79.1286 144.056H88.2116L87.6192 147.097ZM88.2868 143.665H79.2415L80.1191 140.624H88.8823L88.2868 143.665ZM97.7709 147.097H88.4028L88.9701 144.056H98.053L97.7709 147.097ZM98.0906 143.665H89.0453L89.6126 140.624H98.3727L98.0906 143.665ZM107.719 147.097H98.5513L98.8115 144.056H107.722V147.097H107.719ZM107.719 143.665H98.8428L99.1029 140.624H107.719V143.665ZM108.496 140.628H116.811L117.071 143.668H108.496V140.628ZM108.496 147.097V144.056H117.103L117.363 147.097H108.496ZM154.782 140.628L156.277 143.668H147.232L146.022 140.628H154.782ZM145.289 140.628L146.473 143.668H137.428L136.529 140.628H145.289ZM117.541 140.628H126.305L126.872 143.668H117.827L117.541 140.628ZM118.143 147.097L117.861 144.056H126.944L127.511 147.097H118.143ZM127.035 140.628H135.798L136.676 143.668H127.631L127.035 140.628ZM128.295 147.097L127.703 144.056H136.786L137.663 147.097H128.295ZM138.444 147.097L137.544 144.056H146.627L147.812 147.097H138.444ZM148.595 147.097L147.385 144.056H156.468L157.963 147.097H148.595Z" fill="#D0D1DE"/>
<path d="M106.073 152.753H100.143C100.146 152.769 100.127 153.277 100.438 153.575C100.554 153.687 100.72 153.741 100.886 153.741H106.073H111.26C111.429 153.741 111.592 153.684 111.708 153.575C112.018 153.277 112 152.769 112.003 152.753H106.073Z" fill="#110239"/>
<path d="M159.116 57.0411H53.0199V124.185H159.116V57.0411Z" fill="#FEFEFE"/>
<path d="M106.966 62.109H99.1931V64.375H106.966V62.109Z" fill="#D0D1DE"/>
<path d="M118.575 62.1091H110.802V64.3752H118.575V62.1091Z" fill="#D0D1DE"/>
<path d="M130.181 62.1091H122.408V64.3752H130.181V62.1091Z" fill="#D0D1DE"/>
<path d="M141.789 62.1091H134.016V64.3752H141.789V62.1091Z" fill="#D0D1DE"/>
<path d="M78.4758 71.5308H55.4269V82.0492H78.4758V71.5308Z" fill="#D0D1DE"/>
<path d="M92.7076 71.5308H79.5095V71.7533H92.7076V71.5308Z" fill="#D0D1DE"/>
<path d="M92.7076 72.1509H79.5095V72.3735H92.7076V72.1509Z" fill="#D0D1DE"/>
<path d="M92.7076 72.7717H79.5095V72.9942H92.7076V72.7717Z" fill="#D0D1DE"/>
<path d="M92.7076 73.3923H79.5095V73.6148H92.7076V73.3923Z" fill="#D0D1DE"/>
<path d="M92.7076 74.0159H79.5095V74.2385H92.7076V74.0159Z" fill="#D0D1DE"/>
<path d="M92.7076 74.6367H79.5095V74.8592H92.7076V74.6367Z" fill="#D0D1DE"/>
<path d="M92.7076 75.254H79.5095V75.4765H92.7076V75.254Z" fill="#D0D1DE"/>
<path d="M92.7076 75.8745H79.5095V76.0971H92.7076V75.8745Z" fill="#D0D1DE"/>
<path d="M92.7076 76.4982H79.5095V76.7207H92.7076V76.4982Z" fill="#D0D1DE"/>
<path d="M92.7076 77.119H79.5095V77.3415H92.7076V77.119Z" fill="#D0D1DE"/>
<path d="M92.7076 77.7393H79.5095V77.9619H92.7076V77.7393Z" fill="#D0D1DE"/>
<path d="M92.7076 78.3599H79.5095V78.5824H92.7076V78.3599Z" fill="#D0D1DE"/>
<path d="M79.6047 60.8336H65.7734V61.965H79.6047V60.8336Z" fill="#D0D1DE"/>
<path d="M76.2216 63.0997H65.7721V64.2311H76.2216V63.0997Z" fill="#D0D1DE"/>
<path d="M108.038 91.2917L98.4659 95.548L86.3553 83.4405L53.0199 108.843V124.185H159.116V45.2847L114.789 98.9298L108.038 91.2917Z" fill="#01C7E2"/>
<path d="M77.3274 103.691H73.9425V106.258H77.3274V103.691Z" fill="#FEFEFE"/>
<path d="M82.101 103.691H78.716V106.258H82.101V103.691Z" fill="#FEFEFE"/>
<path d="M86.8778 103.691H83.4929V106.258H86.8778V103.691Z" fill="#FD425F"/>
<path d="M91.6513 103.691H88.2664V106.258H91.6513V103.691Z" fill="#FEFEFE"/>
<path d="M96.4282 103.691H93.0432V106.258H96.4282V103.691Z" fill="#FEFEFE"/>
<path d="M101.205 103.691H97.8167V106.258H101.205V103.691Z" fill="#FD425F"/>
<path d="M77.3274 108.072H73.9425V110.639H77.3274V108.072Z" fill="#FEFEFE"/>
<path d="M82.101 108.072H78.716V110.639H82.101V108.072Z" fill="#FEFEFE"/>
<path d="M86.8778 108.072H83.4929V110.639H86.8778V108.072Z" fill="#FEFEFE"/>
<path d="M91.6513 108.072H88.2664V110.639H91.6513V108.072Z" fill="#FEFEFE"/>
<path d="M96.4282 108.072H93.0432V110.639H96.4282V108.072Z" fill="#FD425F"/>
<path d="M101.205 108.072H97.8167V110.639H101.205V108.072Z" fill="#FEFEFE"/>
<path d="M77.3274 112.457H73.9425V115.024H77.3274V112.457Z" fill="#FEFEFE"/>
<path d="M82.101 112.457H78.716V115.024H82.101V112.457Z" fill="#FD425F"/>
<path d="M86.8778 112.457H83.4929V115.024H86.8778V112.457Z" fill="#FEFEFE"/>
<path d="M91.6513 112.457H88.2664V115.024H91.6513V112.457Z" fill="#FEFEFE"/>
<path d="M96.4282 112.457H93.0432V115.024H96.4282V112.457Z" fill="#FEFEFE"/>
<path d="M101.205 112.457H97.8167V115.024H101.205V112.457Z" fill="#FEFEFE"/>
<path d="M77.3274 116.839H73.9425V119.406H77.3274V116.839Z" fill="#FEFEFE"/>
<path d="M82.101 116.839H78.716V119.406H82.101V116.839Z" fill="#FEFEFE"/>
<path d="M86.8778 116.839H83.4929V119.406H86.8778V116.839Z" fill="#FD425F"/>
<path d="M91.6513 116.839H88.2664V119.406H91.6513V116.839Z" fill="#FEFEFE"/>
<path d="M109.184 96.4254L108.845 96.0901L108.413 96.2718L108.14 95.6074L108.987 95.2501L109.657 95.9145L109.184 96.4254Z" fill="white"/>
<path d="M101.468 99.1929L101.195 98.5253L102.358 98.0363L102.631 98.7039L101.468 99.1929ZM103.791 98.215L103.518 97.5474L104.678 97.0616L104.95 97.7292L103.791 98.215ZM106.107 97.2402L105.834 96.5758L106.991 96.09L107.263 96.7544L106.107 97.2402Z" fill="white"/>
<path d="M99.4656 100.033L98.7635 99.4217L99.2117 98.8732L99.5847 99.1992L100.036 99.0111L100.306 99.6819L99.4656 100.033Z" fill="white"/>
<path d="M97.7387 98.5255L96.7107 97.6291L97.1589 97.0837L98.1869 97.9801L97.7387 98.5255ZM95.6827 96.7296L94.6547 95.8332L95.1029 95.2878L96.1309 96.1842L95.6827 96.7296ZM93.6298 94.9368L92.6018 94.0404L93.0531 93.4951L94.0811 94.3914L93.6298 94.9368ZM91.5737 93.144L90.5457 92.2476L90.9971 91.7054L92.0251 92.6018L91.5737 93.144ZM89.5177 91.3513L88.4897 90.4549L88.941 89.9127L89.969 90.809L89.5177 91.3513Z" fill="white"/>
<path d="M87.4645 89.5554L87.1322 89.267L86.7749 89.5146L86.3737 88.9191L87.1698 88.3612L87.9158 89.0132L87.4645 89.5554Z" fill="white"/>
<path d="M55.411 111.548L54.9973 110.94L56.2322 110.075L56.6459 110.683L55.411 111.548ZM57.8745 109.818L57.4608 109.21L58.6894 108.348L59.1 108.956L57.8745 109.818ZM60.3317 108.091L59.9212 107.483L61.1466 106.624L61.5572 107.229L60.3317 108.091ZM62.7795 106.37L62.369 105.765L63.5882 104.91L63.9988 105.514L62.7795 106.37ZM65.218 104.659L64.8074 104.054L66.0235 103.201L66.434 103.806L65.218 104.659ZM67.6501 102.951L67.2395 102.349L68.4525 101.5L68.863 102.101L67.6501 102.951ZM70.0697 101.252L69.6591 100.65L70.8658 99.8039L71.2764 100.406L70.0697 101.252ZM72.4831 99.5563L72.0725 98.9545L73.276 98.1114L73.6835 98.7101L72.4831 99.5563ZM74.887 97.867L74.4795 97.2683L75.6768 96.4252L76.0843 97.0239L74.887 97.867ZM77.2815 96.1839L76.8741 95.5853L78.0682 94.7484L78.4757 95.3471L77.2815 96.1839ZM79.6698 94.5071L79.2623 93.9116L80.4533 93.0748L80.8608 93.6703L79.6698 94.5071ZM82.0455 92.8366L81.6412 92.2411L82.8291 91.4105L83.2334 92.006L82.0455 92.8366ZM84.4181 91.1723L84.0107 90.5768L85.1923 89.7462L85.5997 90.3417L84.4181 91.1723Z" fill="white"/>
<path d="M117.422 101.105L116.902 100.619L117.811 99.5597L118.331 100.042L117.422 101.105ZM119.24 98.9861L118.72 98.5034L119.625 97.4472L120.146 97.9299L119.24 98.9861ZM121.051 96.8768L120.531 96.3941L121.434 95.341L121.951 95.8237L121.051 96.8768ZM122.857 94.7737L122.34 94.2911L123.239 93.2442L123.756 93.7269L122.857 94.7737ZM124.656 92.6801L124.139 92.2005L125.035 91.1568L125.552 91.6364L124.656 92.6801ZM126.445 90.5927L125.928 90.1132L126.822 89.0726L127.336 89.5521L126.445 90.5927ZM128.232 88.5116L127.718 88.032L128.608 86.9946L129.122 87.4741L128.232 88.5116ZM130.012 86.4367L129.498 85.9603L130.385 84.926L130.899 85.4024L130.012 86.4367ZM131.786 84.3713L131.272 83.8949L132.156 82.8637L132.67 83.3401L131.786 84.3713ZM133.551 82.3121L133.04 81.8357L133.921 80.8077L134.431 81.2841L133.551 82.3121ZM135.312 80.2592L134.801 79.7828L135.679 78.7611L136.19 79.2343L135.312 80.2592ZM137.067 78.2157L136.556 77.7424L137.431 76.7238L137.942 77.1971L137.067 78.2157ZM138.816 76.1785L138.305 75.7052L139.177 74.6897L139.684 75.163L138.816 76.1785ZM140.559 74.1475L140.051 73.6742L140.919 72.6619L141.427 73.1351L140.559 74.1475ZM142.298 72.1228L141.791 71.6495L142.659 70.6403L143.166 71.1136L142.298 72.1228ZM144.028 70.1075L143.521 69.6342L144.383 68.6282L144.89 69.1014L144.028 70.1075ZM145.752 68.0985L145.244 67.6283L146.106 66.6254L146.611 67.0955L145.752 68.0985ZM147.473 66.0957L146.968 65.6256L147.827 64.6258L148.332 65.0959L147.473 66.0957ZM149.187 64.0992L148.683 63.6291L149.538 62.6356L150.043 63.1057L149.187 64.0992ZM150.892 62.109L150.388 61.6389L151.24 60.6485L151.742 61.1186L150.892 62.109ZM152.594 60.1282L152.093 59.6612L152.942 58.6739L153.444 59.1409L152.594 60.1282ZM154.29 58.1505L153.788 57.6835L154.635 56.6994L155.136 57.1664L154.29 58.1505ZM155.869 56.2794L155.368 55.8124L156.214 54.8282L156.716 55.2952L155.869 56.2794ZM157.449 54.4083L156.948 53.9413L157.794 52.9571L158.295 53.4241L157.449 54.4083Z" fill="white"/>
<path d="M115.82 102.969L115.052 102.211L115.525 101.697L115.77 101.938L115.989 101.681L116.509 102.164L115.82 102.969Z" fill="white"/>
<path d="M113.879 101.055L112.707 99.8983L113.18 99.3843L114.353 100.541L113.879 101.055ZM111.532 98.7418L110.36 97.5853L110.833 97.0713L112.005 98.2278L111.532 98.7418Z" fill="white"/>
<path d="M121.84 139.465C121.84 139.465 121.993 142.452 121.557 142.897C121.122 143.342 115.208 143.987 114.653 143.483C114.098 142.978 114.327 142.041 115.571 141.587C116.906 141.101 117.605 141.417 118.43 140.994C119.257 140.571 118.925 139.242 118.925 139.242L121.84 139.465Z" fill="#110239"/>
<path d="M141.234 139.465C141.234 139.465 141.081 142.452 141.516 142.897C141.952 143.342 147.866 143.987 148.421 143.483C148.973 142.978 148.747 142.041 147.503 141.587C146.168 141.101 145.469 141.417 144.644 140.994C143.817 140.571 144.149 139.242 144.149 139.242L141.234 139.465Z" fill="#110239"/>
<path d="M141.557 122.186C140.912 118.932 137.445 110.05 136.16 106.969C135.643 106.794 135.079 106.624 134.505 106.455C134.656 105.762 134.756 105.164 134.869 104.644C133.863 104.91 132.794 105.038 131.713 105.38C131.566 105.427 131.403 105.477 131.23 105.527C131.058 105.477 130.895 105.427 130.748 105.38C129.666 105.035 128.597 104.91 127.591 104.644C127.701 105.164 127.805 105.762 127.955 106.455C127.381 106.621 126.817 106.794 126.3 106.969C125.015 110.05 121.552 118.932 120.903 122.186C120.01 126.69 118.518 140.035 118.518 140.035L122.323 140.537C122.323 140.537 126.147 122.606 126.692 121.612C127.673 119.829 128.701 118.252 129.616 116.858C130.381 115.695 132.08 115.695 132.844 116.858C133.76 118.252 134.788 119.829 135.769 121.612C136.314 122.606 140.138 140.537 140.138 140.537L143.943 140.035C143.943 140.035 142.451 126.69 141.557 122.186Z" fill="#FD425F"/>
<path d="M142.604 66.6978C142.382 65.1526 142.15 64.9144 141.63 64.6104C141.385 64.4694 141.144 64.344 140.978 64.1183C140.805 63.8864 140.52 63.6827 140.282 63.4852C140.059 63.3003 139.762 63.106 139.661 62.7957C139.542 62.4259 140.028 62.5262 140.341 62.6421C140.683 62.7675 141.322 63.7077 141.686 63.5761C142.05 63.4476 141.197 62.3506 141.025 62.1344C140.617 61.6266 140.131 61.6925 139.589 61.4605C139.273 61.3226 139.169 61.1659 139.511 60.959C139.765 60.8055 140.091 60.9308 140.348 61.0186C140.874 61.1941 141.429 61.5075 141.811 61.9275C141.554 61.5639 140.934 61.1408 140.536 60.9402C140.263 60.7992 138.987 60.4106 139.169 59.9592C139.536 59.0535 142.009 60.7585 142.278 61.238C141.959 60.7867 141.504 60.4795 141.059 60.163C140.796 59.9749 140.16 59.5612 140.696 59.3449C141.485 59.0284 142.444 60.4952 142.99 61.075C142.764 60.5829 142.438 60.2821 142.068 59.8339C141.633 59.3042 142.175 59.1663 142.714 59.6333C142.94 59.8276 143.328 60.2946 143.41 60.398C144.272 61.4856 144.306 62.2159 144.46 63.5448C144.516 64.0212 144.526 64.7985 144.682 66.1869C144.779 66.983 143.275 66.5693 142.604 66.6978Z" fill="#F88667"/>
<path d="M105.568 88.2924C104.107 87.7439 103.925 87.1578 103.74 86.5842C103.653 86.3147 103.584 86.0546 103.402 85.8414C103.214 85.622 103.076 85.3024 102.932 85.0265C102.797 84.7695 102.672 84.4373 102.389 84.2743C102.054 84.0769 102.048 84.5752 102.092 84.9043C102.139 85.2647 102.922 86.0922 102.715 86.4181C102.512 86.7441 101.622 85.6785 101.449 85.4622C101.039 84.9545 101.211 84.4969 101.095 83.917C101.029 83.5785 100.894 83.4438 100.622 83.7352C100.418 83.9515 100.471 84.2963 100.5 84.5658C100.559 85.1174 100.744 85.7286 101.076 86.1893C100.775 85.8602 100.496 85.1644 100.384 84.7319C100.305 84.4342 100.195 83.1084 99.716 83.1899C98.7538 83.3529 99.8915 86.1361 100.299 86.5028C99.926 86.0953 99.7254 85.5844 99.5091 85.0798C99.3837 84.7852 99.1142 84.0706 98.7882 84.5501C98.3087 85.2553 99.5373 86.5028 99.9886 87.1609C99.5561 86.835 99.3305 86.4526 98.9732 85.995C98.5469 85.4559 98.2993 85.9543 98.6378 86.5842C98.782 86.8475 99.1518 87.3271 99.2364 87.4273C100.114 88.5024 100.822 88.6904 102.085 89.123C102.54 89.2797 103.019 89.3173 104.518 90.0413C105.245 90.3923 105.298 88.9192 105.568 88.2924Z" fill="#F88667"/>
<path d="M133.108 85.3997C132.277 85.5627 131.409 85.5878 130.616 85.5219C130.325 85.4969 130.027 85.4311 129.745 85.3339C129.782 86.3713 129.782 88.7784 129.052 89.7657C129.052 89.7657 129.312 90.9285 131.431 90.9567C133.553 90.988 133.813 89.7657 133.813 89.7657C133.813 89.7657 133.03 88.0324 133.108 85.3997Z" fill="#F88667"/>
<path d="M141.263 91.2608C140.686 90.5242 137.944 88.9007 136.088 88.6061C133.079 88.1297 129.995 88.1297 126.987 88.6061C125.131 88.9007 123.285 89.3709 122.708 90.1074C121.984 91.032 124.15 96.2128 124.51 100.967C124.808 104.91 125.347 107.957 125.347 107.957C126.535 110.141 135.834 110.201 137.022 108.016C137.022 108.016 137.245 104.647 137.89 100.967C138.727 96.1784 141.993 92.1979 141.263 91.2608Z" fill="#E5E6ED"/>
<path d="M126.328 99.8735C126.388 98.5947 126.811 96.3036 126.341 95.1283C125.667 93.4515 124.144 92.8246 122.737 92.0568C123.157 94.2006 124.26 97.6733 124.507 100.967C124.805 104.91 125.344 107.957 125.344 107.957C125.564 108.361 126.078 108.684 126.751 108.938C125.429 106.408 126.212 102.365 126.328 99.8735Z" fill="#ABADC4"/>
<path d="M135.963 79.6264C135.963 79.6264 131.572 77.0438 130.904 77.6769C130.24 78.3132 129.196 80.4726 128.692 80.8017C128.187 81.1308 127.397 81.4442 127.469 81.8329C127.538 82.2215 127.795 82.2466 127.773 82.6384C127.751 83.0302 126.864 84.9013 127.35 85.456C127.836 86.0108 131.027 87.2269 132.945 85.9512C134.86 84.6819 138.126 80.7829 135.963 79.6264Z" fill="#F88667"/>
<path d="M136.931 80.576L133.233 80.6355C133.233 80.6355 132.537 82.4659 130.957 83.6412C130.957 83.6412 131.045 84.1866 131.44 84.0738C131.835 83.9609 132.079 83.917 132.346 83.5002C132.612 83.0865 133.408 82.0083 133.95 82.9548C134.493 83.9014 133.333 84.2242 132.847 84.2179C132.847 84.2179 131.164 86.2583 132.474 86.6438C132.474 86.6438 133.938 86.4275 136.16 84.0644C138.385 81.7012 137.928 80.3911 136.931 80.576Z" fill="#110239"/>
<path d="M129.933 76.2509C129.933 76.2509 128.134 77.3416 130.218 79.5293C132.299 81.717 137.201 80.5636 137.201 80.5636C137.201 80.5636 137.722 79.1375 135.951 77.6425C134.628 76.5236 133.174 75.9563 132.008 76.4923C130.024 77.4043 129.933 76.2509 129.933 76.2509Z" fill="#110239"/>
<path d="M105.085 87.5935L103.514 90.0978C103.514 90.0978 107.561 93.9842 112.212 97.0682C114.92 98.8641 124.194 95.9932 125.626 95.5607C127.673 94.9464 129.212 90.6149 125.799 89.0039C123.799 88.0605 115.772 94.1597 113.804 93.1254C111.34 91.831 105.085 87.5935 105.085 87.5935Z" fill="#E5E6ED"/>
<path d="M141.925 66.049L145.047 65.5256C145.047 65.5256 147.109 74.5396 146.984 77.7866C146.861 81.0336 141.699 92.8339 140.521 93.7554C139.104 94.8649 135.18 91.6617 138.026 88.2078C140.872 84.754 142.715 77.6424 142.79 77.351C142.868 77.0657 141.925 66.049 141.925 66.049Z" fill="#E5E6ED"/>
<path d="M59.3099 67.3935C61.9946 67.3935 64.171 65.2171 64.171 62.5323C64.171 59.8476 61.9946 57.6712 59.3099 57.6712C56.6251 57.6712 54.4487 59.8476 54.4487 62.5323C54.4487 65.2171 56.6251 67.3935 59.3099 67.3935Z" fill="#FD425F"/>
<defs>
<filter id="filter0_d" x="0" y="0.642334" width="211.358" height="211.358" filterUnits="userSpaceOnUse" color-interpolation-filters="sRGB">
<feFlood flood-opacity="0" result="BackgroundImageFix"/>
<feColorMatrix in="SourceAlpha" type="matrix" values="0 0 0 0 0 0 0 0 0 0 0 0 0 0 0 0 0 0 127 0" result="hardAlpha"/>
<feOffset dy="6"/>
<feGaussianBlur stdDeviation="5"/>
<feColorMatrix type="matrix" values="0 0 0 0 0 0 0 0 0 0 0 0 0 0 0 0 0 0 0.15 0"/>
<feBlend mode="normal" in2="BackgroundImageFix" result="effect1_dropShadow"/>
<feBlend mode="normal" in="SourceGraphic" in2="effect1_dropShadow" result="shape"/>
</filter>
</defs>
</svg>
