<svg width="212" height="212" viewBox="0 0 212 212" fill="none" xmlns="http://www.w3.org/2000/svg">
<g filter="url(#filter0_d)">
<circle cx="105.679" cy="100.321" r="95.6788" fill="#F8F9FA"/>
</g>
<path d="M90.5796 96.1143H34.7039C34.061 96.1143 33.5406 95.594 33.5406 94.951V64.5889H91.743V94.951C91.743 95.594 91.2226 96.1143 90.5796 96.1143Z" fill="#F5F5F5"/>
<path d="M91.743 64.5889H33.5406V70.4457H91.743V64.5889Z" fill="#EBEBEB"/>
<path d="M37.0905 67.9886C37.3448 67.9886 37.5509 67.7825 37.5509 67.5283C37.5509 67.274 37.3448 67.0679 37.0905 67.0679C36.8363 67.0679 36.6302 67.274 36.6302 67.5283C36.6302 67.7825 36.8363 67.9886 37.0905 67.9886Z" fill="#FAFAFA"/>
<path d="M39.844 67.9886C40.0982 67.9886 40.3043 67.7825 40.3043 67.5283C40.3043 67.274 40.0982 67.0679 39.844 67.0679C39.5898 67.0679 39.3837 67.274 39.3837 67.5283C39.3837 67.7825 39.5898 67.9886 39.844 67.9886Z" fill="#FAFAFA"/>
<path d="M42.6 67.9886C42.8542 67.9886 43.0603 67.7825 43.0603 67.5283C43.0603 67.274 42.8542 67.0679 42.6 67.0679C42.3457 67.0679 42.1396 67.274 42.1396 67.5283C42.1396 67.7825 42.3457 67.9886 42.6 67.9886Z" fill="#FAFAFA"/>
<path d="M84.7452 75.1692H62.7667V75.9648H84.7452V75.1692Z" fill="#EBEBEB"/>
<path d="M84.7452 78.4415H62.7667V79.2371H84.7452V78.4415Z" fill="#EBEBEB"/>
<path d="M84.7452 81.7137H62.7667V82.5093H84.7452V81.7137Z" fill="#EBEBEB"/>
<path d="M84.7452 84.9887H62.7667V85.7843H84.7452V84.9887Z" fill="#EBEBEB"/>
<path d="M73.7547 88.261H62.7667V89.0566H73.7547V88.261Z" fill="#EBEBEB"/>
<path d="M57.19 74.6111H38.3838V90.2599H57.19V74.6111Z" fill="#FAFAFA"/>
<path d="M38.3493 85.5343L43.9084 81.6389L47.7862 84.3234L53.8831 79.1621L57.1881 82.4345V90.2602H38.3819L38.3493 85.5343Z" fill="#EBEBEB"/>
<path d="M49.6843 79.162C49.6843 80.0327 48.9788 80.7382 48.1082 80.7382C47.2376 80.7382 46.532 80.0327 46.532 79.162C46.532 78.2914 47.2376 77.5859 48.1082 77.5859C48.9788 77.5859 49.6843 78.2914 49.6843 79.162Z" fill="#EBEBEB"/>
<path d="M72.0606 83.4799C72.0381 83.4824 72.0681 83.0746 71.893 82.3791C71.8104 82.0314 71.6453 81.6186 71.3876 81.1833C71.1274 80.7479 70.7496 80.2951 70.2393 79.9123C69.7314 79.5321 69.0884 79.2093 68.3479 79.0792C67.6123 78.9541 66.7842 78.9767 65.9937 79.2769C65.5959 79.4145 65.2131 79.6246 64.8603 79.8873C64.6777 80.0124 64.5201 80.1675 64.3525 80.3201C64.2024 80.4878 64.0447 80.6504 63.9147 80.838C63.3643 81.571 63.054 82.5117 63.044 83.4824C63.0515 84.4531 63.3618 85.3938 63.9147 86.1269C64.0447 86.317 64.2024 86.4796 64.3525 86.6447C64.5201 86.7949 64.6777 86.9525 64.8603 87.0776C65.2131 87.3403 65.5959 87.5504 65.9937 87.688C66.7817 87.9882 67.6123 88.0132 68.3479 87.8857C69.0884 87.7556 69.7289 87.4328 70.2393 87.0525C70.7496 86.6673 71.1249 86.2144 71.3876 85.7816C71.6478 85.3463 71.8129 84.9335 71.893 84.5857C72.0681 83.8827 72.0356 83.4774 72.0606 83.4799C72.0631 83.4799 72.0631 83.505 72.0631 83.5525C72.0631 83.6075 72.0606 83.6801 72.0581 83.7702C72.0581 83.8652 72.0531 83.9828 72.0281 84.1204C72.0106 84.258 71.9905 84.4181 71.9405 84.5933C71.8654 84.9485 71.7053 85.3688 71.4476 85.8141C71.1875 86.2595 70.8097 86.7248 70.2943 87.1226C69.7789 87.5154 69.126 87.8506 68.3679 87.9907C67.6174 88.1233 66.7667 88.1033 65.9536 87.7981C65.5458 87.658 65.1506 87.4453 64.7878 87.1751C64.6002 87.0475 64.4375 86.8874 64.2649 86.7323C64.1098 86.5622 63.9472 86.3946 63.8121 86.1994C63.2442 85.4464 62.9239 84.4782 62.9139 83.4799C62.9239 82.4817 63.2442 81.5135 63.8121 80.7605C63.9447 80.5653 64.1098 80.3977 64.2649 80.2276C64.4375 80.0725 64.6002 79.9123 64.7878 79.7847C65.1506 79.5146 65.5458 79.3019 65.9536 79.1618C66.7667 78.8566 67.6149 78.8366 68.3679 78.9692C69.126 79.1068 69.7789 79.442 70.2943 79.8373C70.8122 80.2351 71.19 80.7004 71.4476 81.1457C71.7053 81.5936 71.8654 82.0139 71.9405 82.3666C71.9905 82.5418 72.008 82.7019 72.0281 82.8395C72.0506 82.9771 72.0581 83.0947 72.0581 83.1897C72.0606 83.2798 72.0606 83.3498 72.0631 83.4074C72.0631 83.4549 72.0606 83.4799 72.0606 83.4799Z" fill="#263238"/>
<path d="M67.5213 85.7591C67.4862 85.7591 67.4562 84.7384 67.4562 83.4799C67.4562 82.2215 67.4862 81.2008 67.5213 81.2008C67.5563 81.2008 67.5863 82.2215 67.5863 83.4799C67.5888 84.7384 67.5588 85.7591 67.5213 85.7591Z" fill="#263238"/>
<path d="M69.8002 83.48C69.8002 83.515 68.7794 83.545 67.521 83.545C66.2626 83.545 65.2419 83.515 65.2419 83.48C65.2419 83.4449 66.2626 83.4149 67.521 83.4149C68.7819 83.4149 69.8002 83.4424 69.8002 83.48Z" fill="#263238"/>
<path d="M129.944 74.4922H84.308C83.55 74.4922 82.9345 73.8767 82.9345 73.1186V32.2639C82.9345 31.5058 83.55 30.8904 84.308 30.8904H129.944C130.702 30.8904 131.317 31.5058 131.317 32.2639V73.1186C131.317 73.8767 130.702 74.4922 129.944 74.4922Z" fill="#F5F5F5"/>
<path d="M131.317 35.7589H82.9369V32.4941C82.9369 31.6084 83.6549 30.8904 84.5405 30.8904H129.713C130.599 30.8904 131.317 31.6084 131.317 32.4941V35.7589Z" fill="#EBEBEB"/>
<path d="M85.8888 33.715C86.1002 33.715 86.2716 33.5436 86.2716 33.3322C86.2716 33.1208 86.1002 32.9494 85.8888 32.9494C85.6774 32.9494 85.5061 33.1208 85.5061 33.3322C85.5061 33.5436 85.6774 33.715 85.8888 33.715Z" fill="#FAFAFA"/>
<path d="M88.5621 33.3322C88.5621 33.5423 88.3919 33.715 88.1793 33.715C87.9691 33.715 87.7965 33.5448 87.7965 33.3322C87.7965 33.122 87.9666 32.9494 88.1793 32.9494C88.3894 32.9519 88.5621 33.122 88.5621 33.3322Z" fill="#FAFAFA"/>
<path d="M90.4672 33.715C90.6786 33.715 90.85 33.5436 90.85 33.3322C90.85 33.1208 90.6786 32.9494 90.4672 32.9494C90.2558 32.9494 90.0844 33.1208 90.0844 33.3322C90.0844 33.5436 90.2558 33.715 90.4672 33.715Z" fill="#FAFAFA"/>
<path d="M125.498 39.6842H107.23V40.3447H125.498V39.6842Z" fill="#FAFAFA"/>
<path d="M125.498 42.4038H107.23V43.0643H125.498V42.4038Z" fill="#FAFAFA"/>
<path d="M125.498 45.1257H107.23V45.7862H125.498V45.1257Z" fill="#FAFAFA"/>
<path d="M125.498 47.8479H107.23V48.5084H125.498V47.8479Z" fill="#FAFAFA"/>
<path d="M116.364 50.5673H107.23V51.2278H116.364V50.5673Z" fill="#FAFAFA"/>
<path d="M87.8261 56.5815H106.094V55.921H87.8261V56.5815Z" fill="#FAFAFA"/>
<path d="M87.8261 59.3012H106.094V58.6407H87.8261V59.3012Z" fill="#FAFAFA"/>
<path d="M87.8261 62.0231H106.094V61.3626H87.8261V62.0231Z" fill="#FAFAFA"/>
<path d="M87.8261 64.743H106.094V64.0825H87.8261V64.743Z" fill="#FAFAFA"/>
<path d="M96.9608 67.4653H106.095V66.8048H96.9608V67.4653Z" fill="#FAFAFA"/>
<path d="M124.887 55.1881H109.253V68.1951H124.887V55.1881Z" fill="#FAFAFA"/>
<path d="M109.226 64.267L113.845 61.0297L117.07 63.2613L122.138 58.9707L124.885 61.6927V68.1949H109.251L109.226 64.267Z" fill="#EBEBEB"/>
<path d="M117.34 60.2791C118.063 60.2791 118.649 59.6932 118.649 58.9706C118.649 58.248 118.063 57.6622 117.34 57.6622C116.617 57.6622 116.032 58.248 116.032 58.9706C116.032 59.6932 116.617 60.2791 117.34 60.2791Z" fill="#EBEBEB"/>
<path d="M103.462 39.2845H87.8279V52.2915H103.462V39.2845Z" fill="#FAFAFA"/>
<path d="M87.7998 48.3636L92.4182 45.1262L95.643 47.3553L100.712 43.0672L103.459 45.7867V52.2914H87.8273L87.7998 48.3636Z" fill="#EBEBEB"/>
<path d="M95.9134 44.3754C96.6361 44.3754 97.2219 43.7896 97.2219 43.0669C97.2219 42.3443 96.6361 41.7585 95.9134 41.7585C95.1908 41.7585 94.605 42.3443 94.605 43.0669C94.605 43.7896 95.1908 44.3754 95.9134 44.3754Z" fill="#EBEBEB"/>
<path d="M154.429 139.084L159.518 152.152L161.643 148.724L164.582 152.586L168.089 149.252L164.747 146.029L167.83 143.944L154.429 139.084Z" fill="#01C7E2"/>
<path d="M152.511 141.015C152.539 141.058 151.707 141.636 150.655 142.303C149.604 142.971 148.728 143.477 148.699 143.434C148.67 143.391 149.503 142.813 150.555 142.145C151.606 141.478 152.482 140.972 152.511 141.015Z" fill="#263238"/>
<path d="M152.907 138.381C152.9 138.406 152.587 138.323 152.088 138.165C151.593 138.007 150.911 137.763 150.175 137.465C149.436 137.168 148.779 136.873 148.309 136.651C147.839 136.428 147.552 136.277 147.563 136.256C147.573 136.231 147.878 136.338 148.363 136.532C148.912 136.755 149.547 137.01 150.247 137.297C150.951 137.577 151.586 137.828 152.135 138.047C152.62 138.233 152.917 138.356 152.907 138.381Z" fill="#263238"/>
<path d="M154.443 132.448C154.468 132.444 154.54 132.717 154.629 133.169C154.719 133.618 154.819 134.246 154.906 134.939C154.992 135.635 155.046 136.267 155.074 136.722C155.099 137.182 155.099 137.465 155.071 137.465C155.017 137.469 154.895 136.346 154.719 134.96C154.547 133.578 154.389 132.455 154.443 132.448Z" fill="#263238"/>
<path d="M161.488 135.373C161.509 135.427 160.566 135.832 159.507 136.511C158.444 137.189 157.605 137.785 157.572 137.738C157.558 137.716 157.752 137.548 158.078 137.289C158.409 137.035 158.868 136.69 159.41 136.353C160.483 135.664 161.474 135.326 161.488 135.373Z" fill="#263238"/>
<path d="M143.035 157.066C143.001 157.088 139.481 151.642 135.173 144.904C130.862 138.163 127.398 132.687 127.432 132.664C127.465 132.642 130.986 138.088 135.296 144.826C139.604 151.564 143.069 157.043 143.035 157.066Z" fill="#263238"/>
<path d="M144.567 168.955C149.08 168.955 152.738 165.297 152.738 160.785C152.738 156.272 149.08 152.614 144.567 152.614C140.055 152.614 136.397 156.272 136.397 160.785C136.397 165.297 140.055 168.955 144.567 168.955Z" fill="white"/>
<path d="M136.397 160.785C136.397 160.785 136.394 160.74 136.397 160.653C136.4 160.558 136.405 160.429 136.408 160.264C136.411 160.177 136.414 160.082 136.419 159.978C136.428 159.871 136.45 159.759 136.464 159.633C136.501 159.384 136.531 159.098 136.624 158.784C136.761 158.148 137.053 157.394 137.515 156.592C137.983 155.796 138.662 154.961 139.592 154.249C140.517 153.545 141.691 152.946 143.048 152.699C143.387 152.649 143.732 152.578 144.088 152.576C144.265 152.57 144.444 152.55 144.623 152.553C144.803 152.562 144.985 152.57 145.167 152.578C145.352 152.581 145.534 152.606 145.716 152.637C145.899 152.668 146.086 152.688 146.271 152.727C146.636 152.825 147.011 152.898 147.37 153.047C147.74 153.164 148.088 153.346 148.446 153.517C148.62 153.613 148.788 153.722 148.959 153.823C149.136 153.921 149.296 154.042 149.458 154.165C149.795 154.395 150.086 154.681 150.394 154.958C150.672 155.264 150.963 155.564 151.204 155.911C151.695 156.592 152.124 157.349 152.384 158.181C152.653 159.008 152.799 159.888 152.81 160.782C152.799 161.677 152.653 162.557 152.384 163.383C152.124 164.216 151.695 164.973 151.204 165.654C150.966 166.001 150.675 166.301 150.394 166.61C150.086 166.887 149.795 167.173 149.458 167.403C149.296 167.526 149.136 167.647 148.959 167.745C148.786 167.846 148.62 167.955 148.446 168.05C148.088 168.221 147.74 168.403 147.37 168.521C147.011 168.67 146.636 168.743 146.271 168.841C146.086 168.877 145.901 168.899 145.716 168.93C145.534 168.961 145.349 168.986 145.167 168.989C144.985 168.998 144.803 169.006 144.623 169.014C144.444 169.017 144.265 169 144.088 168.992C143.732 168.989 143.387 168.919 143.048 168.869C141.691 168.622 140.52 168.022 139.592 167.319C138.664 166.61 137.983 165.774 137.515 164.976C137.053 164.174 136.761 163.42 136.624 162.784C136.534 162.47 136.501 162.181 136.464 161.934C136.447 161.811 136.428 161.696 136.419 161.592C136.417 161.489 136.411 161.391 136.408 161.307C136.403 161.141 136.4 161.012 136.397 160.917C136.394 160.83 136.397 160.785 136.397 160.785C136.397 160.785 136.405 160.83 136.411 160.917C136.417 161.009 136.425 161.138 136.439 161.304C136.445 161.391 136.45 161.486 136.456 161.59C136.467 161.693 136.489 161.808 136.509 161.932C136.548 162.178 136.585 162.464 136.68 162.772C136.826 163.403 137.12 164.146 137.585 164.936C138.056 165.721 138.732 166.542 139.654 167.237C140.573 167.927 141.731 168.513 143.068 168.751C143.404 168.799 143.743 168.869 144.094 168.869C144.267 168.874 144.444 168.891 144.623 168.888C144.8 168.88 144.979 168.869 145.159 168.86C145.341 168.857 145.52 168.832 145.7 168.801C145.879 168.771 146.064 168.751 146.246 168.712C146.605 168.614 146.975 168.541 147.325 168.395C147.69 168.277 148.032 168.098 148.382 167.93C148.553 167.837 148.718 167.728 148.886 167.627C149.06 167.532 149.217 167.411 149.374 167.291C149.702 167.064 149.991 166.781 150.293 166.509C150.565 166.206 150.851 165.912 151.087 165.57C151.569 164.9 151.989 164.157 152.244 163.339C152.508 162.526 152.651 161.663 152.662 160.782C152.651 159.905 152.508 159.042 152.244 158.229C151.989 157.411 151.569 156.668 151.087 155.998C150.851 155.656 150.565 155.362 150.293 155.059C149.991 154.787 149.705 154.504 149.374 154.277C149.217 154.156 149.057 154.036 148.886 153.941C148.718 153.84 148.553 153.733 148.382 153.638C148.032 153.47 147.69 153.29 147.325 153.173C146.972 153.024 146.602 152.954 146.246 152.856C146.064 152.82 145.882 152.797 145.7 152.766C145.52 152.735 145.338 152.71 145.159 152.707C144.979 152.699 144.8 152.688 144.623 152.679C144.447 152.677 144.27 152.693 144.094 152.699C143.743 152.702 143.404 152.769 143.068 152.817C141.731 153.052 140.57 153.641 139.654 154.33C138.732 155.025 138.056 155.847 137.585 156.631C137.12 157.419 136.823 158.165 136.677 158.795C136.582 159.106 136.545 159.392 136.506 159.636C136.487 159.759 136.464 159.871 136.453 159.978C136.447 160.082 136.442 160.177 136.436 160.264C136.425 160.429 136.417 160.558 136.408 160.651C136.403 160.74 136.397 160.785 136.397 160.785Z" fill="#263238"/>
<path d="M142.336 157.784L141.218 164.174L144.565 163.714L147.911 164.174L146.563 157.784H142.336Z" fill="#263238"/>
<path d="M145.978 157.868C145.953 157.876 145.886 157.641 145.709 157.302C145.619 157.133 145.493 156.943 145.308 156.783C145.213 156.707 145.104 156.64 144.98 156.592C144.857 156.55 144.72 156.525 144.579 156.522C144.294 156.52 144.019 156.573 143.817 156.707C143.613 156.839 143.484 157.027 143.399 157.195C143.231 157.537 143.175 157.778 143.15 157.77C143.136 157.767 143.156 157.523 143.304 157.15C143.383 156.968 143.512 156.749 143.741 156.592C143.968 156.433 144.274 156.371 144.579 156.374C144.736 156.377 144.888 156.405 145.028 156.455C145.165 156.511 145.289 156.59 145.392 156.677C145.594 156.862 145.717 157.072 145.799 157.251C145.961 157.618 145.992 157.862 145.978 157.868Z" fill="#263238"/>
<path d="M111.961 157.612C111.921 157.612 111.888 151.987 111.888 145.047C111.888 138.107 111.921 132.482 111.961 132.482C112 132.482 112.033 138.107 112.033 145.047C112.033 151.987 112 157.612 111.961 157.612Z" fill="#263238"/>
<path d="M111.793 169.138C116.306 169.138 119.964 165.48 119.964 160.968C119.964 156.456 116.306 152.798 111.793 152.798C107.281 152.798 103.623 156.456 103.623 160.968C103.623 165.48 107.281 169.138 111.793 169.138Z" fill="white"/>
<path d="M103.624 160.967C103.624 160.967 103.621 160.922 103.624 160.835C103.626 160.74 103.632 160.611 103.635 160.446C103.638 160.359 103.64 160.264 103.646 160.16C103.654 160.053 103.677 159.941 103.691 159.815C103.727 159.566 103.758 159.28 103.851 158.966C103.988 158.33 104.279 157.576 104.742 156.774C105.21 155.978 105.888 155.143 106.819 154.431C107.744 153.727 108.918 153.127 110.275 152.881C110.614 152.83 110.959 152.76 111.315 152.757C111.491 152.752 111.671 152.732 111.85 152.735C112.029 152.743 112.212 152.752 112.394 152.76C112.579 152.763 112.761 152.788 112.943 152.819C113.125 152.85 113.313 152.87 113.498 152.909C113.862 153.007 114.238 153.08 114.597 153.228C114.967 153.346 115.314 153.528 115.673 153.699C115.847 153.795 116.015 153.904 116.186 154.005C116.363 154.103 116.522 154.223 116.685 154.347C117.021 154.577 117.313 154.862 117.621 155.14C117.899 155.445 118.19 155.745 118.431 156.093C118.922 156.774 119.35 157.531 119.611 158.363C119.88 159.19 120.026 160.07 120.037 160.964C120.026 161.858 119.88 162.738 119.611 163.565C119.35 164.398 118.922 165.154 118.431 165.836C118.193 166.183 117.901 166.483 117.621 166.791C117.313 167.069 117.021 167.355 116.685 167.585C116.522 167.708 116.363 167.828 116.186 167.927C116.012 168.027 115.847 168.137 115.673 168.232C115.314 168.403 114.967 168.585 114.597 168.703C114.238 168.851 113.862 168.924 113.498 169.022C113.313 169.059 113.128 169.081 112.943 169.112C112.761 169.143 112.576 169.168 112.394 169.171C112.212 169.179 112.029 169.188 111.85 169.199C111.671 169.202 111.491 169.185 111.315 169.177C110.959 169.174 110.614 169.104 110.275 169.053C108.918 168.807 107.747 168.207 106.819 167.503C105.891 166.794 105.21 165.959 104.742 165.16C104.279 164.358 103.988 163.605 103.851 162.968C103.761 162.654 103.727 162.366 103.691 162.119C103.674 161.996 103.654 161.881 103.646 161.777C103.643 161.673 103.638 161.575 103.635 161.491C103.629 161.326 103.626 161.197 103.624 161.102C103.621 161.012 103.624 160.967 103.624 160.967C103.624 160.967 103.632 161.012 103.638 161.099C103.643 161.191 103.652 161.32 103.666 161.486C103.671 161.572 103.677 161.668 103.682 161.771C103.694 161.875 103.716 161.99 103.736 162.113C103.775 162.36 103.811 162.646 103.907 162.954C104.052 163.585 104.347 164.328 104.812 165.118C105.283 165.903 105.958 166.724 106.881 167.419C107.8 168.109 108.957 168.695 110.294 168.933C110.631 168.98 110.97 169.05 111.32 169.05C111.494 169.056 111.671 169.073 111.85 169.07C112.027 169.062 112.206 169.05 112.385 169.042C112.568 169.039 112.747 169.014 112.926 168.983C113.106 168.952 113.291 168.933 113.473 168.894C113.832 168.795 114.202 168.723 114.555 168.577C114.919 168.459 115.261 168.28 115.611 168.112C115.782 168.019 115.948 167.91 116.116 167.809C116.29 167.714 116.447 167.593 116.604 167.472C116.934 167.245 117.22 166.962 117.523 166.69C117.795 166.388 118.081 166.093 118.316 165.752C118.798 165.082 119.219 164.339 119.474 163.52C119.737 162.708 119.88 161.844 119.891 160.964C119.88 160.087 119.737 159.224 119.474 158.411C119.219 157.592 118.798 156.85 118.316 156.18C118.081 155.838 117.795 155.543 117.523 155.241C117.22 154.969 116.934 154.686 116.604 154.459C116.447 154.338 116.287 154.218 116.116 154.122C115.948 154.022 115.782 153.915 115.611 153.82C115.261 153.652 114.919 153.472 114.555 153.354C114.202 153.206 113.832 153.136 113.476 153.038C113.293 153.001 113.111 152.979 112.929 152.948C112.75 152.917 112.568 152.892 112.388 152.889C112.209 152.881 112.029 152.87 111.853 152.861C111.676 152.858 111.5 152.875 111.323 152.881C110.973 152.884 110.634 152.951 110.297 152.998C108.96 153.234 107.8 153.823 106.883 154.512C105.961 155.207 105.286 156.028 104.815 156.813C104.35 157.601 104.052 158.346 103.907 158.977C103.811 159.288 103.775 159.574 103.736 159.818C103.716 159.941 103.694 160.053 103.682 160.16C103.677 160.264 103.671 160.359 103.666 160.446C103.654 160.611 103.646 160.74 103.638 160.832C103.632 160.922 103.624 160.967 103.624 160.967Z" fill="#263238"/>
<path d="M111.795 157.306L108.252 160.527V164.611H111.01V162.164H112.767V164.611H115.34V160.527L111.795 157.306Z" fill="#263238"/>
<path d="M80.3341 157.349C80.3004 157.326 83.818 151.766 88.1905 144.927C92.5657 138.088 96.1366 132.56 96.1702 132.583C96.2039 132.605 92.6863 138.166 88.3138 145.005C83.9413 151.844 80.3677 157.371 80.3341 157.349Z" fill="#263238"/>
<path d="M79.0116 169.034C83.524 169.034 87.1819 165.376 87.1819 160.864C87.1819 156.352 83.524 152.694 79.0116 152.694C74.4993 152.694 70.8413 156.352 70.8413 160.864C70.8413 165.376 74.4993 169.034 79.0116 169.034Z" fill="white"/>
<path d="M87.183 160.864C87.183 160.864 87.1746 160.819 87.169 160.732C87.1633 160.64 87.1549 160.511 87.1409 160.345C87.1353 160.258 87.1297 160.163 87.1241 160.059C87.1129 159.956 87.0905 159.841 87.0709 159.717C87.0316 159.471 86.9952 159.185 86.8999 158.877C86.7541 158.246 86.4598 157.503 85.9917 156.713C85.5209 155.928 84.8454 155.107 83.9232 154.412C83.0039 153.722 81.8463 153.136 80.5094 152.898C80.173 152.85 79.8339 152.783 79.4835 152.78C79.3097 152.775 79.1332 152.758 78.9538 152.761C78.7772 152.769 78.5978 152.78 78.4184 152.789C78.2362 152.792 78.0569 152.817 77.8775 152.848C77.6981 152.878 77.5131 152.898 77.3337 152.937C76.975 153.035 76.605 153.108 76.2546 153.254C75.8902 153.372 75.5483 153.551 75.1979 153.719C75.027 153.812 74.8616 153.921 74.6934 154.022C74.5196 154.117 74.3627 154.238 74.2057 154.358C73.8778 154.585 73.5891 154.869 73.2864 155.14C73.0145 155.443 72.7286 155.737 72.4932 156.079C72.0111 156.749 71.5907 157.492 71.3356 158.31C71.0721 159.123 70.9292 159.987 70.918 160.864C70.9292 161.744 71.0721 162.607 71.3356 163.42C71.5907 164.238 72.0111 164.981 72.4932 165.651C72.7286 165.993 73.0145 166.287 73.2864 166.59C73.5891 166.862 73.875 167.145 74.2057 167.372C74.3627 167.493 74.5225 167.613 74.6934 167.708C74.8616 167.809 75.027 167.916 75.1979 168.011C75.5483 168.179 75.8902 168.359 76.2546 168.476C76.6078 168.625 76.9778 168.695 77.3337 168.793C77.5159 168.83 77.6981 168.852 77.8803 168.883C78.0597 168.914 78.2418 168.939 78.4212 168.942C78.6006 168.95 78.78 168.961 78.9566 168.97C79.1332 168.972 79.3097 168.956 79.4863 168.95C79.8367 168.947 80.1758 168.88 80.5122 168.832C81.8491 168.594 83.0095 168.008 83.926 167.319C84.8482 166.624 85.5237 165.802 85.9946 165.018C86.4598 164.23 86.7569 163.484 86.8999 162.854C86.9952 162.543 87.0316 162.257 87.0709 162.013C87.0905 161.89 87.1129 161.778 87.1241 161.671C87.1297 161.567 87.1353 161.472 87.1409 161.385C87.1521 161.22 87.1605 161.091 87.169 160.998C87.1746 160.909 87.183 160.864 87.183 160.864C87.183 160.864 87.1858 160.909 87.183 160.996C87.1802 161.091 87.1746 161.22 87.1718 161.385C87.169 161.472 87.1661 161.567 87.1605 161.671C87.1521 161.778 87.1297 161.89 87.1157 162.013C87.0793 162.262 87.0484 162.548 86.9559 162.862C86.8186 163.499 86.5271 164.252 86.0646 165.054C85.5965 165.85 84.9183 166.685 83.9877 167.397C83.0628 168.101 81.8884 168.701 80.5318 168.947C80.1926 168.998 79.8479 169.068 79.4919 169.071C79.3153 169.076 79.136 169.096 78.9566 169.093C78.7772 169.085 78.595 169.076 78.4128 169.065C78.2278 169.062 78.0456 169.037 77.8635 169.006C77.6813 168.975 77.4935 168.956 77.3085 168.916C76.9441 168.818 76.5685 168.745 76.2098 168.597C75.8398 168.479 75.4922 168.297 75.1335 168.126C74.9597 168.031 74.7915 167.921 74.6206 167.821C74.444 167.722 74.2842 167.602 74.1216 167.479C73.7853 167.249 73.4938 166.963 73.1855 166.685C72.908 166.38 72.6165 166.08 72.3755 165.73C71.885 165.048 71.4561 164.292 71.1955 163.459C70.9264 162.632 70.7806 161.752 70.7694 160.858C70.7806 159.964 70.9264 159.084 71.1955 158.257C71.4561 157.425 71.885 156.668 72.3755 155.987C72.6137 155.639 72.9052 155.339 73.1855 155.034C73.4938 154.756 73.7853 154.47 74.1216 154.241C74.2842 154.117 74.444 153.997 74.6206 153.899C74.7943 153.798 74.9597 153.689 75.1335 153.593C75.4922 153.422 75.8398 153.24 76.2098 153.122C76.5685 152.974 76.9441 152.901 77.3085 152.803C77.4935 152.766 77.6785 152.744 77.8635 152.713C78.0456 152.682 78.2306 152.657 78.4128 152.654C78.595 152.646 78.7772 152.637 78.9566 152.629C79.136 152.626 79.3153 152.643 79.4919 152.651C79.8479 152.654 80.1926 152.724 80.5318 152.775C81.8884 153.021 83.06 153.621 83.9877 154.325C84.9155 155.034 85.5965 155.869 86.0646 156.668C86.5299 157.47 86.8186 158.224 86.9559 158.86C87.0456 159.174 87.0793 159.462 87.1157 159.709C87.1325 159.832 87.1521 159.947 87.1605 160.054C87.1633 160.158 87.169 160.256 87.1718 160.34C87.1774 160.505 87.1802 160.634 87.183 160.729C87.1858 160.819 87.183 160.864 87.183 160.864Z" fill="#263238"/>
<path d="M82.1739 156.609H75.7582V165.115H82.1739V156.609Z" fill="#263238"/>
<path d="M79.2765 157.968C79.2765 158.008 78.8056 158.041 78.2226 158.041C77.6396 158.041 77.1687 158.008 77.1687 157.968C77.1687 157.929 77.6396 157.895 78.2226 157.895C78.8056 157.895 79.2765 157.929 79.2765 157.968Z" fill="#455A64"/>
<path d="M81.1353 159.165C81.1353 159.204 80.1907 159.238 79.0276 159.238C77.8644 159.238 76.9198 159.204 76.9198 159.165C76.9198 159.126 77.8616 159.092 79.0276 159.092C80.1907 159.092 81.1353 159.126 81.1353 159.165Z" fill="#455A64"/>
<path d="M81.1353 159.894C81.1353 159.933 80.1907 159.967 79.0276 159.967C77.8644 159.967 76.9198 159.933 76.9198 159.894C76.9198 159.855 77.8616 159.821 79.0276 159.821C80.1907 159.818 81.1353 159.852 81.1353 159.894Z" fill="#455A64"/>
<path d="M81.1353 160.62C81.1353 160.659 80.1907 160.693 79.0276 160.693C77.8644 160.693 76.9198 160.659 76.9198 160.62C76.9198 160.58 77.8616 160.547 79.0276 160.547C80.1907 160.547 81.1353 160.58 81.1353 160.62Z" fill="#455A64"/>
<path d="M81.1353 161.346C81.1353 161.385 80.1907 161.419 79.0276 161.419C77.8644 161.419 76.9198 161.385 76.9198 161.346C76.9198 161.306 77.8616 161.273 79.0276 161.273C80.1907 161.273 81.1353 161.306 81.1353 161.346Z" fill="#455A64"/>
<path d="M81.1353 162.075C81.1353 162.114 80.1907 162.147 79.0276 162.147C77.8644 162.147 76.9198 162.114 76.9198 162.075C76.9198 162.035 77.8616 162.002 79.0276 162.002C80.1907 162.002 81.1353 162.035 81.1353 162.075Z" fill="#455A64"/>
<path d="M81.1353 162.8C81.1353 162.84 80.1907 162.873 79.0276 162.873C77.8644 162.873 76.9198 162.84 76.9198 162.8C76.9198 162.761 77.8616 162.727 79.0276 162.727C80.1907 162.727 81.1353 162.761 81.1353 162.8Z" fill="#455A64"/>
<path d="M81.1353 163.529C81.1353 163.569 80.1907 163.602 79.0276 163.602C77.8644 163.602 76.9198 163.569 76.9198 163.529C76.9198 163.49 77.8616 163.457 79.0276 163.457C80.1907 163.457 81.1353 163.49 81.1353 163.529Z" fill="#455A64"/>
<path d="M149.546 132.793H77.2128C73.5298 132.793 70.5448 129.808 70.5448 126.125V125.393C70.5448 121.71 73.5298 118.725 77.2128 118.725H149.546C153.229 118.725 156.214 121.71 156.214 125.393V126.125C156.214 129.808 153.229 132.793 149.546 132.793Z" fill="white"/>
<path d="M137.233 118.599V132.793H149.201C153.122 132.793 156.298 129.614 156.298 125.696C156.298 121.775 153.119 118.599 149.201 118.599H137.233Z" fill="#E8505B"/>
<path d="M148.371 125.301C148.352 125.303 148.368 125.034 148.251 124.575C148.133 124.126 147.833 123.468 147.158 122.957C146.824 122.708 146.404 122.498 145.919 122.414C145.437 122.332 144.896 122.349 144.38 122.545C144.119 122.635 143.87 122.772 143.64 122.946C143.407 123.114 143.197 123.325 143.023 123.568C142.665 124.048 142.46 124.662 142.454 125.298C142.46 125.931 142.662 126.548 143.023 127.027C143.197 127.271 143.407 127.481 143.64 127.649C143.87 127.823 144.119 127.958 144.38 128.05C144.896 128.246 145.439 128.263 145.919 128.182C146.404 128.098 146.824 127.888 147.158 127.638C147.833 127.131 148.133 126.469 148.251 126.021C148.368 125.567 148.352 125.301 148.371 125.301C148.371 125.301 148.408 125.57 148.304 126.038C148.2 126.5 147.909 127.184 147.219 127.722C146.877 127.986 146.443 128.21 145.938 128.302C145.439 128.392 144.87 128.381 144.33 128.176C144.058 128.084 143.794 127.941 143.553 127.762C143.309 127.585 143.088 127.366 142.903 127.111C142.524 126.61 142.309 125.962 142.303 125.298C142.309 124.634 142.524 123.986 142.903 123.484C143.085 123.229 143.309 123.011 143.553 122.834C143.794 122.655 144.058 122.512 144.33 122.419C144.87 122.217 145.437 122.203 145.938 122.293C146.443 122.386 146.877 122.61 147.219 122.873C147.909 123.412 148.203 124.095 148.307 124.558C148.408 125.034 148.371 125.301 148.371 125.301Z" fill="white"/>
<path d="M151.156 129.493C151.133 129.527 150.36 129.011 149.429 128.347C148.499 127.68 147.764 127.114 147.787 127.08C147.809 127.046 148.583 127.559 149.513 128.226C150.444 128.893 151.178 129.46 151.156 129.493Z" fill="white"/>
<path d="M131.06 124.44H78.6886V127.451H131.06V124.44Z" fill="#EBEBEB"/>
<path d="M149.546 132.794C149.546 132.794 149.712 132.78 150.031 132.763C150.191 132.763 150.39 132.727 150.623 132.69C150.858 132.665 151.124 132.587 151.427 132.508C152.021 132.323 152.747 132.023 153.482 131.477C153.574 131.409 153.667 131.339 153.759 131.267C153.849 131.191 153.936 131.107 154.028 131.023C154.216 130.863 154.384 130.672 154.561 130.476C154.743 130.286 154.886 130.053 155.06 129.834C155.132 129.714 155.205 129.593 155.281 129.47L155.393 129.285L155.488 129.086C155.766 128.562 155.948 127.956 156.077 127.314C156.102 127.152 156.128 126.987 156.153 126.821C156.161 126.653 156.17 126.482 156.181 126.311C156.195 125.966 156.192 125.61 156.181 125.252C156.161 123.817 155.62 122.247 154.496 120.991C153.389 119.736 151.671 118.833 149.759 118.785C147.848 118.766 145.819 118.783 143.694 118.78C126.681 118.785 103.182 118.794 77.2242 118.802C75.6154 118.805 74.0346 119.41 72.849 120.467C71.6606 121.515 70.8674 122.992 70.6852 124.548C70.6459 124.741 70.6515 124.938 70.6375 125.131C70.6235 125.324 70.6207 125.521 70.6235 125.72C70.6179 126.115 70.6347 126.502 70.6712 126.888C70.7496 127.662 70.9907 128.41 71.3354 129.097C72.0305 130.47 73.2021 131.58 74.5952 132.18C75.2903 132.48 76.033 132.654 76.7814 132.704C77.1542 132.732 77.5326 132.727 77.9109 132.727C78.2893 132.727 78.6649 132.727 79.0405 132.727C80.5428 132.727 82.0311 132.727 83.5026 132.727C86.4456 132.727 89.3298 132.73 92.1411 132.73C103.389 132.735 113.518 132.741 122.022 132.746C130.526 132.755 137.41 132.763 142.169 132.769C144.546 132.774 146.393 132.78 147.646 132.783C148.271 132.786 148.748 132.788 149.07 132.791C149.381 132.788 149.546 132.794 149.546 132.794C149.546 132.794 149.381 132.8 149.062 132.802C148.739 132.805 148.263 132.805 147.638 132.811C146.385 132.814 144.538 132.819 142.161 132.825C137.402 132.83 130.521 132.839 122.014 132.847C113.507 132.853 103.378 132.856 92.1326 132.864C89.3214 132.864 86.44 132.867 83.4942 132.867C82.0227 132.867 80.5344 132.867 79.0321 132.867C78.6565 132.867 78.2809 132.867 77.9025 132.867C77.5241 132.867 77.1486 132.873 76.7646 132.845C76.0022 132.794 75.2426 132.615 74.5307 132.309C73.1068 131.695 71.91 130.56 71.1981 129.159C70.8449 128.458 70.6011 127.693 70.5198 126.902C70.4834 126.507 70.4666 126.109 70.4722 125.717C70.4694 125.521 70.4722 125.322 70.4862 125.123C70.5002 124.924 70.4946 124.725 70.5338 124.526C70.7216 122.936 71.5316 121.426 72.7453 120.355C73.9533 119.276 75.5734 118.656 77.2158 118.654C103.17 118.662 126.669 118.67 143.686 118.676C145.813 118.682 147.837 118.668 149.754 118.693C151.693 118.746 153.431 119.665 154.549 120.938C155.682 122.21 156.226 123.802 156.242 125.252C156.254 125.616 156.254 125.966 156.24 126.314C156.231 126.488 156.22 126.659 156.212 126.83C156.186 126.998 156.161 127.163 156.136 127.328C156.007 127.976 155.819 128.587 155.536 129.114C155.502 129.181 155.472 129.248 155.438 129.313L155.323 129.501C155.247 129.624 155.172 129.747 155.099 129.868C154.925 130.089 154.779 130.322 154.594 130.513C154.418 130.709 154.247 130.899 154.056 131.059C153.964 131.14 153.877 131.224 153.784 131.303C153.689 131.373 153.594 131.443 153.501 131.513C152.758 132.057 152.03 132.357 151.43 132.536C151.124 132.612 150.858 132.69 150.623 132.713C150.387 132.749 150.191 132.78 150.028 132.78C149.712 132.791 149.546 132.794 149.546 132.794Z" fill="#263238"/>
<path d="M101.626 128.791C101.189 128.282 101.146 127.849 102.13 127.763C104.297 127.566 105.896 126.62 106.146 126.072C106.396 125.525 105.709 124.991 105.123 125.318C104.647 125.582 103.716 125.789 103.014 125.914C102.433 126.019 101.837 126.029 101.256 125.938C100.752 125.861 100.31 125.774 99.9113 125.688C99.9113 125.688 97.6201 125.193 96.6258 124.42L91.7744 129.603L94.0512 132.172C94.0512 132.172 95.1367 133.796 97.0869 133.604C99.037 133.412 101.664 132.009 101.664 132.009C102.02 131.466 105.161 133.402 106.175 134.127C107.174 134.848 107.933 134.67 107.894 133.974C107.87 133.498 104.825 131.197 103.807 130.506C103.25 130.131 102.154 129.406 101.626 128.791Z" fill="#FFBE9D"/>
<path d="M98.7786 133.292C98.7834 133.321 98.6393 133.383 98.3895 133.378C98.1398 133.373 97.7939 133.277 97.4865 133.042C97.1791 132.811 96.9918 132.499 96.9197 132.264C96.8429 132.024 96.8669 131.87 96.8957 131.865C96.9629 131.851 97.083 132.437 97.6402 132.84C98.1782 133.268 98.7738 133.224 98.7786 133.292Z" fill="#EB996E"/>
<path d="M100.698 132.537C100.703 132.566 100.559 132.619 100.318 132.605C100.083 132.59 99.7517 132.489 99.4635 132.264C99.1753 132.038 98.9928 131.745 98.9207 131.514C98.8487 131.289 98.8631 131.135 98.8919 131.13C98.9591 131.116 99.0888 131.668 99.6124 132.062C100.126 132.475 100.698 132.465 100.698 132.537Z" fill="#EB996E"/>
<path d="M105.931 78.6148C106.132 82.8706 111.325 88.7019 115.187 89.6434C117.219 90.1381 119.553 89.9075 121.162 91.2717C123.919 93.6109 122.305 98.4575 124.169 101.599C125.312 103.53 127.584 104.476 128.872 106.306C131.009 109.352 129.573 113.953 126.657 116.22C123.742 118.488 119.851 118.92 116.195 118.829C108.15 118.622 99.9121 116.062 94.1 110.36C91.3669 107.68 80.6794 99.4134 84.4068 79.8109" fill="#263238"/>
<path d="M134.961 109.069L104.378 99.9903C101.842 98.9143 99.9255 98.6501 99.9255 98.6501L89.5983 98.7174C88.1957 98.7174 86.8748 99.02 85.6355 99.5435L57.7952 108.79C55.7346 109.443 54.3128 111.557 54.3128 113.963C54.3128 116.932 56.4503 119.333 59.0873 119.333H71.9411C71.9027 119.453 71.8835 119.521 71.8835 119.521L116.593 119.689C116.593 119.684 116.593 119.679 116.593 119.67L133.66 119.708C136.297 119.708 138.434 117.278 138.434 114.285C138.444 111.864 137.022 109.727 134.961 109.069Z" fill="#E8505B"/>
<path d="M128.832 112.378C128.832 112.387 128.735 112.383 128.553 112.363C128.346 112.339 128.087 112.311 127.765 112.272C127.083 112.186 126.094 112.075 124.869 111.96C122.419 111.72 119.028 111.508 115.276 111.556C111.525 111.609 108.134 111.907 105.694 112.21C104.474 112.359 103.489 112.498 102.807 112.599C102.49 112.642 102.23 112.68 102.024 112.709C101.846 112.733 101.75 112.738 101.745 112.728C101.745 112.719 101.837 112.695 102.014 112.656C102.221 112.613 102.475 112.565 102.792 112.498C103.47 112.363 104.454 112.2 105.675 112.027C108.115 111.681 111.511 111.35 115.276 111.297C119.037 111.249 122.443 111.489 124.893 111.773C126.118 111.912 127.107 112.051 127.784 112.166C128.101 112.219 128.361 112.267 128.567 112.301C128.74 112.344 128.832 112.368 128.832 112.378Z" fill="#263238"/>
<g opacity="0.6">
<g opacity="0.6">
<path opacity="0.6" d="M121.657 104.947C121.662 104.952 121.633 104.986 121.571 105.048C121.499 105.12 121.412 105.216 121.302 105.332C121.062 105.577 120.706 105.937 120.221 106.379C119.736 106.821 119.131 107.344 118.362 107.877C117.594 108.396 116.652 108.939 115.504 109.237C114.366 109.559 113.021 109.525 111.681 109.16C110.336 108.8 109.01 108.122 107.656 107.383C106.296 106.662 104.894 105.822 103.299 105.341C101.723 104.818 99.9173 104.837 98.3178 105.596C96.7087 106.321 95.3397 107.426 93.8411 108.223C93.4712 108.43 93.0774 108.588 92.6979 108.761C92.304 108.9 91.9197 109.054 91.5259 109.15C90.7429 109.381 89.9456 109.496 89.1722 109.559C86.0452 109.784 83.2497 108.766 81.3475 107.407C80.3869 106.72 79.6567 105.942 78.9843 105.308C78.3166 104.664 77.7066 104.155 77.1542 103.814C76.0398 103.127 75.2617 103.156 75.2809 103.112C75.2809 103.112 75.4634 103.108 75.8044 103.175C76.1455 103.237 76.6402 103.396 77.207 103.732C77.7738 104.068 78.4031 104.573 79.0803 105.211C79.7624 105.841 80.4973 106.604 81.4484 107.267C83.3361 108.588 86.0837 109.568 89.153 109.333C89.9119 109.27 90.6949 109.155 91.4586 108.924C91.8477 108.828 92.2224 108.675 92.6066 108.54C92.9765 108.372 93.3608 108.214 93.721 108.012C95.1908 107.229 96.5598 106.115 98.2122 105.37C99.8549 104.582 101.762 104.568 103.366 105.106C104.999 105.605 106.407 106.456 107.761 107.181C109.111 107.925 110.418 108.598 111.729 108.963C113.035 109.328 114.332 109.366 115.451 109.069C116.575 108.79 117.507 108.266 118.271 107.762C119.04 107.248 119.65 106.734 120.144 106.307C120.634 105.879 121.004 105.529 121.254 105.293C121.369 105.183 121.465 105.096 121.542 105.029C121.619 104.971 121.653 104.942 121.657 104.947Z" fill="white"/>
</g>
</g>
<g opacity="0.2">
<path opacity="0.2" d="M74.1328 112.315L93.4664 115.961L91.2328 119.597L90.642 119.607L74.1328 112.315Z" fill="black"/>
</g>
<g opacity="0.6">
<g opacity="0.6">
<path opacity="0.6" d="M132.652 108.497C132.662 108.497 132.662 108.598 132.662 108.795C132.657 108.987 132.638 109.275 132.575 109.64C132.455 110.365 132.157 111.427 131.413 112.532C130.678 113.632 129.439 114.751 127.762 115.332C126.931 115.625 126.004 115.788 125.044 115.76C124.083 115.721 123.108 115.505 122.142 115.231C121.172 114.957 120.245 114.655 119.328 114.472C118.41 114.275 117.507 114.237 116.657 114.333C114.952 114.54 113.511 115.246 112.488 116.038C111.441 116.821 110.806 117.691 110.417 118.301C110.326 118.454 110.244 118.594 110.168 118.719C110.11 118.839 110.057 118.944 110.009 119.036C109.923 119.208 109.87 119.295 109.865 119.295C109.855 119.29 109.894 119.194 109.966 119.016C110.009 118.92 110.052 118.81 110.105 118.685C110.172 118.555 110.254 118.411 110.336 118.253C110.701 117.619 111.33 116.716 112.382 115.899C113.41 115.073 114.875 114.328 116.633 114.102C117.507 113.992 118.449 114.03 119.38 114.232C120.317 114.419 121.254 114.722 122.214 114.991C123.175 115.265 124.126 115.481 125.058 115.519C125.985 115.553 126.888 115.399 127.695 115.121C129.323 114.568 130.544 113.497 131.274 112.436C132.023 111.369 132.34 110.337 132.489 109.626C132.628 108.905 132.623 108.492 132.652 108.497Z" fill="white"/>
</g>
</g>
<path d="M57.8243 118.718C57.8243 118.718 92.7736 134.137 92.591 133.791C92.4085 133.441 98.1389 123.33 98.1389 123.33L69.8231 109.338L57.8243 118.718Z" fill="#E8505B"/>
<path d="M73.8665 111.326C73.8761 111.312 74.1306 111.418 74.587 111.629C75.0817 111.86 75.7302 112.167 76.5083 112.537C78.1271 113.31 80.3558 114.396 82.8103 115.611C85.2648 116.826 87.484 117.936 89.0835 118.752C89.8521 119.151 90.4861 119.478 90.9713 119.732C91.4132 119.968 91.6581 120.107 91.6485 120.121C91.6389 120.136 91.3843 120.03 90.928 119.819C90.4333 119.588 89.7848 119.281 89.0067 118.911C87.3879 118.138 85.1592 117.047 82.6999 115.837C80.2453 114.622 78.0262 113.512 76.4267 112.695C75.6581 112.297 75.0241 111.97 74.5389 111.715C74.1018 111.48 73.8617 111.341 73.8665 111.326Z" fill="#263238"/>
<g opacity="0.6">
<g opacity="0.6">
<path opacity="0.6" d="M81.5437 116.004C81.5437 116.004 81.5245 116.403 81.2171 117.042C80.9193 117.676 80.2468 118.512 79.1325 119.127C78.5801 119.429 77.9268 119.684 77.1919 119.818C76.457 119.953 75.6548 119.958 74.8286 119.847C73.1667 119.636 71.4519 118.939 69.7323 118.137C68.0127 117.33 66.3699 116.557 64.7752 116.182C63.9826 115.99 63.2093 115.899 62.484 115.918C61.7635 115.937 61.091 116.067 60.5098 116.254C59.333 116.629 58.5164 117.258 58.0697 117.782C57.6182 118.301 57.4645 118.666 57.4357 118.651C57.4357 118.651 57.5557 118.272 57.9928 117.719C58.4251 117.167 59.2513 116.494 60.4522 116.086C61.0478 115.884 61.7347 115.74 62.4792 115.711C63.2237 115.683 64.0163 115.769 64.828 115.961C66.4564 116.331 68.1183 117.109 69.8379 117.916C71.5527 118.718 73.2387 119.405 74.8623 119.626C75.6692 119.742 76.4474 119.742 77.1583 119.621C77.8692 119.501 78.508 119.261 79.0508 118.978C80.1412 118.401 80.8184 117.614 81.1307 117.004C81.4573 116.389 81.5149 115.995 81.5437 116.004Z" fill="white"/>
</g>
</g>
<g opacity="0.6">
<g opacity="0.6">
<path opacity="0.6" d="M96.3816 126.577C96.3768 126.625 95.6083 126.495 94.3594 126.476C93.735 126.461 92.9905 126.5 92.1739 126.586C91.3573 126.687 90.4639 126.85 89.5464 127.105C88.6338 127.369 87.7884 127.696 87.0391 128.037C86.2946 128.392 85.6413 128.748 85.1177 129.089C84.0658 129.761 83.4798 130.27 83.4462 130.237C83.4366 130.222 83.5758 130.088 83.8352 129.853C84.0946 129.612 84.4981 129.3 85.0169 128.94C85.5356 128.58 86.1841 128.195 86.9334 127.826C87.6875 127.465 88.5425 127.129 89.4744 126.86C90.4062 126.601 91.3141 126.442 92.1403 126.351C92.9712 126.274 93.7254 126.255 94.3546 126.293C94.9838 126.327 95.493 126.385 95.8389 126.452C96.1943 126.514 96.3864 126.557 96.3816 126.577Z" fill="white"/>
</g>
</g>
<g opacity="0.2">
<path opacity="0.2" d="M100.689 98.5873C100.112 100.206 100.977 101.945 101.822 103.443C102.408 104.486 103.004 105.538 103.849 106.383C104.695 107.229 105.833 107.848 107.029 107.81C108.6 107.757 110.002 106.599 111.568 106.691C112.635 106.753 113.571 107.382 114.455 107.978C115.987 109.015 117.563 110.024 119.302 110.663C121.04 111.297 122.976 111.537 124.749 111.004C126.521 110.471 128.087 109.073 128.519 107.272" fill="black"/>
</g>
<path d="M100.819 98.1407C100.901 96.2578 101.002 94.5574 101.002 94.5574C101.002 94.5574 105.205 94.029 105.387 89.7348C105.57 85.4406 105.142 75.5601 105.142 75.5601L97.4038 71.8423L89.0748 78.5526L90.3813 98.2656C90.5687 101.104 92.9944 103.276 95.838 103.141C98.5423 103.011 100.704 100.845 100.819 98.1407Z" fill="#FFBE9D"/>
<path d="M104.417 83.3171C104.422 83.6197 104.186 83.8694 103.893 83.8742C103.6 83.879 103.355 83.6389 103.35 83.3363C103.346 83.0337 103.581 82.7839 103.874 82.7791C104.167 82.7743 104.412 83.0144 104.417 83.3171Z" fill="#263238"/>
<path d="M104.935 82.174C104.868 82.2461 104.464 81.9098 103.888 81.8858C103.311 81.857 102.884 82.1548 102.821 82.0779C102.793 82.0443 102.86 81.9098 103.047 81.7753C103.23 81.6408 103.542 81.5111 103.902 81.5304C104.262 81.5448 104.56 81.6985 104.733 81.8522C104.911 82.0011 104.968 82.1404 104.935 82.174Z" fill="#263238"/>
<path d="M98.0387 83.3169C98.0435 83.6195 97.8081 83.8692 97.5151 83.874C97.2221 83.8788 96.9771 83.6387 96.9723 83.3361C96.9675 83.0335 97.2029 82.7837 97.4959 82.7789C97.7889 82.7741 98.0339 83.0142 98.0387 83.3169Z" fill="#263238"/>
<path d="M98.5563 82.2844C98.4891 82.3565 98.0856 82.0202 97.5092 81.9962C96.9328 81.9674 96.5053 82.2652 96.4429 82.1883C96.414 82.1547 96.4813 82.0202 96.6686 81.8857C96.8511 81.7512 97.1634 81.6215 97.5236 81.6408C97.8839 81.6552 98.1817 81.8089 98.3546 81.9626C98.5323 82.1115 98.59 82.2508 98.5563 82.2844Z" fill="#263238"/>
<path d="M100.718 87.237C100.718 87.2034 101.074 87.1505 101.655 87.0929C101.804 87.0833 101.943 87.0545 101.967 86.9488C102.005 86.8383 101.943 86.6654 101.876 86.4781C101.741 86.089 101.607 85.6855 101.458 85.2628C100.881 83.5288 100.464 82.107 100.531 82.083C100.598 82.059 101.117 83.4471 101.693 85.1763C101.832 85.6038 101.967 86.0121 102.092 86.4012C102.145 86.5837 102.236 86.7903 102.159 87.0208C102.116 87.1361 102.01 87.2178 101.914 87.2418C101.818 87.2706 101.736 87.2658 101.664 87.2706C101.083 87.285 100.723 87.2706 100.718 87.237Z" fill="#263238"/>
<path d="M98.8253 87.8275C98.2344 87.4385 100.449 88.7834 101.626 88.7642C101.626 88.7642 100.92 89.845 99.7283 89.355C98.489 88.8411 98.8253 87.8275 98.8253 87.8275Z" fill="white"/>
<path d="M101.002 94.5574C101.002 94.5574 98.1874 94.639 95.4351 92.7369C95.4351 92.7369 96.7416 95.8639 100.93 95.6141L101.002 94.5574Z" fill="#EB996E"/>
<path d="M84.5588 82.7792C84.5444 86.4922 83.5693 96.3151 90.3421 97.6792L90.0971 84.153C90.0971 84.153 96.6537 81.0596 97.7585 74.6231L97.7969 74.6615C98.2148 75.6318 98.9641 77.7213 98.5126 79.4217L104.651 80.9347L105.357 81.5832C105.357 81.5832 107.543 76.7942 103.326 72.4472C99.1082 68.1001 95.5009 71.2511 93.2433 70.9773C91.7399 70.7948 86.5234 70.8332 84.4003 79.8107L84.5588 82.7792Z" fill="#263238"/>
<path d="M90.2663 84.302C89.6947 83.9466 88.9117 84.2396 88.4602 84.7343C87.7445 85.5125 87.6196 86.7758 88.1672 87.6788C88.7148 88.5818 89.8916 89.0574 90.9147 88.7836" fill="#FFBE9D"/>
<path d="M90.1371 87.5011C90.1371 87.53 89.9449 87.5636 89.6471 87.4819C89.3637 87.4051 88.917 87.1793 88.7489 86.6846C88.6672 86.4444 88.6817 86.185 88.7729 85.9833C88.8642 85.7815 89.0083 85.6422 89.138 85.5558C89.407 85.3829 89.6135 85.3925 89.6183 85.4213C89.6279 85.4597 89.4502 85.5126 89.2485 85.6951C89.0419 85.868 88.8498 86.2234 88.9843 86.6029C89.1092 86.9824 89.455 87.2033 89.7048 87.3138C89.9593 87.4291 90.1371 87.4627 90.1371 87.5011Z" fill="#EB996E"/>
<path d="M89.5751 88.3464C89.2628 88.4184 89.1043 88.8507 89.2917 89.1053C89.479 89.3647 89.9353 89.3455 90.1034 89.0717C90.2715 88.7979 90.0746 88.3848 89.7624 88.3367" fill="#E8505B"/>
<path d="M102.014 119.712V112.656C102.014 112.656 91.5382 114.827 91.346 119.626L102.014 119.712Z" fill="#FFBE9D"/>
<path d="M100.924 97.3958C101.097 99.5429 102.092 101.618 103.662 103.093C105.233 104.567 107.366 105.437 109.518 105.47C111.064 105.499 112.693 105.129 114.105 105.763C115.335 106.311 116.122 107.502 117.088 108.439C119.355 110.634 122.881 111.431 125.873 110.423C127.141 109.995 129.159 109.087 129.394 107.766C129.572 106.762 128.347 105.763 127.626 105.048C126.901 104.327 125.969 103.866 125.047 103.434C117.583 99.9272 109.575 97.3814 101.342 96.9443" fill="#263238"/>
<path d="M178.661 76.5913H131.404V107.321H178.661V76.5913Z" fill="#F5F5F5"/>
<path d="M161.286 92.157C162.111 88.7033 159.979 85.2348 156.526 84.4099C153.072 83.585 149.604 85.7161 148.779 89.1698C147.954 92.6235 150.085 96.092 153.539 96.9169C156.992 97.7418 160.461 95.6107 161.286 92.157Z" fill="#E0E0E0"/>
<path d="M157.195 90.6594L155.517 91.6276L153.835 92.5983V90.6594V88.7205L155.517 89.6887L157.195 90.6594Z" fill="#F5F5F5"/>
<path d="M178.661 101.802H131.405V107.323H178.661V101.802Z" fill="#E0E0E0"/>
<path d="M135.996 104.562L135.316 104.957L134.633 105.35V104.562V103.776L135.316 104.169L135.996 104.562Z" fill="#F5F5F5"/>
<path d="M174.772 104.436H139.914V104.686H174.772V104.436Z" fill="#F5F5F5"/>
<path d="M140.62 104.562C140.62 104.849 140.387 105.082 140.099 105.082C139.812 105.082 139.579 104.849 139.579 104.562C139.579 104.274 139.812 104.041 140.099 104.041C140.387 104.041 140.62 104.276 140.62 104.562Z" fill="#F5F5F5"/>
<path d="M65.402 34.5832L51.5358 37.5777L55.6336 56.5526L69.4998 53.5581L65.402 34.5832Z" fill="#F5F5F5"/>
<path d="M63.6534 38.0084L49.7872 41.0029L53.885 59.9778L67.7512 56.9833L63.6534 38.0084Z" fill="white"/>
<path d="M67.7462 56.9807C67.7462 56.9807 67.7362 56.9482 67.7237 56.8882C67.7086 56.8231 67.6886 56.7356 67.6636 56.6205C67.6111 56.3803 67.5335 56.0351 67.4334 55.5847C67.2333 54.6791 66.9431 53.3606 66.5753 51.6919C65.8473 48.3545 64.814 43.621 63.5931 38.0194L63.6632 38.0645C59.4877 38.9676 54.7742 39.9884 49.8006 41.0642H49.7981L49.8481 40.9866C51.3743 48.0743 52.7878 54.6365 53.9336 59.9629L53.8711 59.9229C58.0691 59.0272 61.5291 58.2892 63.9459 57.7763C65.1543 57.5211 66.1 57.321 66.7505 57.1859C67.0707 57.1183 67.3184 57.0683 67.4885 57.0333C67.6586 56.9958 67.7462 56.9807 67.7462 56.9807C67.7462 56.9807 67.6661 57.0033 67.501 57.0383C67.3334 57.0758 67.0907 57.1309 66.773 57.2009C66.1275 57.3435 65.1868 57.5512 63.9859 57.8164C61.5642 58.3467 58.0966 59.1048 53.8886 60.0255L53.836 60.038L53.8235 59.9854C52.6702 54.6616 51.2492 48.1018 49.713 41.0141L49.698 40.9516L49.7606 40.9366H49.7631C54.7367 39.8658 59.4526 38.8475 63.6282 37.9494L63.6857 37.9369L63.6982 37.9944C64.8991 43.616 65.9148 48.367 66.6329 51.7169C66.9856 53.3831 67.2633 54.6991 67.456 55.6047C67.5485 56.0501 67.6211 56.3953 67.6711 56.6305C67.6936 56.7431 67.7111 56.8306 67.7237 56.8932C67.7437 56.9532 67.7462 56.9807 67.7462 56.9807Z" fill="#263238"/>
<path d="M59.0868 42.9828C59.0943 43.0179 57.5932 43.3731 55.7319 43.7734C53.8705 44.1762 52.3569 44.4714 52.3494 44.4364C52.3419 44.4014 53.843 44.0461 55.7043 43.6458C57.5657 43.2455 59.0793 42.9478 59.0868 42.9828Z" fill="#263238"/>
<path d="M63.0875 43.8462C63.095 43.8812 60.7758 44.4116 57.9112 45.032C55.0441 45.6525 52.7149 46.1253 52.7074 46.0903C52.6999 46.0553 55.0166 45.5249 57.8862 44.9044C60.7483 44.284 63.08 43.8111 63.0875 43.8462Z" fill="#263238"/>
<path d="M63.4587 45.565C63.4662 45.6 61.1471 46.1304 58.2825 46.7509C55.4154 47.3713 53.0862 47.8442 53.0787 47.8091C53.0712 47.7741 55.3879 47.2437 58.2574 46.6233C61.122 46.0053 63.4512 45.53 63.4587 45.565Z" fill="#263238"/>
<path d="M63.8317 47.2864C63.8392 47.3214 61.52 47.8518 58.6554 48.4722C55.7883 49.0927 53.4591 49.5655 53.4491 49.5305C53.4416 49.4955 55.7583 48.9651 58.6254 48.3446C61.4925 47.7242 63.8242 47.2513 63.8317 47.2864Z" fill="#263238"/>
<path d="M64.2013 49.0048C64.2088 49.0398 61.8896 49.5702 59.025 50.1907C56.1579 50.8111 53.8287 51.284 53.8187 51.2489C53.8112 51.2139 56.1279 50.6835 58.995 50.0631C61.8646 49.4451 64.1938 48.9698 64.2013 49.0048Z" fill="#263238"/>
<path d="M64.5734 50.7263C64.5809 50.7614 62.2617 51.2918 59.3971 51.9122C56.53 52.5327 54.2008 53.0055 54.1908 52.9705C54.1833 52.9355 56.5 52.4051 59.3671 51.7846C62.2342 51.1642 64.5659 50.6913 64.5734 50.7263Z" fill="#263238"/>
<path d="M64.9438 52.4448C64.9513 52.4798 62.6321 53.0102 59.7675 53.6306C56.9005 54.2511 54.5713 54.7239 54.5613 54.6889C54.5537 54.6539 56.8704 54.1235 59.7375 53.5031C62.6071 52.8851 64.9363 52.4098 64.9438 52.4448Z" fill="#263238"/>
<path d="M60.5166 55.2021C60.5241 55.2371 59.2807 55.5348 57.7396 55.8676C56.1984 56.2003 54.9425 56.4405 54.935 56.4055C54.9275 56.3704 56.1709 56.0727 57.712 55.74C59.2532 55.4097 60.5091 55.1671 60.5166 55.2021Z" fill="#263238"/>
<defs>
<filter id="filter0_d" x="0" y="0.642334" width="211.358" height="211.358" filterUnits="userSpaceOnUse" color-interpolation-filters="sRGB">
<feFlood flood-opacity="0" result="BackgroundImageFix"/>
<feColorMatrix in="SourceAlpha" type="matrix" values="0 0 0 0 0 0 0 0 0 0 0 0 0 0 0 0 0 0 127 0" result="hardAlpha"/>
<feOffset dy="6"/>
<feGaussianBlur stdDeviation="5"/>
<feColorMatrix type="matrix" values="0 0 0 0 0 0 0 0 0 0 0 0 0 0 0 0 0 0 0.15 0"/>
<feBlend mode="normal" in2="BackgroundImageFix" result="effect1_dropShadow"/>
<feBlend mode="normal" in="SourceGraphic" in2="effect1_dropShadow" result="shape"/>
</filter>
</defs>
</svg>
