<svg width="212" height="212" viewBox="0 0 212 212" fill="none" xmlns="http://www.w3.org/2000/svg">
<g filter="url(#filter0_d)">
<circle cx="105.679" cy="100.321" r="95.6788" fill="#F8F9FA"/>
</g>
<path d="M94.9785 52.0384H41.2899V100.07H94.9785V52.0384Z" fill="#FAFAFA"/>
<path d="M94.9781 100.07C94.9781 100.07 94.9688 99.7609 94.9657 99.1794C94.9626 98.5887 94.9564 97.7289 94.9502 96.6062C94.9441 94.3515 94.9317 91.0545 94.9193 86.8545C94.9038 78.4605 94.8822 66.4696 94.8575 52.0384L94.9781 52.159C79.517 52.1652 61.0651 52.1714 41.2957 52.1807H41.2895L41.4318 52.0384C41.4256 69.5129 41.4194 85.9575 41.4132 100.07L41.2864 99.9434C57.3042 99.9712 70.7086 99.9928 80.117 100.008C84.8243 100.024 88.5326 100.033 91.0687 100.042C92.3337 100.049 93.3049 100.055 93.9667 100.058C94.2915 100.061 94.5389 100.064 94.7152 100.064C94.8884 100.067 94.9781 100.07 94.9781 100.07C94.9781 100.07 94.8977 100.076 94.7337 100.076C94.5636 100.079 94.3193 100.079 94.0007 100.083C93.342 100.086 92.3801 100.092 91.1275 100.098C88.5975 100.107 84.8985 100.117 80.2036 100.132C70.7735 100.147 57.3413 100.169 41.2895 100.197H41.1627V100.07C41.1565 85.9575 41.1503 69.5129 41.1441 52.0384V51.8961H41.2864H41.2926C61.062 51.9054 79.5139 51.9116 94.975 51.9178H95.0956V52.0384C95.0709 66.5036 95.0492 78.5224 95.0337 86.9318C95.0214 91.1195 95.009 94.4072 95.0028 96.6557C94.9966 97.7691 94.9935 98.6227 94.9874 99.2073C94.9874 99.7825 94.9781 100.07 94.9781 100.07Z" fill="#E0E0E0"/>
<path d="M61.876 60.5716C61.876 60.652 59.0492 60.7138 55.5635 60.7138C52.0779 60.7138 49.251 60.6489 49.251 60.5716C49.251 60.4912 52.0748 60.4293 55.5635 60.4293C59.0492 60.4293 61.876 60.4943 61.876 60.5716Z" fill="#E0E0E0"/>
<path d="M84.6242 64.1808C84.6242 64.2612 76.8611 64.323 67.2857 64.323C57.7072 64.323 49.9473 64.2581 49.9473 64.1808C49.9473 64.1004 57.7103 64.0385 67.2857 64.0385C76.8611 64.0354 84.6242 64.1004 84.6242 64.1808Z" fill="#E0E0E0"/>
<path d="M51.6087 70.2895H49.3478V72.5504H51.6087V70.2895Z" fill="#E0E0E0"/>
<path d="M57.1743 70.2893H54.9135V72.5502H57.1743V70.2893Z" fill="#E0E0E0"/>
<path d="M62.8442 70.1872H60.5833V72.4481H62.8442V70.1872Z" fill="#E0E0E0"/>
<path d="M68.309 70.2893H66.0481V72.5502H68.309V70.2893Z" fill="#E0E0E0"/>
<path d="M73.8804 70.2895H71.6195V72.5504H73.8804V70.2895Z" fill="#E0E0E0"/>
<path d="M79.4453 70.2893H77.1844V72.5502H79.4453V70.2893Z" fill="#E0E0E0"/>
<path d="M85.0142 70.2895H82.7534V72.5504H85.0142V70.2895Z" fill="#EBEBEB"/>
<path d="M51.6087 75.0986H49.3478V77.3595H51.6087V75.0986Z" fill="#EBEBEB"/>
<path d="M57.1743 75.0986H54.9135V77.3595H57.1743V75.0986Z" fill="#E0E0E0"/>
<path d="M62.7408 75.0986H60.4799V77.3595H62.7408V75.0986Z" fill="#EBEBEB"/>
<path d="M68.309 75.0986H66.0481V77.3595H68.309V75.0986Z" fill="#E0E0E0"/>
<path d="M73.8804 75.0986H71.6195V77.3595H73.8804V75.0986Z" fill="#E0E0E0"/>
<path d="M79.5486 74.9934H77.2878V77.2542H79.5486V74.9934Z" fill="#E0E0E0"/>
<path d="M85.0142 75.0986H82.7534V77.3595H85.0142V75.0986Z" fill="#E0E0E0"/>
<path d="M51.6087 79.9052H49.3478V82.1661H51.6087V79.9052Z" fill="#E0E0E0"/>
<path d="M57.2769 79.8029H55.016V82.0637H57.2769V79.8029Z" fill="#E0E0E0"/>
<path d="M62.7408 79.9052H60.4799V82.1661H62.7408V79.9052Z" fill="#E0E0E0"/>
<path d="M68.309 79.9048H66.0481V82.1656H68.309V79.9048Z" fill="#EBEBEB"/>
<path d="M73.8804 79.9052H71.6195V82.1661H73.8804V79.9052Z" fill="#E0E0E0"/>
<path d="M79.4453 79.9048H77.1844V82.1656H79.4453V79.9048Z" fill="#E0E0E0"/>
<path d="M85.0142 79.9052H82.7534V82.1661H85.0142V79.9052Z" fill="#E0E0E0"/>
<path d="M51.6087 84.7143H49.3478V86.9751H51.6087V84.7143Z" fill="#E0E0E0"/>
<path d="M57.1743 84.7143H54.9135V86.9751H57.1743V84.7143Z" fill="#E0E0E0"/>
<path d="M62.7408 84.7143H60.4799V86.9751H62.7408V84.7143Z" fill="#E0E0E0"/>
<path d="M68.4148 84.6122H66.1539V86.873H68.4148V84.6122Z" fill="#E0E0E0"/>
<path d="M73.8804 84.7143H71.6195V86.9751H73.8804V84.7143Z" fill="#E0E0E0"/>
<path d="M79.4453 84.7143H77.1844V86.9751H79.4453V84.7143Z" fill="#EBEBEB"/>
<path d="M85.0142 84.7143H82.7534V86.9751H85.0142V84.7143Z" fill="#E0E0E0"/>
<path d="M51.6087 89.5238H49.3478V91.7846H51.6087V89.5238Z" fill="#E0E0E0"/>
<path d="M57.1743 89.5238H54.9135V91.7846H57.1743V89.5238Z" fill="#EBEBEB"/>
<path d="M62.7408 89.5238H60.4799V91.7846H62.7408V89.5238Z" fill="#E0E0E0"/>
<path d="M68.309 89.5238H66.0481V91.7846H68.309V89.5238Z" fill="#E0E0E0"/>
<path d="M73.8804 89.5238H71.6195V91.7846H73.8804V89.5238Z" fill="#E0E0E0"/>
<path d="M79.5486 89.4217H77.2878V91.6825H79.5486V89.4217Z" fill="#E0E0E0"/>
<path d="M85.0142 89.5238H82.7534V91.7846H85.0142V89.5238Z" fill="#E0E0E0"/>
<path d="M155.607 40.6112L152.155 40.6297L152.247 57.798L155.699 57.7795L155.607 40.6112Z" fill="#E0E0E0"/>
<path d="M131.2 40.6548L122.265 40.7026L122.316 50.179L131.251 50.1312L131.2 40.6548Z" fill="#EBEBEB"/>
<path d="M140.095 40.6067L131.16 40.6545L131.211 50.131L140.146 50.0831L140.095 40.6067Z" fill="#F5F5F5"/>
<path d="M122.279 43.3199C128.217 43.3693 134.168 43.3353 140.106 43.2364C140.227 43.2333 140.227 43.0477 140.106 43.0477C134.168 43.0137 128.217 43.0446 122.279 43.1559C122.174 43.159 122.174 43.3199 122.279 43.3199Z" fill="#E0E0E0"/>
<path d="M132.931 49.9722L116.697 50.0592L116.738 57.782L132.973 57.695L132.931 49.9722Z" fill="#EBEBEB"/>
<path d="M149.088 49.8853L132.854 49.9723L132.895 57.6951L149.129 57.6082L149.088 49.8853Z" fill="#F5F5F5"/>
<path d="M116.707 52.2083C127.492 52.3289 138.313 52.2206 149.095 52.0474C149.216 52.0443 149.216 51.8588 149.095 51.8588C138.31 51.8031 127.488 51.8093 116.707 52.0443C116.602 52.0474 116.602 52.2083 116.707 52.2083Z" fill="#E0E0E0"/>
<path d="M173.527 57.7849H110.635V60.553H173.527V57.7849Z" fill="#E0E0E0"/>
<path d="M123.483 59.1151H120.932V68.5575H123.483V59.1151Z" fill="#E0E0E0"/>
<path d="M161.599 59.1151H159.044V68.5575H161.599V59.1151Z" fill="#E0E0E0"/>
<path d="M158.976 34.2089L155.525 34.2274L155.651 57.8381L159.103 57.8196L158.976 34.2089Z" fill="#EBEBEB"/>
<path d="M164.363 38.6024L159.003 38.6312L159.106 57.7666L164.466 57.7378L164.363 38.6024Z" fill="#F5F5F5"/>
<path d="M164.325 42.29C164.325 42.3426 163.125 42.3828 161.644 42.3828C160.162 42.3828 158.962 42.3426 158.962 42.29C158.962 42.2374 160.162 42.1972 161.644 42.1972C163.125 42.1972 164.325 42.2374 164.325 42.29Z" fill="#E0E0E0"/>
<path d="M164.325 41.4859C164.325 41.5384 163.125 41.5787 161.644 41.5787C160.162 41.5787 158.962 41.5384 158.962 41.4859C158.962 41.4333 160.162 41.3931 161.644 41.3931C163.125 41.3931 164.325 41.4333 164.325 41.4859Z" fill="#E0E0E0"/>
<path d="M164.325 54.8595C164.325 54.912 163.125 54.9522 161.644 54.9522C160.162 54.9522 158.962 54.912 158.962 54.8595C158.962 54.8069 160.162 54.7667 161.644 54.7667C163.125 54.7667 164.325 54.8069 164.325 54.8595Z" fill="#E0E0E0"/>
<path d="M164.325 54.0553C164.325 54.1079 163.125 54.1481 161.644 54.1481C160.162 54.1481 158.962 54.1079 158.962 54.0553C158.962 54.0027 160.162 53.9625 161.644 53.9625C163.125 53.9625 164.325 54.0027 164.325 54.0553Z" fill="#E0E0E0"/>
<path d="M161.73 52.3016C161.677 52.3016 161.637 50.3717 161.637 47.9902C161.637 45.6087 161.677 43.6788 161.73 43.6788C161.783 43.6788 161.823 45.6087 161.823 47.9902C161.823 50.3717 161.783 52.3016 161.73 52.3016Z" fill="#E0E0E0"/>
<path d="M170.221 43.301H164.384V57.7446H170.221V43.301Z" fill="#EBEBEB"/>
<path d="M158.187 38.2382C158.187 38.7857 157.742 39.231 157.195 39.231C156.647 39.231 156.202 38.7857 156.202 38.2382C156.202 37.6908 156.647 37.2454 157.195 37.2454C157.745 37.2454 158.187 37.6908 158.187 38.2382Z" fill="#E0E0E0"/>
<path d="M157.5 40.9657H156.888V55.0134H157.5V40.9657Z" fill="#E0E0E0"/>
<path d="M51.5297 130.594C53.1472 129.759 55.0555 129.65 56.8525 129.947C57.8174 130.108 58.8257 130.396 59.4814 131.12C60.1371 131.843 60.2639 133.121 59.5092 133.745C59.0608 134.116 58.4329 134.172 57.8515 134.166C56.4442 134.151 54.8854 133.903 53.7596 134.747C53.1194 135.23 52.6926 136.034 51.9256 136.269C51.1771 136.501 50.3297 136.059 49.9307 135.381C49.5317 134.704 49.5193 133.86 49.7049 133.096C49.7049 133.099 49.8998 131.435 51.5297 130.594Z" fill="#E8505B"/>
<path d="M47.8203 123.437C48.81 124.85 50.7338 124.383 51.6245 123.52C52.5152 122.657 52.8926 121.408 53.2359 120.214C54.0215 117.489 54.8101 114.631 54.2287 111.857C54.0555 111.028 53.7431 110.199 53.1616 109.584C52.5802 108.968 51.6833 108.603 50.8637 108.82C49.8925 109.077 49.2925 110.026 48.8564 110.929C47.576 113.586 46.8986 116.53 46.8863 119.478C46.8832 120.854 47.044 122.299 47.8203 123.437Z" fill="#E8505B"/>
<path d="M45.1051 125.466C46.1784 124.192 46.3825 122.33 45.9062 120.734C45.4268 119.135 44.3474 117.777 43.1041 116.667C41.6443 115.365 39.9277 114.353 38.0844 113.704C37.3576 113.447 36.5937 113.246 35.8266 113.32C35.0596 113.395 34.2895 113.784 33.9307 114.468C33.4018 115.476 33.9091 116.698 34.4565 117.694C35.4215 119.45 36.5256 121.13 37.7535 122.713C38.7432 123.988 39.8752 125.243 41.3814 125.822C42.8876 126.397 44.4526 126.329 45.2505 125.287" fill="#E8505B"/>
<path d="M47.7552 144.759C47.7737 144.759 47.8047 144.53 47.8449 144.116C47.8913 143.649 47.9469 143.061 48.015 142.362C48.0954 141.626 48.2036 140.748 48.4078 139.792C48.6119 138.839 48.9304 137.806 49.3418 136.758C49.7655 135.716 50.2851 134.769 50.8913 134.011C51.4944 133.251 52.1934 132.7 52.8491 132.382C53.5048 132.057 54.0924 131.927 54.4976 131.868C54.9089 131.825 55.1378 131.794 55.1378 131.775C55.1378 131.757 54.9089 131.754 54.4883 131.766C54.0707 131.794 53.4584 131.899 52.7687 132.214C52.0759 132.521 51.3336 133.08 50.7026 133.857C50.0655 134.63 49.5305 135.598 49.0975 136.659C48.6799 137.726 48.3645 138.768 48.1696 139.742C47.9748 140.714 47.8851 141.601 47.8263 142.347C47.7706 143.092 47.749 143.695 47.7397 144.11C47.7304 144.527 47.7366 144.759 47.7552 144.759Z" fill="#263238"/>
<path d="M47.8755 143.41C47.8848 143.41 47.891 143.308 47.894 143.114C47.894 142.891 47.894 142.606 47.891 142.26C47.8879 141.521 47.8879 140.451 47.9281 139.127C47.993 136.483 48.2219 133.637 48.6611 129.629C49.0786 125.859 49.6353 121.467 50.2261 118.615C50.3529 117.966 50.4797 117.381 50.6003 116.871C50.7147 116.357 50.8137 115.915 50.9065 115.559C50.9869 115.222 51.0518 114.95 51.1044 114.731C51.1477 114.539 51.1663 114.44 51.157 114.437C51.1477 114.434 51.1137 114.53 51.0549 114.715C50.99 114.929 50.9096 115.201 50.8075 115.532C50.6962 115.887 50.5848 116.327 50.458 116.837C50.325 117.347 50.1828 117.929 50.0467 118.578C49.4621 121.164 48.8466 124.779 48.4013 128.8C47.9621 132.821 47.7611 136.479 47.7456 139.13C47.7301 140.454 47.758 141.527 47.792 142.269C47.8136 142.616 47.8291 142.897 47.8446 143.12C47.8538 143.308 47.8662 143.41 47.8755 143.41Z" fill="#263238"/>
<path d="M47.8921 136.353C47.9107 136.353 47.9076 136.037 47.8859 135.462C47.8519 134.89 47.7746 134.064 47.6138 133.049C47.4437 132.038 47.2055 130.838 46.8282 129.536C46.6643 128.939 46.2839 127.51 45.3591 125.376C44.1405 122.484 42.4828 120.121 41.0446 118.655C40.7075 118.266 40.3301 117.987 40.0301 117.712C39.8755 117.579 39.7363 117.449 39.5971 117.344C39.4549 117.248 39.325 117.155 39.2043 117.072C38.7311 116.747 38.4652 116.577 38.4559 116.593C38.4126 116.651 39.5167 117.301 40.9116 118.785C42.3003 120.267 43.9116 122.614 45.1209 125.481C45.7952 127.037 46.2653 128.423 46.5993 129.601C46.9859 130.894 47.2395 132.081 47.4344 133.08C47.6169 134.083 47.7251 134.902 47.7901 135.468C47.8365 136.037 47.8767 136.353 47.8921 136.353Z" fill="#263238"/>
<path d="M41.0692 148.804L41.7775 158.494H54.2261L54.9344 148.804H41.0692Z" fill="#263238"/>
<path d="M56.4192 144.985H39.8694V148.804H56.4192V144.985Z" fill="#263238"/>
<path d="M39.8694 158.123V159.181H40.6457H56.147V158.123H39.8694Z" fill="#455A64"/>
<path d="M41.409 161.046L40.645 159.181H55.5525L54.6618 161.046H41.409Z" fill="#455A64"/>
<path d="M54.7021 151.971C54.7052 151.974 54.6866 152.005 54.6433 152.061C54.5938 152.126 54.532 152.206 54.4578 152.308C54.2815 152.534 54.0371 152.847 53.734 153.236L53.7031 153.276L53.6722 153.233C53.2175 152.602 52.6082 151.761 51.8907 150.768H51.9928C51.4639 151.52 50.8732 152.355 50.2391 153.252L50.1835 153.329L50.1216 153.255C49.4752 152.485 48.77 151.65 48.0401 150.781H48.1607C48.1236 150.827 48.0865 150.876 48.0463 150.923C47.3999 151.733 46.7782 152.516 46.1875 153.255L46.1257 153.332L46.0669 153.252C45.436 152.358 44.8452 151.523 44.3133 150.768L44.4153 150.774C43.5493 151.761 42.8163 152.596 42.2534 153.236L42.2163 153.28L42.1885 153.23C41.9039 152.751 41.6751 152.37 41.5111 152.092C41.44 151.968 41.3843 151.869 41.3379 151.789C41.3008 151.721 41.2823 151.684 41.2854 151.681C41.2885 151.677 41.3132 151.711 41.3565 151.776C41.406 151.854 41.4709 151.95 41.5483 152.067C41.7215 152.339 41.9596 152.714 42.2596 153.184L42.1916 153.177C42.7452 152.528 43.4658 151.684 44.3194 150.685L44.372 150.623L44.4215 150.691C44.9597 151.442 45.5535 152.274 46.1906 153.162L46.07 153.159C46.6576 152.417 47.2824 151.634 47.9257 150.824C47.9659 150.774 48.003 150.725 48.0401 150.682L48.0989 150.607L48.1607 150.682C48.8876 151.551 49.5896 152.389 50.236 153.162L50.1185 153.165C50.7587 152.271 51.3556 151.439 51.8907 150.694L51.9433 150.623L51.9928 150.694C52.6948 151.696 53.2918 152.547 53.7371 153.184L53.6753 153.181C53.9938 152.8 54.2444 152.497 54.4299 152.277C54.5103 152.182 54.5784 152.104 54.631 152.042C54.6743 151.993 54.699 151.968 54.7021 151.971Z" fill="#E0E0E0"/>
<path d="M55.1083 148.739C55.1083 148.783 51.9876 148.817 48.1432 148.817C44.2957 148.817 41.175 148.783 41.175 148.739C41.175 148.696 44.2926 148.662 48.1432 148.662C51.9876 148.662 55.1083 148.696 55.1083 148.739Z" fill="#455A64"/>
<path d="M55.7355 159.286C55.7355 159.329 52.3457 159.363 48.1642 159.363C43.9827 159.363 40.5929 159.329 40.5929 159.286C40.5929 159.243 43.9827 159.209 48.1642 159.209C52.3457 159.209 55.7355 159.243 55.7355 159.286Z" fill="#263238"/>
<path d="M174.466 161.222H136.183V124.844C136.183 122.261 138.277 120.164 140.862 120.164H169.789C172.372 120.164 174.469 122.258 174.469 124.844V161.222H174.466Z" fill="#455A64"/>
<path d="M171.246 120.375C171.29 120.375 171.327 129.514 171.327 140.788C171.327 152.064 171.29 161.2 171.246 161.2C171.203 161.2 171.166 152.061 171.166 140.788C171.166 129.514 171.203 120.375 171.246 120.375Z" fill="#263238"/>
<path d="M152.387 75.5934C155.894 80.5945 157.938 86.607 158.204 92.7092C158.384 96.8226 157.83 101.205 159.782 104.833C162.584 110.035 168.643 109.856 170.498 115.466C171.306 117.907 169.818 123.273 169.416 125.812C168.961 128.697 170.724 131.119 170.27 134.002C169.852 136.646 167.873 138.533 165.497 139.764C163.382 140.858 161.427 140.886 159.228 139.977C155.037 138.242 151.549 136.411 148.561 132.996C144.367 128.203 143.102 121.565 142.385 115.234C140.804 101.283 141.126 87.1142 143.334 73.249" fill="#263238"/>
<path d="M161.353 140.565C161.353 140.565 161.4 140.549 161.49 140.531C161.579 140.509 161.715 140.488 161.885 140.438C162.232 140.345 162.736 140.181 163.333 139.86C163.927 139.538 164.629 139.065 165.244 138.326C165.547 137.958 165.826 137.515 165.993 136.999C166.15 136.482 166.222 135.901 166.256 135.298C166.314 134.085 166.132 132.759 165.854 131.357C165.584 129.953 165.22 128.456 165.13 126.836C165.087 126.029 165.124 125.187 165.306 124.355C165.479 123.52 165.779 122.707 166.092 121.887C166.407 121.068 166.738 120.242 166.976 119.376C167.202 118.51 167.341 117.591 167.19 116.685C167.057 115.776 166.686 114.928 166.188 114.186C165.69 113.441 165.068 112.794 164.434 112.2C163.157 111.007 161.774 110.023 160.593 108.916C158.208 106.72 156.603 104.221 155.588 102.006C155.081 100.896 154.695 99.8569 154.438 98.9229C154.289 98.4621 154.206 98.0167 154.098 97.6146C154.017 97.2064 153.946 96.8352 153.881 96.5012C153.782 95.827 153.711 95.3012 153.693 94.9424C153.68 94.7692 153.668 94.6331 153.662 94.5342C153.655 94.4414 153.655 94.395 153.655 94.395C153.655 94.395 153.665 94.4414 153.677 94.5342C153.689 94.6331 153.705 94.7661 153.723 94.9393C153.754 95.2981 153.835 95.8177 153.943 96.4919C154.011 96.826 154.088 97.1971 154.175 97.5992C154.286 97.9981 154.373 98.4404 154.524 98.8982C154.79 99.826 155.183 100.859 155.694 101.96C156.717 104.156 158.322 106.633 160.695 108.808C161.87 109.902 163.256 110.886 164.545 112.086C165.186 112.686 165.816 113.339 166.324 114.099C166.834 114.857 167.217 115.729 167.354 116.667C167.511 117.601 167.366 118.544 167.134 119.422C166.89 120.301 166.556 121.133 166.24 121.949C165.928 122.766 165.628 123.573 165.458 124.392C165.278 125.209 165.241 126.035 165.281 126.833C165.365 128.435 165.724 129.929 165.987 131.339C166.256 132.746 166.438 134.085 166.37 135.31C166.333 135.923 166.259 136.501 166.092 137.036C165.919 137.568 165.628 138.016 165.315 138.388C164.681 139.136 163.967 139.603 163.364 139.918C162.758 140.237 162.244 140.392 161.895 140.472C161.542 140.553 161.353 140.565 161.353 140.565Z" fill="#455A64"/>
<path d="M103.767 151.615L118.61 144.567C118.61 144.567 124.39 116.502 125.482 114.393C126.574 112.287 131.145 110.465 131.145 110.465L130.381 148.47L129.026 157.235L108.094 159.217L103.767 151.615Z" fill="#E8505B"/>
<path d="M91.1026 158.265C91.0222 158.262 90.6077 158.522 90.9541 159.171C91.3005 159.824 93.8119 161.98 94.5511 161.228C95.2903 160.477 94.1614 159.561 94.1614 159.561L91.1026 158.265Z" fill="#FFBE9D"/>
<path d="M94.2667 159.589C94.2667 159.589 97.3007 159.972 98.4698 160.415C99.7379 160.897 101.284 160.569 102.323 159.864C103.363 159.159 103.969 158.522 103.969 158.522L107.841 158.46C107.841 158.46 109.7 156.533 108.596 153.663C108.404 153.162 108.197 152.766 107.708 152.151C107.247 151.653 106.52 151.251 105.268 151.034L100.669 152.027C100.669 152.027 93.5429 151.517 92.2749 152.117C92.2749 152.117 90.6821 153.06 90.1903 153.456C90.0047 153.604 89.4418 155.42 90.5985 156.36C90.5985 156.36 89.5903 157.164 90.1346 157.882L90.3975 158.2C90.3975 158.2 89.7202 159.079 90.0666 159.462C90.4161 159.846 93.4656 161.63 94.5543 161.206C95.6491 160.786 94.7491 159.774 94.2667 159.589Z" fill="#FFBE9D"/>
<path d="M91.3657 154.798C91.3688 154.789 91.5018 154.841 91.7431 154.934C91.9843 155.027 92.3307 155.157 92.7699 155.296C92.9895 155.367 93.2307 155.435 93.4905 155.506C93.7503 155.577 94.0349 155.633 94.3287 155.729C94.6194 155.825 94.9349 155.964 95.1637 156.233C95.3833 156.493 95.5318 156.883 95.3864 157.251C95.3153 157.433 95.1699 157.569 95.0091 157.656C94.8452 157.739 94.672 157.78 94.5019 157.798C94.1586 157.829 93.84 157.789 93.5338 157.745C92.9245 157.653 92.3957 157.489 91.9627 157.334C91.5266 157.179 91.1833 157.034 90.9451 156.932C90.707 156.83 90.5802 156.768 90.5832 156.762C90.5863 156.753 90.7224 156.799 90.9637 156.889C91.2049 156.975 91.5544 157.108 91.9905 157.251C92.4266 157.393 92.9524 157.544 93.5524 157.631C93.8493 157.668 94.1709 157.705 94.4895 157.674C94.6472 157.656 94.8081 157.619 94.9503 157.544C95.0895 157.47 95.2101 157.353 95.2689 157.204C95.3895 156.901 95.2658 156.552 95.0679 156.313C94.8668 156.072 94.5699 155.936 94.2916 155.84C94.007 155.744 93.7225 155.686 93.4627 155.608C93.1998 155.534 92.9585 155.457 92.742 155.383C92.306 155.231 91.9596 155.089 91.7245 154.984C91.4894 154.872 91.3626 154.807 91.3657 154.798Z" fill="#EB996E"/>
<path d="M91.6382 152.605C91.6413 152.596 91.7743 152.649 92.0124 152.741C92.2506 152.834 92.597 152.967 93.0331 153.109C93.4661 153.255 93.9887 153.413 94.5764 153.552C94.8671 153.626 95.2011 153.685 95.4764 153.917C95.6125 154.031 95.7146 154.198 95.7393 154.384C95.7671 154.566 95.7362 154.755 95.662 154.925C95.5104 155.271 95.1888 155.494 94.8671 155.602C94.5424 155.714 94.2052 155.72 93.8991 155.68C93.2836 155.587 92.7794 155.367 92.3434 155.228C91.9258 155.083 91.5794 154.962 91.3165 154.869C91.0753 154.783 90.9423 154.73 90.9454 154.721C90.9485 154.712 91.0846 154.749 91.332 154.823C91.598 154.906 91.9475 155.015 92.3712 155.145C92.8104 155.271 93.3238 155.482 93.9145 155.565C94.2083 155.602 94.5238 155.593 94.8269 155.488C95.1238 155.386 95.4115 155.182 95.5444 154.879C95.6836 154.579 95.6372 154.211 95.3929 154.016C95.1578 153.815 94.8362 153.747 94.5455 153.672C93.9547 153.524 93.432 153.357 92.999 153.202C92.566 153.045 92.2227 152.899 91.9908 152.794C91.7619 152.68 91.6351 152.612 91.6382 152.605Z" fill="#EB996E"/>
<path d="M93.1009 153.23C93.0638 153.23 93.0452 152.952 92.9617 152.621C92.8844 152.29 92.7762 152.033 92.8071 152.014C92.8349 151.999 93.0019 152.24 93.0854 152.59C93.172 152.942 93.1349 153.233 93.1009 153.23Z" fill="#EB996E"/>
<path d="M103.812 153.323L101.106 152.281C101.106 152.281 93.5935 148.773 93.4667 148.965C93.3399 149.154 92.9316 149.135 93.0213 150.051C93.111 150.966 97.4874 152.813 97.6265 153.131C97.7657 153.45 97.5337 155.052 99.1513 156.202C100.769 157.353 101.935 157.378 101.935 157.378" fill="#FFBE9D"/>
<path d="M101.934 157.375C101.934 157.378 101.913 157.378 101.869 157.378C101.826 157.375 101.764 157.371 101.681 157.359C101.517 157.337 101.276 157.288 100.979 157.189C100.679 157.093 100.323 156.945 99.9302 156.731C99.5405 156.515 99.1014 156.255 98.6838 155.868C98.2663 155.485 97.9261 154.934 97.7622 154.288C97.6756 153.966 97.6446 153.617 97.6013 153.277C97.5951 153.233 97.5859 153.196 97.5735 153.159C97.5642 153.134 97.5364 153.113 97.5024 153.088C97.4343 153.038 97.3601 152.992 97.2828 152.946C97.1281 152.856 96.9673 152.769 96.8065 152.68C96.1539 152.333 95.4611 151.981 94.7621 151.579C94.4126 151.378 94.06 151.164 93.7198 150.92C93.5497 150.796 93.3827 150.666 93.2312 150.512C93.1538 150.434 93.0827 150.348 93.0239 150.252C92.9992 150.199 92.9714 150.147 92.9621 150.082C92.9497 150.02 92.9528 149.97 92.9466 149.915C92.9373 149.698 92.9466 149.466 93.061 149.262C93.1198 149.16 93.2157 149.083 93.2992 149.024C93.3425 148.993 93.3796 148.965 93.4044 148.934C93.4136 148.928 93.3982 148.937 93.4291 148.909C93.4631 148.888 93.4693 148.894 93.4817 148.894C93.5095 148.891 93.5157 148.897 93.5343 148.897C93.5621 148.903 93.5899 148.909 93.6147 148.916C94.0229 149.042 94.3941 149.203 94.7683 149.358C95.5106 149.67 96.2188 149.986 96.8962 150.289C98.2446 150.895 99.4539 151.458 100.465 151.931C100.719 152.049 100.96 152.169 101.189 152.265C101.424 152.358 101.644 152.445 101.851 152.525C102.262 152.689 102.615 152.828 102.909 152.946C103.19 153.06 103.416 153.15 103.577 153.215C103.648 153.246 103.704 153.267 103.75 153.289C103.787 153.307 103.809 153.317 103.806 153.317C103.806 153.32 103.784 153.314 103.744 153.301C103.697 153.286 103.639 153.264 103.567 153.239C103.403 153.181 103.178 153.097 102.89 152.992C102.593 152.881 102.234 152.748 101.823 152.593C101.616 152.516 101.393 152.429 101.158 152.342C100.923 152.247 100.685 152.129 100.428 152.015C99.4076 151.554 98.1952 151.003 96.8467 150.397C96.1724 150.097 95.4611 149.785 94.7188 149.472C94.3477 149.321 93.9672 149.157 93.5806 149.036C93.5559 149.03 93.5343 149.024 93.5095 149.021C93.5033 149.021 93.4848 149.018 93.4848 149.018C93.4848 149.015 93.4848 149.027 93.4817 149.008C93.4724 148.984 93.4817 148.99 93.4755 148.977C93.4724 148.974 93.4693 148.971 93.4662 148.968C93.5528 149.027 93.4879 148.987 93.5064 149.002L93.5002 149.011C93.46 149.064 93.4105 149.098 93.3703 149.129C93.2837 149.191 93.2126 149.247 93.1662 149.33C93.0703 149.494 93.058 149.707 93.0672 149.912C93.0734 150.023 93.0796 150.106 93.1291 150.19C93.1786 150.273 93.2435 150.354 93.3147 150.425C93.4569 150.57 93.6209 150.697 93.7879 150.821C94.1219 151.059 94.4714 151.272 94.8178 151.473C95.5137 151.875 96.2034 152.228 96.856 152.578C97.0199 152.667 97.1807 152.754 97.3353 152.847C97.4127 152.893 97.49 152.939 97.5642 152.998C97.5982 153.026 97.6446 153.06 97.6694 153.119C97.6879 153.168 97.6972 153.215 97.7034 153.258C97.7467 153.614 97.7714 153.945 97.8549 154.26C98.0127 154.888 98.3343 155.426 98.7364 155.803C99.1354 156.184 99.5746 156.45 99.955 156.669C100.342 156.886 100.691 157.037 100.985 157.143C101.279 157.245 101.514 157.3 101.675 157.331C101.755 157.347 101.817 157.356 101.86 157.362C101.913 157.368 101.934 157.371 101.934 157.375Z" fill="#EB996E"/>
<path d="M93.6482 157.727C93.6513 157.721 93.7565 157.739 93.9358 157.81C94.1152 157.881 94.3688 158.005 94.6441 158.219C94.7802 158.327 94.9225 158.454 95.0524 158.614C95.1761 158.775 95.3029 158.992 95.272 159.245C95.2379 159.502 95.0183 159.706 94.7709 159.787C94.5142 159.873 94.2389 159.833 93.9822 159.762C92.974 159.456 92.0987 159.085 91.4925 158.763C91.1894 158.602 90.9513 158.457 90.7935 158.348C90.6327 158.24 90.5492 158.175 90.5554 158.169C90.5616 158.16 90.6543 158.212 90.8183 158.308C90.9853 158.401 91.2265 158.534 91.5327 158.686C92.1451 158.986 93.0235 159.341 94.0163 159.644C94.2606 159.712 94.5142 159.746 94.7307 159.672C94.9472 159.604 95.1266 159.434 95.1544 159.233C95.1854 159.029 95.0833 158.834 94.9689 158.683C94.8513 158.528 94.7121 158.401 94.5853 158.29C94.0627 157.857 93.6358 157.752 93.6482 157.727Z" fill="#EB996E"/>
<g opacity="0.3">
<path opacity="0.3" d="M128.918 157.244C126.487 149.045 124.343 138.486 121.912 130.287C121.025 137.855 122.135 147.848 123.53 155.342C123.694 156.221 123.768 157.08 124.448 157.659L128.918 157.244Z" fill="black"/>
</g>
<path d="M124.938 151.615C124.904 151.622 124.802 151.08 124.474 150.261C124.313 149.849 124.075 149.379 123.778 148.881C123.469 148.39 123.089 147.87 122.637 147.375C122.176 146.886 121.688 146.469 121.221 146.123C120.744 145.785 120.293 145.516 119.897 145.325C119.105 144.935 118.57 144.793 118.582 144.762C118.585 144.752 118.718 144.783 118.96 144.851C119.08 144.882 119.226 144.929 119.39 144.994C119.554 145.059 119.748 145.124 119.946 145.223C120.355 145.402 120.818 145.668 121.307 146.002C121.787 146.345 122.288 146.766 122.758 147.264C123.219 147.768 123.602 148.297 123.908 148.801C124.205 149.311 124.434 149.794 124.586 150.214C124.672 150.422 124.722 150.616 124.774 150.787C124.83 150.957 124.861 151.105 124.886 151.226C124.926 151.479 124.947 151.612 124.938 151.615Z" fill="#263238"/>
<path d="M129.571 110.082C129.571 110.082 121.796 127.448 121.796 130.637C121.796 133.825 127.623 155.979 127.623 155.979C127.567 156.858 127.341 161.274 127.341 161.274L159.998 161.386L160.496 154.365L157.948 147.675L160.493 128.765C160.493 128.765 162.207 117.786 162.358 114.715C162.55 110.873 149.532 106.42 149.888 105.888L147.639 102.878L134.764 113.332L132.219 105.984L129.169 108.866L129.571 110.082Z" fill="#E8505B"/>
<path d="M150.957 114.702C147.421 120.684 140.954 131.583 140.954 131.583L129.362 144.799C129.362 144.799 128.605 151.516 130.12 153.573C131.636 155.633 134.237 157.04 134.237 157.04C134.237 157.04 137.299 157.04 141.183 153.789C145.071 150.539 155.794 137.107 155.794 137.107L159.477 132.665C159.477 132.665 163.869 121.878 163.05 116.385C162.734 114.266 161.831 113.388 160.631 112.417C157.609 109.976 152.933 111.359 150.957 114.702Z" fill="#E8505B"/>
<path d="M160.842 128.914C160.845 128.914 160.827 128.957 160.79 129.037C160.746 129.124 160.691 129.241 160.619 129.39C160.465 129.699 160.23 130.148 159.908 130.717C159.268 131.858 158.275 133.472 156.973 135.415C156.32 136.386 155.594 137.441 154.796 138.56C154.004 139.686 153.085 140.833 152.334 142.182C151.567 143.518 150.905 145.003 150.085 146.478C149.266 147.95 148.298 149.413 147.141 150.78C145.981 152.144 144.67 153.332 143.235 154.232C141.806 155.138 140.247 155.725 138.713 155.982C137.179 156.248 135.666 156.162 134.333 155.797C133.662 155.62 133.044 155.351 132.481 155.045C131.915 154.742 131.401 154.395 130.956 154.012C130.504 153.635 130.118 153.223 129.805 152.793C129.481 152.373 129.243 151.931 129.045 151.507C128.664 150.65 128.503 149.855 128.423 149.206C128.358 148.553 128.355 148.043 128.37 147.7C128.38 147.532 128.389 147.403 128.392 147.307C128.398 147.22 128.401 147.174 128.404 147.174C128.408 147.174 128.408 147.22 128.408 147.307C128.404 147.403 128.404 147.532 128.401 147.696C128.395 148.04 128.408 148.547 128.485 149.193C128.578 149.837 128.745 150.625 129.128 151.467C129.329 151.881 129.567 152.317 129.889 152.728C130.198 153.149 130.585 153.551 131.03 153.919C131.473 154.297 131.983 154.634 132.543 154.931C133.102 155.231 133.709 155.49 134.371 155.664C135.688 156.016 137.179 156.097 138.691 155.831C140.207 155.571 141.741 154.992 143.151 154.092C144.568 153.202 145.867 152.023 147.017 150.669C148.165 149.311 149.13 147.857 149.949 146.394C150.769 144.931 151.431 143.444 152.207 142.101C152.965 140.744 153.896 139.593 154.687 138.477C155.492 137.36 156.225 136.312 156.88 135.347C158.192 133.414 159.2 131.812 159.856 130.683C160.186 130.12 160.431 129.674 160.592 129.371C160.669 129.226 160.731 129.112 160.777 129.028C160.814 128.951 160.839 128.914 160.842 128.914Z" fill="#263238"/>
<path d="M128.783 144.201C128.795 144.226 128.619 144.325 128.405 144.563C128.192 144.795 127.957 145.188 127.91 145.668C127.867 146.147 128.028 146.577 128.195 146.843C128.362 147.115 128.517 147.248 128.501 147.267C128.492 147.282 128.303 147.177 128.102 146.905C127.901 146.639 127.706 146.178 127.753 145.652C127.802 145.126 128.077 144.709 128.325 144.483C128.572 144.251 128.776 144.186 128.783 144.201Z" fill="#263238"/>
<path d="M130.914 147.709C130.917 147.703 130.979 147.718 131.096 147.752C131.155 147.768 131.226 147.792 131.313 147.811C131.402 147.826 131.501 147.845 131.613 147.867C132.064 147.941 132.741 147.932 133.524 147.69C134.303 147.44 135.172 146.96 135.986 146.243C136.799 145.525 137.529 144.567 138.293 143.568C139.054 142.562 139.821 141.619 140.668 140.911C141.089 140.558 141.5 140.246 141.847 139.909C142.19 139.575 142.465 139.213 142.62 138.842C142.911 138.081 142.716 137.363 142.441 137.017C142.156 136.658 141.868 136.621 141.881 136.599C141.881 136.593 141.946 136.609 142.06 136.652C142.172 136.705 142.335 136.794 142.487 136.98C142.79 137.336 143.016 138.075 142.722 138.885C142.564 139.281 142.283 139.658 141.936 140.005C141.59 140.354 141.176 140.673 140.761 141.025C139.932 141.727 139.178 142.661 138.417 143.667C137.653 144.669 136.914 145.631 136.082 146.357C135.25 147.081 134.356 147.56 133.555 147.802C132.751 148.037 132.055 148.027 131.6 147.932C131.489 147.907 131.39 147.882 131.3 147.86C131.214 147.836 131.142 147.805 131.087 147.786C130.972 147.74 130.914 147.715 130.914 147.709Z" fill="#263238"/>
<path d="M152.532 112.865C152.535 112.868 152.491 112.933 152.402 113.051C152.303 113.18 152.17 113.351 152.006 113.567C151.653 114.006 151.168 114.662 150.577 115.478C149.405 117.118 147.902 119.468 146.451 122.181C144.994 124.89 143.785 127.404 142.86 129.198C142.399 130.098 142.022 130.822 141.75 131.317C141.62 131.552 141.515 131.741 141.434 131.886C141.36 132.016 141.32 132.081 141.314 132.078C141.308 132.075 141.342 132.003 141.404 131.87C141.478 131.722 141.571 131.53 141.691 131.289C141.951 130.766 142.313 130.04 142.755 129.149C143.652 127.343 144.843 124.819 146.306 122.103C147.759 119.385 149.281 117.037 150.481 115.41C151.084 114.6 151.585 113.954 151.953 113.527C152.126 113.32 152.266 113.156 152.374 113.029C152.473 112.918 152.525 112.862 152.532 112.865Z" fill="#263238"/>
<g opacity="0.3">
<path opacity="0.3" d="M128.399 147.174C129.908 147.99 131.563 147.904 133.246 147.573C134.928 147.242 136.487 146.311 137.576 144.984C137.282 146.453 136.654 147.891 135.581 148.937C134.507 149.982 132.958 150.591 131.483 150.322C130.007 150.053 128.52 148.668 128.399 147.174Z" fill="black"/>
</g>
<g opacity="0.3">
<path opacity="0.3" d="M142.657 138.248C143.606 139.702 143.943 141.539 143.575 143.234C144.852 141.279 145.152 138.802 144.809 136.492C144.466 134.181 143.526 132.004 142.48 129.913C142.48 129.913 141.327 131.858 141.317 132.075C141.262 133.198 141.676 135.316 141.893 136.42C142.474 136.968 142.749 137.821 142.595 138.604" fill="black"/>
</g>
<g opacity="0.3">
<path opacity="0.3" d="M133.508 155.265C136.583 157.662 141.141 157.773 144.506 155.806C147.745 153.91 149.74 150.496 151.589 147.233C154.453 142.179 157.951 135.928 159.998 130.491C159.998 130.491 154.261 138.319 152.532 141.693C151.227 144.239 150.225 145.918 148.62 148.284C145.391 153.041 139.546 155.886 133.808 155.5" fill="black"/>
</g>
<path d="M127.341 161.271C127.338 161.271 127.335 161.237 127.335 161.175C127.335 161.101 127.338 161.008 127.341 160.894C127.35 160.631 127.362 160.272 127.381 159.821C127.424 158.88 127.486 157.56 127.557 155.973L127.56 155.995C127.004 154.139 126.354 151.891 125.683 149.46C124.792 146.237 124.041 143.305 123.534 141.174C123.28 140.107 123.085 139.244 122.961 138.644C122.903 138.356 122.856 138.124 122.819 137.954C122.788 137.796 122.776 137.713 122.782 137.71C122.788 137.71 122.813 137.79 122.853 137.945C122.896 138.115 122.952 138.344 123.023 138.628C123.175 139.238 123.385 140.094 123.645 141.146C124.18 143.271 124.947 146.194 125.838 149.416C126.509 151.847 127.149 154.099 127.687 155.958L127.69 155.97V155.979C127.594 157.566 127.514 158.883 127.458 159.824C127.427 160.272 127.403 160.631 127.384 160.894C127.375 161.008 127.366 161.098 127.359 161.175C127.35 161.24 127.344 161.271 127.341 161.271Z" fill="#263238"/>
<path d="M160.011 112.231C160.002 112.256 159.677 112.141 159.139 112.008C158.604 111.875 157.849 111.739 157.008 111.715C156.167 111.69 155.406 111.779 154.861 111.882C154.317 111.984 153.986 112.076 153.98 112.052C153.977 112.042 154.057 112.005 154.203 111.953C154.348 111.897 154.568 111.835 154.84 111.767C155.384 111.634 156.157 111.526 157.014 111.551C157.871 111.578 158.635 111.733 159.17 111.897C159.439 111.977 159.649 112.055 159.795 112.12C159.94 112.182 160.017 112.219 160.011 112.231Z" fill="#263238"/>
<path d="M149.669 106.528C149.675 106.531 149.644 106.586 149.586 106.689C149.517 106.806 149.428 106.951 149.323 107.131C149.091 107.514 148.747 108.062 148.311 108.733C147.436 110.075 146.183 111.9 144.705 113.845C143.514 115.413 142.361 116.818 141.414 117.922L141.349 117.999L141.306 117.906C140.858 116.923 140.486 116.106 140.214 115.515C140.094 115.243 139.998 115.021 139.923 114.851C139.859 114.696 139.828 114.615 139.834 114.612C139.84 114.609 139.883 114.687 139.961 114.835C140.044 115.002 140.152 115.219 140.285 115.485C140.567 116.069 140.956 116.876 141.427 117.854L141.318 117.838C142.246 116.725 143.391 115.314 144.578 113.749C146.057 111.807 147.322 109.995 148.218 108.671C148.655 108.022 149.013 107.486 149.273 107.097C149.391 106.924 149.487 106.781 149.561 106.67C149.626 106.574 149.663 106.525 149.669 106.528Z" fill="#263238"/>
<path d="M157.187 156.4C157.144 156.393 157.286 154.788 157.502 152.815C157.722 150.839 157.935 149.243 157.979 149.246C158.022 149.252 157.88 150.857 157.663 152.831C157.444 154.807 157.23 156.403 157.187 156.4Z" fill="#263238"/>
<path d="M134.801 155.976C134.844 155.97 135.011 157.179 135.169 158.67C135.329 160.164 135.422 161.376 135.376 161.383C135.333 161.389 135.166 160.179 135.008 158.689C134.85 157.198 134.757 155.982 134.801 155.976Z" fill="#263238"/>
<path d="M151.32 120.653C151.279 120.396 150.924 120.257 150.72 120.415L150.698 120.433C150.506 120.607 150.577 120.981 150.822 121.067C151.066 121.151 151.36 120.91 151.32 120.653Z" fill="white"/>
<path d="M148.095 112.791C148.055 112.534 147.699 112.395 147.495 112.553L147.473 112.571C147.281 112.745 147.352 113.119 147.597 113.205C147.844 113.292 148.135 113.048 148.095 112.791Z" fill="white"/>
<path d="M140.692 119.122C140.651 118.865 140.296 118.726 140.092 118.884L140.07 118.902C139.878 119.076 139.949 119.45 140.194 119.536C140.441 119.62 140.732 119.379 140.692 119.122Z" fill="white"/>
<path d="M132.691 115.942C132.651 115.686 132.295 115.547 132.091 115.704L132.069 115.723C131.877 115.896 131.949 116.27 132.193 116.357C132.44 116.443 132.734 116.199 132.691 115.942Z" fill="white"/>
<path d="M131.278 112.809C131.238 112.553 130.882 112.414 130.678 112.571L130.656 112.59C130.464 112.763 130.536 113.137 130.78 113.224C131.024 113.31 131.318 113.066 131.278 112.809Z" fill="white"/>
<path d="M131.893 109.191C131.853 108.934 131.497 108.795 131.293 108.953L131.271 108.971C131.08 109.145 131.151 109.519 131.395 109.605C131.639 109.689 131.933 109.445 131.893 109.191Z" fill="white"/>
<path d="M127.462 114.17C127.422 113.914 127.066 113.774 126.862 113.932L126.84 113.951C126.648 114.124 126.72 114.498 126.964 114.585C127.208 114.668 127.502 114.424 127.462 114.17Z" fill="white"/>
<path d="M137.724 115.605C137.684 115.349 137.328 115.209 137.124 115.367L137.102 115.386C136.911 115.559 136.982 115.933 137.226 116.02C137.474 116.103 137.767 115.862 137.724 115.605Z" fill="white"/>
<path d="M129.036 122.06C128.996 121.804 128.64 121.664 128.436 121.822L128.415 121.841C128.223 122.014 128.294 122.388 128.538 122.475C128.783 122.558 129.076 122.314 129.036 122.06Z" fill="white"/>
<path d="M121.081 140.623C121.041 140.367 120.685 140.227 120.481 140.385L120.459 140.404C120.267 140.577 120.339 140.951 120.583 141.038C120.827 141.121 121.121 140.877 121.081 140.623Z" fill="white"/>
<path d="M123.92 129.916C123.88 129.659 123.524 129.52 123.32 129.678L123.299 129.697C123.107 129.87 123.178 130.244 123.422 130.331C123.667 130.417 123.96 130.173 123.92 129.916Z" fill="white"/>
<path d="M144.84 111.118C144.8 110.861 144.444 110.722 144.24 110.88L144.218 110.898C144.027 111.071 144.098 111.446 144.342 111.532C144.587 111.616 144.88 111.371 144.84 111.118Z" fill="white"/>
<path d="M154.825 132.434C154.784 132.177 154.429 132.038 154.225 132.195L154.203 132.214C154.011 132.387 154.082 132.761 154.327 132.848C154.571 132.935 154.865 132.69 154.825 132.434Z" fill="white"/>
<path d="M158.712 114.09C158.672 113.833 158.316 113.694 158.112 113.852L158.09 113.87C157.898 114.043 157.969 114.418 158.214 114.504C158.461 114.588 158.755 114.343 158.712 114.09Z" fill="white"/>
<path d="M157.186 126.102C157.146 125.846 156.79 125.707 156.586 125.864L156.564 125.883C156.373 126.056 156.444 126.43 156.688 126.517C156.933 126.603 157.226 126.359 157.186 126.102Z" fill="white"/>
<path d="M148.463 134.778C148.422 134.521 148.067 134.382 147.863 134.54L147.841 134.558C147.649 134.731 147.72 135.106 147.965 135.192C148.209 135.279 148.503 135.034 148.463 134.778Z" fill="white"/>
<path d="M148.831 127.556C148.79 127.3 148.435 127.16 148.231 127.318L148.209 127.337C148.017 127.51 148.088 127.884 148.333 127.971C148.577 128.057 148.871 127.813 148.831 127.556Z" fill="white"/>
<path d="M154.09 114.152C154.05 113.895 153.694 113.756 153.49 113.914L153.469 113.932C153.277 114.106 153.348 114.48 153.592 114.567C153.84 114.65 154.134 114.409 154.09 114.152Z" fill="white"/>
<path d="M147.005 107.156C146.965 106.899 146.609 106.76 146.405 106.918L146.383 106.936C146.191 107.109 146.263 107.484 146.507 107.57C146.754 107.654 147.048 107.409 147.005 107.156Z" fill="white"/>
<path d="M146.748 118.435C146.708 118.179 146.352 118.04 146.148 118.197L146.126 118.216C145.934 118.389 146.005 118.763 146.25 118.85C146.497 118.933 146.788 118.689 146.748 118.435Z" fill="white"/>
<path d="M137.705 152.843C137.665 152.586 137.309 152.447 137.105 152.605L137.083 152.624C136.892 152.797 136.963 153.171 137.207 153.258C137.451 153.341 137.745 153.097 137.705 152.843Z" fill="white"/>
<path d="M127.329 147.183C127.288 146.927 126.933 146.788 126.729 146.945L126.707 146.964C126.515 147.137 126.586 147.511 126.831 147.598C127.075 147.681 127.369 147.44 127.329 147.183Z" fill="white"/>
<path d="M118.937 149.957C118.897 149.701 118.541 149.562 118.337 149.719L118.315 149.738C118.123 149.911 118.194 150.285 118.439 150.372C118.686 150.455 118.977 150.211 118.937 149.957Z" fill="white"/>
<path d="M118.04 154.736C117.999 154.479 117.644 154.34 117.44 154.498L117.418 154.516C117.226 154.69 117.297 155.064 117.542 155.151C117.786 155.234 118.08 154.99 118.04 154.736Z" fill="white"/>
<path d="M125.906 156.335C125.865 156.079 125.51 155.939 125.306 156.097L125.284 156.116C125.092 156.289 125.163 156.663 125.408 156.75C125.655 156.836 125.946 156.592 125.906 156.335Z" fill="white"/>
<path d="M123.277 145.634C123.237 145.377 122.881 145.238 122.677 145.396L122.655 145.414C122.464 145.587 122.535 145.962 122.779 146.048C123.023 146.135 123.317 145.89 123.277 145.634Z" fill="white"/>
<path d="M132.927 148.355C132.886 148.099 132.531 147.959 132.327 148.117L132.305 148.136C132.113 148.309 132.184 148.683 132.429 148.77C132.673 148.856 132.967 148.609 132.927 148.355Z" fill="white"/>
<path d="M155.866 145.618C155.826 145.361 155.471 145.222 155.266 145.38L155.245 145.399C155.053 145.572 155.124 145.946 155.369 146.033C155.616 146.116 155.91 145.872 155.866 145.618Z" fill="white"/>
<path d="M141.672 159.218C141.632 158.961 141.277 158.822 141.072 158.979L141.051 158.998C140.859 159.171 140.93 159.545 141.174 159.632C141.419 159.719 141.713 159.474 141.672 159.218Z" fill="white"/>
<path d="M147.725 151.646C147.685 151.39 147.329 151.25 147.125 151.408L147.103 151.427C146.912 151.6 146.983 151.974 147.227 152.061C147.475 152.147 147.768 151.903 147.725 151.646Z" fill="white"/>
<path d="M151.323 157.804C151.283 157.547 150.927 157.408 150.723 157.566L150.701 157.585C150.509 157.758 150.581 158.132 150.825 158.219C151.072 158.305 151.363 158.061 151.323 157.804Z" fill="white"/>
<path d="M141.317 125.558C141.277 125.302 140.921 125.162 140.717 125.32L140.695 125.339C140.503 125.512 140.575 125.886 140.819 125.973C141.063 126.056 141.357 125.815 141.317 125.558Z" fill="white"/>
<path d="M149.461 141.279C149.42 141.022 149.065 140.883 148.861 141.041L148.839 141.06C148.647 141.233 148.718 141.607 148.963 141.694C149.207 141.777 149.501 141.533 149.461 141.279Z" fill="white"/>
<path d="M146.82 147.233C146.779 146.976 146.424 146.837 146.22 146.995L146.198 147.013C146.006 147.186 146.077 147.561 146.322 147.647C146.566 147.731 146.86 147.49 146.82 147.233Z" fill="white"/>
<path d="M155.501 152.014C155.461 151.758 155.105 151.618 154.901 151.776L154.879 151.795C154.688 151.968 154.759 152.342 155.003 152.429C155.247 152.512 155.541 152.271 155.501 152.014Z" fill="white"/>
<path d="M131.745 158.921C131.705 158.664 131.349 158.525 131.145 158.683L131.123 158.701C130.932 158.874 131.003 159.249 131.247 159.335C131.491 159.419 131.785 159.174 131.745 158.921Z" fill="white"/>
<path d="M111.951 157.111C111.91 156.854 111.555 156.715 111.351 156.873L111.329 156.891C111.137 157.065 111.208 157.439 111.453 157.526C111.697 157.612 111.991 157.368 111.951 157.111Z" fill="white"/>
<path d="M129.382 153.861C129.342 153.604 128.986 153.465 128.782 153.622L128.76 153.641C128.568 153.814 128.639 154.188 128.884 154.275C129.128 154.362 129.422 154.117 129.382 153.861Z" fill="white"/>
<path d="M112.684 150.326C112.644 150.069 112.288 149.93 112.084 150.087L112.062 150.106C111.871 150.279 111.942 150.653 112.186 150.74C112.43 150.824 112.724 150.579 112.684 150.326Z" fill="white"/>
<path d="M140.584 139.098C140.544 138.842 140.188 138.702 139.984 138.86L139.963 138.879C139.771 139.052 139.842 139.426 140.086 139.513C140.331 139.596 140.624 139.355 140.584 139.098Z" fill="white"/>
<path d="M134.746 122.06C134.706 121.804 134.35 121.664 134.146 121.822L134.124 121.841C133.932 122.014 134.003 122.388 134.248 122.475C134.492 122.558 134.786 122.314 134.746 122.06Z" fill="white"/>
<path d="M133.285 136.835C133.244 136.578 132.889 136.439 132.685 136.596L132.663 136.615C132.471 136.788 132.542 137.162 132.787 137.249C133.034 137.336 133.325 137.091 133.285 136.835Z" fill="white"/>
<path d="M130.909 132.016C130.869 131.759 130.513 131.62 130.309 131.778L130.287 131.796C130.096 131.969 130.167 132.344 130.411 132.43C130.658 132.514 130.949 132.272 130.909 132.016Z" fill="white"/>
<path d="M141.416 147.165C141.376 146.908 141.02 146.769 140.816 146.926L140.794 146.945C140.603 147.118 140.674 147.492 140.918 147.579C141.162 147.666 141.456 147.421 141.416 147.165Z" fill="white"/>
<path d="M134.01 144.192C133.97 143.936 133.614 143.797 133.41 143.954L133.388 143.973C133.196 144.146 133.267 144.52 133.512 144.607C133.759 144.694 134.053 144.449 134.01 144.192Z" fill="white"/>
<path d="M137.179 127.878C137.139 127.621 136.783 127.482 136.579 127.64L136.558 127.658C136.366 127.831 136.437 128.206 136.681 128.292C136.929 128.376 137.222 128.131 137.179 127.878Z" fill="white"/>
<path d="M125.906 139.429C125.865 139.173 125.51 139.034 125.306 139.191L125.284 139.21C125.092 139.383 125.163 139.757 125.408 139.844C125.655 139.927 125.946 139.686 125.906 139.429Z" fill="white"/>
<path d="M143.309 134.129C143.269 133.872 142.913 133.733 142.709 133.89L142.687 133.909C142.495 134.082 142.566 134.456 142.811 134.543C143.055 134.627 143.349 134.382 143.309 134.129Z" fill="white"/>
<path d="M159.447 120.285C159.407 120.028 159.051 119.889 158.847 120.047L158.825 120.065C158.633 120.238 158.705 120.613 158.949 120.699C159.193 120.786 159.487 120.541 159.447 120.285Z" fill="white"/>
<path d="M152.894 109.803C152.854 109.546 152.498 109.407 152.294 109.565L152.272 109.584C152.08 109.757 152.152 110.131 152.396 110.218C152.64 110.304 152.934 110.06 152.894 109.803Z" fill="white"/>
<path d="M140.195 111.118C140.155 110.861 139.799 110.722 139.595 110.88L139.573 110.898C139.381 111.071 139.452 111.446 139.697 111.532C139.941 111.616 140.235 111.371 140.195 111.118Z" fill="white"/>
<path d="M127.239 73.4934C124.802 75.0429 123.831 78.2903 124.294 80.211C124.53 81.1791 124.969 82.1533 124.777 83.1276C124.61 83.9719 124.004 84.6461 123.549 85.376C122.034 87.8132 122.303 91.2215 124.18 93.3927C126.057 95.5608 129.391 96.3185 132.02 95.168" fill="#263238"/>
<path d="M125.797 86.171C119.871 73.1378 133.965 66.5902 141.657 68.7614C148.885 70.8027 151.968 74.3996 153.156 79.2337C154.347 84.0709 154.288 89.3071 152.392 93.9154C151.458 96.1856 149.776 98.4928 147.335 98.7774" fill="#263238"/>
<path d="M132.74 117.999C132.638 111.773 132.567 103.219 132.564 103.253C132.564 103.253 127.21 102.365 126.103 95.3814C125.552 91.9081 125.725 86.2142 126.019 81.5595C126.282 77.3687 129.059 72.2284 133.235 72.6707L146.271 75.9645C147.539 76.0975 148.495 77.18 148.47 78.4573L147.62 105.421" fill="#FFBE9D"/>
<path d="M128.349 85.8247C128.327 86.2948 128.708 86.7 129.196 86.734C129.685 86.7649 130.103 86.4123 130.124 85.9422C130.146 85.4721 129.765 85.067 129.277 85.0329C128.785 84.9989 128.371 85.3546 128.349 85.8247Z" fill="#263238"/>
<path d="M137.602 85.8247C137.581 86.2948 137.961 86.7 138.45 86.734C138.939 86.7649 139.356 86.4123 139.378 85.9422C139.399 85.4721 139.019 85.067 138.53 85.0329C138.042 84.9989 137.624 85.3546 137.602 85.8247Z" fill="#263238"/>
<path d="M127.384 84.1978C127.493 84.3185 128.185 83.8391 129.15 83.8731C130.112 83.8947 130.802 84.4143 130.913 84.2999C130.966 84.2504 130.861 84.0339 130.561 83.802C130.264 83.57 129.757 83.3349 129.157 83.3164C128.557 83.3009 128.043 83.505 127.746 83.7215C127.44 83.9349 127.332 84.1422 127.384 84.1978Z" fill="#263238"/>
<path d="M136.532 84.4267C136.644 84.5443 137.321 84.037 138.283 84.037C139.245 84.0216 139.956 84.5133 140.058 84.3958C140.108 84.3432 139.996 84.1329 139.687 83.9102C139.384 83.6875 138.864 83.4741 138.264 83.4772C137.664 83.4834 137.16 83.7061 136.87 83.935C136.576 84.1638 136.477 84.3742 136.532 84.4267Z" fill="#263238"/>
<path d="M132.564 103.252C132.564 103.252 137.262 103.556 141.917 100.757C141.917 100.757 139.554 105.615 132.564 104.963V103.252Z" fill="#EB996E"/>
<path d="M136.294 83.0562C136.39 83.3191 137.352 83.1954 138.481 83.3315C139.616 83.4459 140.525 83.7769 140.677 83.5418C140.745 83.4305 140.584 83.183 140.216 82.9294C139.851 82.6758 139.267 82.4346 138.589 82.3603C137.912 82.2861 137.29 82.3944 136.876 82.5614C136.461 82.7253 136.254 82.9325 136.294 83.0562Z" fill="#263238"/>
<path d="M127.606 81.7729C127.776 81.9925 128.441 81.7636 129.239 81.7543C130.037 81.7141 130.714 81.9028 130.869 81.6739C130.937 81.5626 130.832 81.343 130.535 81.1358C130.244 80.9286 129.756 80.7615 129.208 80.777C128.661 80.7956 128.184 80.9935 127.906 81.2162C127.625 81.442 127.532 81.6677 127.606 81.7729Z" fill="#263238"/>
<path d="M147.269 87.6493C147.371 87.5998 151.008 85.9915 151.048 90.173C151.091 94.3545 146.885 93.5349 146.876 93.4143C146.87 93.2968 147.269 87.6493 147.269 87.6493Z" fill="#FFBE9D"/>
<path d="M148.135 91.8185C148.154 91.8062 148.21 91.868 148.333 91.9237C148.454 91.9763 148.661 92.0134 148.878 91.9299C149.317 91.7629 149.682 91.0577 149.694 90.303C149.7 89.9226 149.617 89.5608 149.481 89.2607C149.351 88.9577 149.15 88.7442 148.927 88.7071C148.705 88.6576 148.55 88.7937 148.5 88.9113C148.445 89.0288 148.473 89.1123 148.451 89.1185C148.439 89.1278 148.361 89.0504 148.392 88.8772C148.408 88.7937 148.457 88.6948 148.553 88.6143C148.652 88.5308 148.8 88.4875 148.955 88.503C149.277 88.5216 149.57 88.8154 149.722 89.1432C149.892 89.4711 149.994 89.8793 149.985 90.3061C149.966 91.1474 149.543 91.9422 148.94 92.1216C148.646 92.202 148.401 92.1154 148.272 92.0165C148.145 91.9206 148.123 91.8247 148.135 91.8185Z" fill="#EB996E"/>
<path d="M131.84 70.6078C129.515 71.8109 128.556 76.5677 129.521 79.0048C130.483 81.4389 133.078 82.6296 135.635 83.1895C138.193 83.7493 140.701 83.8173 143.222 83.1152C143.398 84.8101 144.416 86.5545 146.061 86.9998C148.242 87.5937 150.438 85.5957 150.92 83.3905C151.406 81.1853 150.679 78.9151 149.961 76.7718" fill="#263238"/>
<path d="M150.29 85.7779C150.3 85.7902 150.185 85.8985 149.969 86.084C149.749 86.2665 149.431 86.5263 149.004 86.8109C148.577 87.0923 148.042 87.4047 147.377 87.5964C146.724 87.7851 145.92 87.8532 145.159 87.5624C144.399 87.2717 143.836 86.6964 143.48 86.1119C143.121 85.5181 142.957 84.9119 142.877 84.4046C142.8 83.8943 142.8 83.4799 142.812 83.1922C142.824 82.9077 142.852 82.75 142.868 82.75C142.914 82.75 142.865 83.384 143.047 84.3706C143.146 84.8593 143.319 85.4376 143.669 85.9913C144.015 86.5387 144.547 87.0707 145.246 87.3336C145.942 87.5995 146.69 87.547 147.318 87.3769C147.952 87.2068 148.481 86.9191 148.911 86.6593C149.765 86.1335 150.266 85.7438 150.29 85.7779Z" fill="#263238"/>
<path d="M133.513 94.534C133.652 94.8897 133.797 95.2515 134.032 95.5516C134.267 95.8516 134.611 96.0928 134.994 96.1083C135.402 96.1268 135.792 95.8856 136.021 95.5485C136.247 95.2113 136.324 94.7876 136.305 94.3825C136.29 94.0144 136.12 93.5752 135.755 93.5319C135.603 93.5134 135.452 93.5721 135.31 93.6309C134.669 93.8907 134.029 94.1505 133.386 94.4103" fill="white"/>
<path d="M134.28 96.1145C134.29 96.0557 134.713 96.2258 135.307 95.9877C135.595 95.8733 135.91 95.6444 136.084 95.2825C136.257 94.9268 136.291 94.4444 136.108 94.0237C136.065 93.9186 136.003 93.8227 135.941 93.7361C135.864 93.6557 135.879 93.6588 135.796 93.6712C135.719 93.6928 135.592 93.7516 135.487 93.7918C135.378 93.8351 135.273 93.8784 135.171 93.9217C134.76 94.0887 134.386 94.2341 134.073 94.3516C133.442 94.5866 133.046 94.7103 133.025 94.667C133.006 94.6237 133.371 94.4196 133.977 94.1289C134.28 93.9835 134.642 93.8134 135.047 93.631C135.149 93.5846 135.252 93.5382 135.36 93.4918C135.471 93.4454 135.558 93.3959 135.712 93.3464C135.787 93.3248 135.895 93.3124 135.997 93.3557C136.099 93.3959 136.161 93.467 136.21 93.5227C136.297 93.6371 136.371 93.7547 136.427 93.8877C136.653 94.4134 136.597 94.9949 136.368 95.4248C136.133 95.864 135.731 96.1114 135.391 96.2135C135.044 96.3186 134.747 96.2939 134.559 96.2444C134.364 96.2011 134.274 96.1362 134.28 96.1145Z" fill="#263238"/>
<path d="M151.989 83.3272C151.423 83.2877 146.877 83.8597 147.236 92.0445C147.57 99.6929 153.109 98.0086 154.877 95.1291C156.551 92.4035 157.521 83.7019 151.989 83.3272Z" fill="#455A64"/>
<path d="M154.091 85.5463C154.088 85.5463 154.082 85.4875 154.075 85.3762C154.069 85.2524 154.063 85.0885 154.054 84.8875C154.041 84.4452 154.023 83.8266 154.001 83.0596C153.97 81.4823 153.927 79.2925 153.874 76.7626L153.952 76.8399C153.383 76.8399 152.783 76.843 152.17 76.843L152.251 76.7595C152.263 77.2389 152.279 77.743 152.291 78.2534C152.35 80.6627 152.405 82.905 152.452 84.7823V84.838L152.399 84.8504C151.598 85.039 150.964 85.503 150.565 86.0318C150.157 86.5607 149.956 87.1205 149.832 87.5813C149.708 88.0453 149.668 88.4226 149.643 88.6762C149.631 88.803 149.625 88.902 149.622 88.97C149.619 89.035 149.616 89.0721 149.613 89.0721C149.609 89.0721 149.603 89.0381 149.6 88.97C149.597 88.902 149.597 88.803 149.6 88.6762C149.609 88.4195 149.64 88.036 149.755 87.5628C149.869 87.0927 150.064 86.5174 150.475 85.9669C150.877 85.4164 151.536 84.9215 152.365 84.7205L152.313 84.7885C152.26 82.9112 152.195 80.6689 152.124 78.2595C152.112 77.7492 152.096 77.2451 152.084 76.7657L152.081 76.6822H152.164C152.777 76.6822 153.373 76.6853 153.946 76.6853H154.023V76.7626C154.051 79.2925 154.075 81.4823 154.091 83.0596C154.094 83.8266 154.094 84.4452 154.097 84.8875C154.094 85.0885 154.094 85.2524 154.091 85.3762C154.1 85.4875 154.097 85.5463 154.091 85.5463Z" fill="#455A64"/>
<path d="M151.957 76.7625C151.957 76.7625 150.15 72.5345 145.848 70.45C143.764 69.4386 142.205 68.919 140.692 68.5386C140.692 68.5386 143.204 67.9417 147.265 69.751C149.111 70.5737 150.97 71.6407 152.201 73.2459C152.983 74.2634 153.958 76.2552 153.955 76.7656H151.957V76.7625Z" fill="#455A64"/>
<path d="M140.816 127.94C140.813 127.937 140.841 127.909 140.893 127.856C140.946 127.8 141.026 127.723 141.128 127.615C141.332 127.401 141.623 127.074 141.963 126.625C142.307 126.177 142.687 125.595 143.092 124.893C143.494 124.191 143.915 123.365 144.37 122.441C145.282 120.591 146.337 118.352 147.428 115.785C147.976 114.501 148.532 113.137 149.086 111.702C149.222 111.343 149.361 110.979 149.504 110.614C149.643 110.246 149.785 109.868 150.002 109.519C150.212 109.166 150.521 108.857 150.898 108.665C151.087 108.569 151.297 108.495 151.526 108.504C151.641 108.514 151.758 108.551 151.854 108.625C151.953 108.696 152.012 108.801 152.061 108.903L152.071 108.925L152.064 108.95C152.034 109.092 151.99 109.234 151.897 109.361C151.808 109.488 151.662 109.581 151.511 109.615C151.202 109.676 150.908 109.581 150.648 109.457C150.088 109.225 149.757 108.563 149.884 107.957C149.943 107.654 150.131 107.375 150.385 107.202C150.639 107.026 150.951 106.933 151.263 106.952C151.57 106.97 151.904 107.097 152.074 107.4C152.16 107.549 152.151 107.768 152.043 107.904C151.941 108.043 151.799 108.127 151.65 108.192C151.127 108.399 150.5 108.217 150.169 107.771C150.002 107.549 149.934 107.261 149.968 106.992C149.995 106.723 150.113 106.466 150.289 106.262C150.465 106.058 150.71 105.912 150.985 105.878C151.254 105.851 151.542 105.928 151.737 106.138C151.836 106.24 151.888 106.389 151.885 106.534C151.885 106.683 151.811 106.822 151.706 106.915C151.499 107.103 151.214 107.171 150.948 107.119C150.673 107.06 150.475 106.853 150.345 106.633C150.218 106.41 150.153 106.163 150.119 105.919C150.057 105.436 150.063 104.929 150.283 104.477C150.401 104.258 150.564 104.057 150.809 103.958C151.05 103.862 151.316 103.887 151.545 103.983C151.764 104.078 151.987 104.279 151.996 104.555C152.015 104.824 151.829 105.062 151.604 105.158C151.381 105.263 151.109 105.269 150.892 105.149C150.676 105.031 150.527 104.824 150.453 104.607C150.373 104.391 150.376 104.14 150.41 103.93C150.438 103.713 150.478 103.497 150.552 103.287C150.623 103.079 150.75 102.875 150.926 102.739C151.1 102.603 151.294 102.501 151.508 102.448C151.61 102.427 151.73 102.405 151.848 102.445C151.959 102.482 152.052 102.547 152.133 102.625C152.21 102.702 152.272 102.795 152.315 102.9C152.358 103.002 152.374 103.129 152.324 103.243C152.232 103.478 151.972 103.556 151.771 103.55C151.557 103.553 151.356 103.469 151.189 103.355C150.858 103.12 150.645 102.758 150.568 102.38C150.484 102.006 150.527 101.61 150.697 101.279C150.787 101.119 150.895 100.964 151.044 100.856C151.189 100.744 151.362 100.673 151.539 100.642C151.715 100.614 151.904 100.627 152.064 100.716C152.222 100.806 152.34 100.973 152.349 101.156C152.361 101.524 152.077 101.811 151.764 101.898C151.43 101.985 151.112 101.805 150.923 101.582C150.725 101.354 150.626 101.069 150.605 100.791C150.577 100.228 150.8 99.7546 150.908 99.3092C151.035 98.8639 151.149 98.4587 151.251 98.0907C151.458 97.3638 151.622 96.8009 151.734 96.4082C151.789 96.2226 151.833 96.0772 151.863 95.9721C151.894 95.8731 151.913 95.8236 151.913 95.8236C151.913 95.8236 151.904 95.8762 151.879 95.9752C151.851 96.0803 151.814 96.2288 151.764 96.4174C151.659 96.8102 151.508 97.3793 151.313 98.1092C151.214 98.4773 151.103 98.8855 150.982 99.3309C150.877 99.7793 150.663 100.256 150.694 100.785C150.713 101.044 150.812 101.31 150.994 101.521C151.168 101.725 151.461 101.879 151.737 101.802C152.006 101.731 152.256 101.459 152.238 101.168C152.232 101.026 152.136 100.89 152.009 100.819C151.879 100.744 151.712 100.735 151.557 100.76C151.4 100.788 151.245 100.853 151.115 100.955C150.985 101.051 150.883 101.193 150.803 101.341C150.648 101.644 150.608 102.012 150.688 102.362C150.759 102.711 150.96 103.045 151.26 103.256C151.412 103.358 151.585 103.429 151.768 103.426C151.947 103.429 152.139 103.361 152.194 103.203C152.256 103.055 152.157 102.86 152.03 102.733C151.966 102.668 151.885 102.615 151.802 102.588C151.724 102.56 151.628 102.575 151.533 102.594C151.155 102.693 150.796 102.95 150.676 103.345C150.608 103.537 150.568 103.747 150.543 103.958C150.509 104.174 150.509 104.372 150.58 104.57C150.648 104.762 150.775 104.938 150.951 105.031C151.124 105.127 151.347 105.124 151.529 105.037C151.715 104.954 151.851 104.774 151.836 104.576C151.829 104.378 151.662 104.218 151.471 104.134C151.276 104.054 151.047 104.035 150.852 104.112C150.66 104.187 150.506 104.369 150.407 104.561C150.209 104.963 150.2 105.452 150.261 105.912C150.295 106.141 150.354 106.373 150.469 106.571C150.58 106.766 150.756 106.939 150.967 106.979C151.177 107.023 151.424 106.961 151.582 106.816C151.749 106.676 151.749 106.417 151.604 106.262C151.458 106.101 151.211 106.03 150.988 106.055C150.762 106.083 150.549 106.209 150.394 106.386C150.082 106.735 149.992 107.31 150.283 107.694C150.561 108.077 151.13 108.241 151.576 108.059C151.7 108.006 151.823 107.929 151.897 107.827C151.972 107.728 151.978 107.601 151.919 107.493C151.795 107.264 151.511 107.146 151.239 107.131C150.691 107.094 150.119 107.471 150.023 108.009C149.915 108.541 150.2 109.129 150.701 109.333C150.942 109.451 151.217 109.531 151.458 109.482C151.709 109.435 151.845 109.194 151.891 108.94L151.897 108.987C151.826 108.81 151.678 108.696 151.495 108.684C151.313 108.674 151.121 108.736 150.948 108.826C150.595 109.005 150.311 109.29 150.11 109.621C149.903 109.955 149.763 110.323 149.624 110.691C149.482 111.059 149.343 111.421 149.207 111.783C148.65 113.221 148.087 114.585 147.537 115.865C146.436 118.432 145.365 120.671 144.441 122.515C143.98 123.436 143.553 124.262 143.142 124.964C142.73 125.666 142.338 126.242 141.988 126.69C141.305 127.553 140.816 127.94 140.816 127.94Z" fill="white"/>
<path d="M155.706 81.7792C155.678 81.7854 155.718 81.34 155.424 80.6348C155.14 79.942 154.435 79.0018 153.204 78.4111C152.591 78.1234 151.858 77.941 151.064 77.8884C150.266 77.8358 149.409 77.9131 148.524 78.0832C146.752 78.408 144.89 79.175 142.806 79.4874C141.76 79.6235 140.727 79.6173 139.744 79.4843C138.76 79.3451 137.839 79.0668 136.991 78.7389C135.306 78.043 133.945 77.0719 132.983 76.0915C132.015 75.1141 131.39 74.177 131.041 73.4935C130.942 73.3296 130.87 73.1749 130.812 73.0388C130.753 72.9058 130.703 72.7945 130.66 72.6955C130.623 72.6089 130.595 72.5409 130.57 72.4852C130.552 72.4357 130.543 72.411 130.546 72.411C130.549 72.411 130.561 72.4326 130.586 72.479C130.614 72.5347 130.648 72.5996 130.691 72.6831C130.737 72.7759 130.79 72.8873 130.855 73.0172C130.917 73.1502 130.991 73.3017 131.096 73.4625C131.458 74.1337 132.095 75.0523 133.063 76.0079C134.028 76.9698 135.38 77.9193 137.047 78.5997C137.885 78.9214 138.794 79.1936 139.765 79.3266C140.737 79.4565 141.754 79.4596 142.784 79.3266C144.841 79.0173 146.706 78.2564 148.5 77.9348C149.393 77.7678 150.263 77.6935 151.076 77.7523C151.886 77.8111 152.632 78.0028 153.256 78.3059C154.509 78.9245 155.211 79.8956 155.486 80.607C155.635 80.9658 155.672 81.2658 155.703 81.4668C155.706 81.5596 155.709 81.6369 155.712 81.6957C155.709 81.7513 155.709 81.7792 155.706 81.7792Z" fill="#455A64"/>
<path d="M151.038 75.1139C151.038 75.1201 150.96 75.1325 150.815 75.1541C150.67 75.1727 150.453 75.2067 150.178 75.2531C149.627 75.3459 148.836 75.5191 147.864 75.7634C146.893 76.0047 145.73 76.2954 144.407 76.4346C143.086 76.5738 141.611 76.5614 140.092 76.3418C138.574 76.1222 137.157 75.717 135.926 75.2222C134.692 74.7242 133.637 74.1521 132.799 73.5985C132.385 73.317 132.011 73.0572 131.698 72.8098C131.392 72.5562 131.117 72.3489 130.913 72.1572C130.718 71.9747 130.56 71.8263 130.442 71.7149C130.337 71.6129 130.282 71.5572 130.285 71.5541C130.288 71.551 130.35 71.5974 130.464 71.6933C130.588 71.7984 130.752 71.9376 130.953 72.1108C131.163 72.2964 131.441 72.4943 131.754 72.7417C132.069 72.9799 132.447 73.2335 132.861 73.5057C134.534 74.5758 137.092 75.7573 140.117 76.1872C141.623 76.4067 143.08 76.4222 144.391 76.2923C145.703 76.1655 146.862 75.8872 147.84 75.6583C148.814 75.4294 149.612 75.2717 150.169 75.1974C150.447 75.1603 150.663 75.1356 150.812 75.1263C150.957 75.1108 151.038 75.1078 151.038 75.1139Z" fill="#455A64"/>
<path d="M151.419 97.3839C151.415 97.3918 151.364 97.376 151.265 97.3404C151.166 97.3008 151.023 97.2375 150.853 97.1266C150.513 96.9129 150.062 96.5171 149.694 95.8917C149.322 95.2703 149.076 94.4272 148.981 93.4813C148.89 92.5392 148.89 91.4983 148.977 90.4098C149.068 89.3213 149.25 88.2962 149.484 87.3819C149.713 86.4676 149.99 85.6483 150.366 85.0308C150.739 84.4094 151.19 84.0096 151.53 83.8038C151.7 83.6969 151.843 83.6336 151.942 83.594C152.041 83.5584 152.096 83.5465 152.096 83.5505C152.104 83.5663 151.894 83.6415 151.574 83.8671C151.253 84.0927 150.834 84.4925 150.489 85.102C150.137 85.7116 149.884 86.5151 149.666 87.4254C149.444 88.3318 149.27 89.349 149.179 90.4217C149.092 91.4943 149.088 92.5274 149.167 93.4575C149.25 94.3837 149.472 95.203 149.816 95.8126C150.153 96.4261 150.576 96.8258 150.893 97.0554C151.217 97.2889 151.431 97.3641 151.419 97.3839Z" fill="#263238"/>
<path d="M137.953 96.7237L134.78 97.3454C134.3 97.4382 133.84 97.1289 133.744 96.6495L133.722 96.532C133.629 96.0526 133.939 95.5917 134.418 95.4959L137.591 94.8742C138.071 94.7814 138.531 95.0907 138.627 95.5701L138.649 95.6876C138.742 96.167 138.429 96.6309 137.953 96.7237Z" fill="#455A64"/>
<path d="M138.194 95.3504L152.869 90.7483C153.231 90.6339 153.618 90.8349 153.735 91.1968C153.856 91.5741 153.64 91.9731 153.256 92.0751L138.25 96.1298L138.194 95.3504Z" fill="#455A64"/>
<path d="M149.041 93.3279C149.038 93.3186 149.211 93.2567 149.527 93.1578C149.87 93.0526 150.322 92.9165 150.869 92.7495C151.432 92.5763 152.125 92.3938 152.855 92.1526C153.031 92.0845 153.204 91.9918 153.334 91.8557C153.461 91.7227 153.544 91.534 153.541 91.3454C153.541 91.1567 153.421 90.9866 153.238 90.9247C153.056 90.8629 152.836 90.8907 152.626 90.9433C150.918 91.4907 149.378 91.9887 148.225 92.3598C147.68 92.5299 147.229 92.6691 146.885 92.7742C146.567 92.867 146.391 92.9165 146.387 92.9041C146.384 92.8949 146.554 92.8268 146.867 92.7124C147.207 92.5949 147.652 92.4371 148.191 92.2485C149.313 91.868 150.853 91.3392 152.585 90.7856C152.808 90.7299 153.053 90.6928 153.291 90.7732C153.532 90.8505 153.702 91.0979 153.699 91.3423C153.702 91.5804 153.6 91.8031 153.445 91.9639C153.288 92.1217 153.096 92.2206 152.907 92.2918C152.149 92.533 151.472 92.6969 150.9 92.8608C150.349 93.0062 149.892 93.1268 149.545 93.2196C149.224 93.3 149.044 93.3402 149.041 93.3279Z" fill="#263238"/>
<path d="M125.046 82.0883C125.547 83.8512 123.756 85.3636 123.125 87.0863C122.516 88.7502 123.035 90.6152 123.787 92.2235C124.538 93.8287 125.528 95.3534 125.912 97.0854C126.861 101.354 123.001 105.953 123.737 110.261C124.006 111.832 124.637 113.468 125.185 114.965C125.732 116.459 125.695 117.829 125.185 119.335C124.35 121.803 122.933 122.966 121.937 125.376C121.427 126.607 121.467 127.986 121.492 129.316C121.517 130.646 121.507 132.038 120.917 133.231C120.323 134.425 118.968 135.347 117.681 135.001C119.027 136.584 121.513 137.057 123.348 136.08C125.039 135.177 125.986 133.346 126.796 131.608C130.718 123.192 132.793 122.481 132.685 113.196C132.679 112.599 132.567 103.299 132.567 103.299C132.567 103.299 131.098 102.906 130.251 102.322C125.868 99.2968 125.71 93.9091 125.744 89.7338" fill="#263238"/>
<path d="M133.811 110.258V113.762C133.811 113.762 131.117 127.51 130.306 135.146C129.499 142.782 129.36 144.799 129.36 144.799C129.36 144.799 131.293 147.814 135.335 142.693C139.378 137.571 140.098 136.764 141.713 136.674C141.713 136.674 139.736 115.2 139.826 114.393C139.916 113.586 140.544 112.865 140.544 112.865L133.811 110.258Z" fill="#FFBE9D"/>
<path d="M139.113 102.353C139.113 102.353 134.711 108.192 134.35 109.003C133.991 109.81 133.811 110.261 133.811 110.261L140.551 112.866L147.111 105.678L149.535 99.3004L148.818 91.7538C148.818 91.7538 147.38 91.6641 147.111 92.9229C146.842 94.1817 146.931 95.3477 146.931 95.3477L144.918 93.7302L141.673 92.7405C141.673 92.7405 140.91 93.9992 142.168 94.6271C143.427 95.2549 143.786 95.2549 143.786 95.2549L144.918 97.2313L144.423 99.4457L142.131 97.2962C141.67 96.8632 140.968 96.8199 140.458 97.191L138.977 98.2674L137.588 97.6457L134.894 100.015L133.815 101.005C133.815 101.005 134.532 102.353 135.97 101.722C137.408 101.094 137.408 101.094 137.408 101.094L139.113 102.353Z" fill="#FFBE9D"/>
<path d="M133.811 111.443C133.811 111.443 133.805 111.381 133.808 111.257C133.811 111.133 133.823 110.948 133.851 110.71C133.882 110.468 133.928 110.171 134.021 109.828C134.12 109.488 134.235 109.086 134.494 108.696C135.503 107.15 137.089 104.997 139.066 102.322L139.078 102.402C138.546 102.009 137.968 101.586 137.368 101.146L137.429 101.153C137.139 101.279 136.842 101.409 136.542 101.542C136.239 101.669 135.942 101.83 135.595 101.91C135.255 101.988 134.869 101.963 134.544 101.79C134.213 101.626 133.947 101.36 133.752 101.035L133.724 100.992L133.764 100.955C134.924 99.866 136.211 98.7681 137.535 97.5928L137.575 97.5588L137.621 97.5866C137.992 97.8062 138.404 98.0475 138.818 98.2918L138.738 98.2949C139.199 97.9918 139.666 97.6856 140.139 97.3732C140.38 97.2186 140.603 97.0608 140.866 96.9031C141.147 96.7608 141.509 96.7887 141.766 96.9835C142.656 97.7351 143.566 98.5052 144.493 99.2877L144.364 99.331C144.512 98.666 144.673 97.9454 144.834 97.2155L144.843 97.2712C144.484 96.6464 144.101 95.9722 143.711 95.2948L143.782 95.335C143.569 95.3103 143.408 95.2484 143.222 95.1835C143.046 95.1185 142.87 95.0443 142.693 94.967C142.517 94.8897 142.344 94.8031 142.168 94.7196C142.081 94.6763 141.991 94.6206 141.905 94.568C141.827 94.5 141.738 94.4474 141.673 94.3639C141.466 94.1443 141.345 93.8381 141.36 93.5381C141.367 93.2381 141.456 92.9566 141.599 92.6968L141.629 92.6412L141.691 92.6597C142.786 92.9938 143.869 93.3247 144.933 93.6494L144.948 93.6525L144.96 93.6618C145.641 94.2092 146.312 94.7474 146.974 95.2794L146.847 95.3474C146.804 94.534 146.863 93.7329 147.017 92.9566C147.085 92.5608 147.32 92.168 147.673 91.9607C148.019 91.7473 148.418 91.6638 148.817 91.6731H148.882L148.888 91.7412C149.142 94.4226 149.38 96.9526 149.6 99.2877V99.3031L149.594 99.3186C148.694 101.669 147.88 103.803 147.156 105.693L147.153 105.702L147.147 105.708C144.991 108.056 143.256 109.946 142.053 111.251C141.456 111.897 140.992 112.398 140.671 112.742C140.516 112.909 140.395 113.035 140.309 113.125C140.228 113.212 140.182 113.252 140.182 113.252C140.182 113.252 140.219 113.202 140.296 113.113C140.38 113.02 140.494 112.89 140.646 112.717C140.961 112.367 141.416 111.86 142.007 111.204C143.198 109.89 144.92 107.988 147.064 105.628L147.051 105.647C147.769 103.754 148.576 101.617 149.467 99.2629L149.464 99.2939C149.238 96.9557 148.997 94.4288 148.737 91.7473L148.808 91.8154C148.449 91.8092 148.066 91.8865 147.756 92.0814C147.441 92.27 147.237 92.6072 147.172 92.9783C147.02 93.736 146.965 94.534 147.005 95.3258L147.014 95.502L146.878 95.3907C146.216 94.8587 145.545 94.3206 144.865 93.7732L144.892 93.7886C143.825 93.4639 142.746 93.136 141.648 92.802L141.741 92.768C141.614 92.9968 141.531 93.2659 141.524 93.5288C141.512 93.7948 141.614 94.0515 141.793 94.2433C141.849 94.3175 141.933 94.3639 142.001 94.4226C142.081 94.469 142.158 94.5185 142.245 94.5618C142.418 94.6484 142.591 94.7319 142.765 94.8062C143.105 94.9546 143.47 95.1124 143.785 95.1618L143.838 95.1711L143.856 95.2051C144.246 95.8825 144.63 96.5567 144.988 97.1815L145.004 97.2093L144.998 97.2402C144.834 97.967 144.673 98.6877 144.524 99.3557L144.497 99.4825L144.398 99.399C143.473 98.6165 142.567 97.8495 141.682 97.098C141.472 96.9402 141.172 96.9155 140.94 97.033C140.708 97.1691 140.463 97.3423 140.228 97.4907C139.755 97.8 139.288 98.1093 138.827 98.4093L138.787 98.4341L138.747 98.4093C138.333 98.1619 137.921 97.9206 137.553 97.7011L137.64 97.6918C136.316 98.864 135.023 99.9588 133.863 101.044L133.879 100.964C134.052 101.255 134.309 101.518 134.609 101.663C134.909 101.821 135.255 101.845 135.574 101.774C135.892 101.703 136.192 101.542 136.498 101.416C136.802 101.283 137.098 101.156 137.389 101.029L137.42 101.013L137.448 101.035C138.045 101.477 138.62 101.904 139.152 102.297L139.199 102.331L139.164 102.377C137.176 105.043 135.574 107.187 134.556 108.718C134.299 109.095 134.179 109.494 134.077 109.828C133.981 110.168 133.928 110.462 133.894 110.7C133.86 110.938 133.845 111.121 133.836 111.245C133.817 111.378 133.811 111.443 133.811 111.443Z" fill="#EB996E"/>
<path d="M142.149 103.704C142.118 103.698 142.236 103.228 142.285 102.461C142.301 102.08 142.279 101.617 142.072 101.162C141.868 100.707 141.463 100.314 140.999 99.9557C140.065 99.2351 139.168 98.6567 138.506 98.2577C138.197 98.0752 137.934 97.9206 137.717 97.7938C137.532 97.6855 137.427 97.6206 137.433 97.6113C137.439 97.602 137.55 97.6453 137.745 97.7381C137.943 97.8309 138.221 97.9732 138.562 98.1588C139.242 98.5361 140.158 99.1021 141.098 99.8289C141.568 100.191 141.992 100.608 142.208 101.1C142.422 101.592 142.431 102.08 142.4 102.467C142.366 102.86 142.298 103.166 142.248 103.379C142.196 103.593 142.162 103.707 142.149 103.704Z" fill="#EB996E"/>
<path d="M146.865 100.902C146.84 100.896 146.905 100.59 146.979 100.095C147.053 99.6002 147.124 98.9074 147.118 98.1435C147.112 97.3795 147.029 96.6898 146.945 96.195C146.865 95.7001 146.794 95.3939 146.818 95.3878C146.837 95.3816 146.945 95.6785 147.06 96.1733C147.171 96.6682 147.273 97.3672 147.279 98.1435C147.285 98.9198 147.196 99.6188 147.09 100.117C146.988 100.612 146.883 100.905 146.865 100.902Z" fill="#EB996E"/>
<path d="M116.831 77.9852L113.608 72.3037C115.034 69.9872 115.86 67.2624 115.86 64.3458C115.86 55.9519 109.055 49.1476 100.661 49.1476C92.2675 49.1476 85.4632 55.9519 85.4632 64.3458C85.4632 72.7398 92.2675 79.544 100.661 79.544C104.166 79.544 107.391 78.3533 109.962 76.3615L109.955 76.3677L116.831 77.9852Z" fill="white"/>
<path d="M116.832 77.9841C116.55 77.9192 114.345 77.4119 109.947 76.4037L109.885 76.3913L109.922 76.3418L109.928 76.3356L109.984 76.3913C109.118 77.0625 108.079 77.7243 106.857 78.2748C105.636 78.8161 104.235 79.2584 102.691 79.4625C101.921 79.5615 101.114 79.6233 100.285 79.5831C99.8705 79.5584 99.4499 79.5491 99.0262 79.5151C98.6055 79.4501 98.1756 79.3852 97.7426 79.3202C96.023 78.98 94.2632 78.3274 92.624 77.3099C90.9848 76.2954 89.4662 74.9191 88.2507 73.2242C87.0352 71.5356 86.1136 69.5314 85.6837 67.3571C85.2569 65.1829 85.294 62.854 85.8631 60.5993C86.4383 58.3539 87.5115 56.158 89.1198 54.3517L89.7415 53.6682C89.9456 53.4394 90.1899 53.2507 90.4095 53.0373C90.6415 52.8393 90.8487 52.6136 91.0992 52.4373C91.3436 52.2548 91.5848 52.0723 91.8291 51.8929C92.0642 51.7012 92.324 51.5496 92.5838 51.395C92.8405 51.2373 93.0972 51.0826 93.3539 50.928C93.623 50.7981 93.8921 50.6651 94.1611 50.5352C94.4333 50.4115 94.6931 50.263 94.9746 50.1733C97.1797 49.298 99.5334 48.964 101.785 49.1279C104.033 49.2888 106.189 49.9352 108.036 50.9744C109.888 52.0043 111.45 53.3837 112.656 54.9208C113.866 56.4611 114.719 58.1559 115.248 59.8477C115.774 61.5457 115.916 63.2313 115.91 64.7901C115.867 66.352 115.582 67.7932 115.168 69.0582C114.753 70.3232 114.209 71.4118 113.646 72.3273V72.2871C115.687 75.9398 116.699 77.746 116.832 77.9841C116.696 77.746 115.663 75.9521 113.575 72.3211L113.563 72.3026L113.575 72.284C114.128 71.3685 114.667 70.283 115.072 69.0242C115.477 67.7654 115.755 66.3365 115.792 64.7839C115.792 63.2344 115.647 61.5642 115.121 59.8817C114.592 58.2054 113.745 56.526 112.542 55.0043C111.345 53.4827 109.792 52.1218 107.958 51.1012C106.127 50.0743 103.996 49.4372 101.77 49.2795C99.5427 49.1218 97.2138 49.4527 95.0302 50.3187C94.7488 50.4084 94.4921 50.5537 94.223 50.6775C93.957 50.8074 93.691 50.9342 93.425 51.0641C93.1714 51.2187 92.9178 51.3733 92.6642 51.528C92.4075 51.6826 92.1508 51.8342 91.9188 52.0228C91.6776 52.2022 91.4394 52.3816 91.1982 52.561C90.9508 52.7342 90.7466 52.96 90.5178 53.1548C90.2982 53.362 90.0569 53.5507 89.8559 53.7765L89.2435 54.4507C87.6538 56.2384 86.5899 58.4095 86.0208 60.6302C85.4548 62.8601 85.4177 65.1674 85.8383 67.3169C86.262 69.4726 87.1713 71.4551 88.3744 73.1284C89.5775 74.8047 91.0776 76.1717 92.7013 77.18C94.3251 78.1913 96.0663 78.8439 97.7705 79.1841C98.2004 79.2491 98.6241 79.3171 99.0416 79.379C99.4623 79.4161 99.8798 79.4254 100.291 79.4501C101.114 79.4934 101.912 79.4316 102.679 79.3357C104.213 79.1377 105.605 78.7017 106.82 78.1697C108.036 77.6284 109.069 76.9759 109.938 76.314L110.182 76.1284L109.996 76.3697L109.99 76.3758L109.969 76.3109C114.351 77.3872 116.553 77.9192 116.832 77.9841Z" fill="#263238"/>
<path d="M97.3676 64.3457C97.3676 65.0261 96.814 65.5797 96.1336 65.5797C95.4532 65.5797 94.8995 65.0261 94.8995 64.3457C94.8995 63.6653 95.4532 63.1116 96.1336 63.1116C96.814 63.1116 97.3676 63.6653 97.3676 64.3457Z" fill="#01C7E2"/>
<path d="M102.304 64.3451C102.304 65.0255 101.751 65.5791 101.07 65.5791C100.39 65.5791 99.8361 65.0255 99.8361 64.3451C99.8361 63.6647 100.39 63.111 101.07 63.111C101.754 63.111 102.304 63.6647 102.304 64.3451Z" fill="#01C7E2"/>
<path d="M107.231 63.7263C107.572 64.317 107.371 65.0717 106.78 65.4119C106.189 65.7521 105.434 65.5511 105.094 64.9604C104.754 64.3696 104.955 63.615 105.546 63.2748C106.136 62.9345 106.891 63.1387 107.231 63.7263Z" fill="#01C7E2"/>
<path d="M177.649 161.308C177.649 161.352 146.207 161.389 107.432 161.389C68.6419 161.389 37.2063 161.352 37.2063 161.308C37.2063 161.265 68.6419 161.228 107.432 161.228C146.207 161.228 177.649 161.265 177.649 161.308Z" fill="#263238"/>
<path d="M137.909 161.385C137.909 161.385 140.006 157.803 144.525 157.648C149.044 157.494 151.301 161.385 151.301 161.385H137.909Z" fill="#455A64"/>
<path d="M146.57 161.271C146.536 161.271 146.529 161.005 146.437 160.597C146.347 160.189 146.149 159.638 145.793 159.109C145.435 158.584 144.995 158.197 144.646 157.962C144.3 157.727 144.055 157.622 144.068 157.591C144.074 157.572 144.34 157.631 144.72 157.844C145.101 158.055 145.577 158.447 145.954 158.998C146.328 159.552 146.517 160.142 146.573 160.572C146.632 161.005 146.588 161.274 146.57 161.271Z" fill="#263238"/>
<path d="M135.113 161.222V161.194C135.098 160.247 134.324 159.487 133.378 159.487H94.9216C93.9628 159.487 93.1865 160.263 93.1865 161.222H135.113Z" fill="#455A64"/>
<path d="M61.4901 93.8535C61.4901 94.6638 62.0962 142.962 62.0962 142.962L97.9701 151.594H100.936L99.0495 84.1636H96.3525L61.4901 93.8535Z" fill="#263238"/>
<path d="M69.0772 140.942L57.9585 161.321H68.1216C66.303 161.138 84.2136 161.321 84.2136 161.321L68.1216 157.052L73.1536 145.624L72.7237 140.942H69.0772Z" fill="#263238"/>
<path d="M69.3238 144.703L68.1207 106.723L79.0446 105.677L80.39 146.228L76.4899 146.425L69.3238 144.703Z" fill="#263238"/>
<path d="M81.9192 147.731C81.9192 147.731 81.9161 147.672 81.913 147.555C81.9099 147.434 81.9099 147.261 81.9068 147.035C81.9037 146.571 81.9006 145.894 81.8944 145.018C81.8882 143.252 81.882 140.688 81.8728 137.466C81.8666 131.011 81.8542 121.927 81.8449 111.393L81.9222 111.47C77.8799 111.47 73.5314 111.473 69.0344 111.473L69.1148 111.393C69.1148 111.947 69.1148 112.547 69.1148 113.147C69.1086 123.418 69.1055 132.981 69.1024 140.945V140.964L69.0932 140.979C65.7467 147.112 62.9724 152.2 61.0301 155.76C60.059 157.532 59.295 158.924 58.7723 159.876C58.5126 160.347 58.3115 160.708 58.1754 160.956C58.0393 161.2 57.9651 161.324 57.9651 161.324C57.9651 161.324 58.027 161.194 58.1569 160.947C58.2899 160.696 58.4847 160.331 58.7383 159.858C59.2517 158.902 60.0064 157.504 60.9621 155.723C62.892 152.157 65.6508 147.06 68.9756 140.914L68.9663 140.945C68.9633 132.978 68.9571 123.418 68.954 113.147C68.954 112.547 68.954 111.95 68.954 111.393V111.313H69.0344C73.5314 111.313 77.8799 111.316 81.9222 111.316H81.9996V111.393C81.9872 121.927 81.9779 131.011 81.9717 137.466C81.9625 140.688 81.9532 143.255 81.9501 145.018C81.9439 145.897 81.9408 146.574 81.9377 147.035C81.9346 147.261 81.9315 147.434 81.9315 147.555C81.9222 147.672 81.9192 147.731 81.9192 147.731Z" fill="#455A64"/>
<path d="M73.1527 145.624C73.1929 145.643 71.6465 149.218 69.698 153.613C67.7495 158.008 66.1351 161.556 66.0949 161.537C66.0546 161.518 67.6011 157.943 69.5496 153.548C71.498 149.153 73.1125 145.606 73.1527 145.624Z" fill="#455A64"/>
<path d="M97.9711 151.594C97.9711 151.594 97.9649 151.535 97.9618 151.42C97.9587 151.3 97.9556 151.13 97.9525 150.91C97.9463 150.456 97.9401 149.797 97.9278 148.949C97.9154 147.248 97.8752 144.783 97.8164 141.743C97.702 135.656 97.4267 127.253 97.0896 117.971C96.7525 108.687 96.4958 100.28 96.4092 94.1906C96.3628 91.1473 96.3442 88.6823 96.3504 86.9812C96.3535 86.1338 96.3566 85.475 96.3566 85.0204C96.3597 84.8008 96.3597 84.6307 96.3628 84.51C96.3659 84.3956 96.369 84.3368 96.369 84.3368C96.369 84.3368 96.3752 84.3956 96.3783 84.51C96.3814 84.6307 96.3845 84.8008 96.3875 85.0204C96.3937 85.475 96.3999 86.1338 96.4123 86.9812C96.4247 88.6823 96.4649 91.1473 96.5236 94.1875C96.6381 100.274 96.9133 108.677 97.2504 117.965C97.5876 127.247 97.8443 135.653 97.9309 141.74C97.9773 144.783 97.9958 147.248 97.9896 148.949C97.9865 149.797 97.9835 150.456 97.9835 150.91C97.9804 151.13 97.9804 151.3 97.9773 151.42C97.9773 151.535 97.9711 151.594 97.9711 151.594Z" fill="#455A64"/>
<path d="M79.9609 111.109C80.0042 111.109 80.0413 119.187 80.0413 129.149C80.0413 139.114 80.0042 147.19 79.9609 147.19C79.9176 147.19 79.8805 139.114 79.8805 129.149C79.8805 119.187 79.9176 111.109 79.9609 111.109Z" fill="#455A64"/>
<path d="M60.6336 158.138C60.6305 158.141 60.5748 158.067 60.4789 157.922C60.4294 157.844 60.3707 157.758 60.3026 157.653C60.2284 157.547 60.1542 157.424 60.0799 157.275C59.7459 156.706 59.3655 155.815 59.0995 154.662C58.8366 153.508 58.7469 152.082 58.9077 150.527C59.084 148.974 59.5016 147.285 60.2469 145.64C60.6212 144.814 61.1068 144.066 61.648 143.41C61.7779 143.24 61.914 143.079 62.0563 142.928C62.1985 142.773 62.3346 142.618 62.4769 142.473C62.7738 142.191 63.0552 141.904 63.3614 141.659C63.9491 141.143 64.5738 140.732 65.1584 140.357C65.4646 140.19 65.7491 140.014 66.0398 139.872C66.3337 139.739 66.6058 139.587 66.8842 139.485C67.979 139.04 68.9224 138.823 69.5811 138.768C69.909 138.712 70.1657 138.734 70.3389 138.721C70.5121 138.718 70.6049 138.718 70.6049 138.724C70.6049 138.731 70.5152 138.74 70.342 138.755C70.1688 138.777 69.9121 138.768 69.5904 138.833C68.9378 138.907 68.01 139.139 66.9306 139.593C66.6553 139.696 66.3893 139.85 66.0986 139.983C65.8141 140.125 65.5295 140.302 65.2295 140.472C64.6511 140.846 64.0388 141.257 63.4604 141.774C63.1573 142.018 62.882 142.303 62.5882 142.584C62.449 142.73 62.313 142.884 62.1738 143.036C62.0315 143.184 61.8985 143.348 61.7717 143.515C61.2397 144.165 60.7604 144.904 60.3923 145.714C59.6562 147.341 59.2356 149.014 59.0531 150.551C58.883 152.092 58.9603 153.502 59.2078 154.646C59.4552 155.791 59.817 156.678 60.1325 157.254C60.2006 157.402 60.2717 157.529 60.3397 157.637C60.4016 157.742 60.4573 157.835 60.5037 157.912C60.5933 158.055 60.6366 158.135 60.6336 158.138Z" fill="#455A64"/>
<path d="M133.809 91.777C133.809 91.7299 133.312 91.656 132.498 91.5753C132.29 91.5618 132.095 91.5215 132.061 91.3736C132.008 91.219 132.095 90.9769 132.189 90.7147C132.377 90.1702 132.566 89.6054 132.774 89.0138C133.581 86.5868 134.166 84.5967 134.072 84.5631C133.978 84.5295 133.251 86.4725 132.445 88.8928C132.25 89.4911 132.061 90.0626 131.887 90.6072C131.813 90.8626 131.685 91.1517 131.793 91.4744C131.853 91.6358 132.001 91.7501 132.135 91.7837C132.27 91.824 132.384 91.8173 132.485 91.824C133.299 91.8442 133.803 91.824 133.809 91.777Z" fill="#263238"/>
<defs>
<filter id="filter0_d" x="0" y="0.642334" width="211.358" height="211.358" filterUnits="userSpaceOnUse" color-interpolation-filters="sRGB">
<feFlood flood-opacity="0" result="BackgroundImageFix"/>
<feColorMatrix in="SourceAlpha" type="matrix" values="0 0 0 0 0 0 0 0 0 0 0 0 0 0 0 0 0 0 127 0" result="hardAlpha"/>
<feOffset dy="6"/>
<feGaussianBlur stdDeviation="5"/>
<feColorMatrix type="matrix" values="0 0 0 0 0 0 0 0 0 0 0 0 0 0 0 0 0 0 0.15 0"/>
<feBlend mode="normal" in2="BackgroundImageFix" result="effect1_dropShadow"/>
<feBlend mode="normal" in="SourceGraphic" in2="effect1_dropShadow" result="shape"/>
</filter>
</defs>
</svg>
