<svg width="212" height="212" viewBox="0 0 212 212" fill="none" xmlns="http://www.w3.org/2000/svg">
<g filter="url(#filter0_d)">
<circle cx="105.679" cy="100.321" r="95.6788" fill="#F8F9FA"/>
</g>
<path d="M54.2119 160.81C46.1233 160.81 40.1637 158.771 36.3331 154.695C32.5025 150.62 30.4706 143.813 30.2414 134.28L47.2072 132.061C47.2072 134.758 47.3549 137.026 47.6501 138.868C47.9454 140.709 48.3727 142.116 48.9322 143.083C49.4916 144.054 50.0899 144.734 50.7309 145.131C51.3719 145.523 52.1179 145.725 52.9765 145.725C55.2142 145.725 56.3292 144.113 56.3292 140.892C56.3292 137.733 55.6144 135.022 54.1847 132.753C52.755 130.484 50.459 128.002 47.3043 125.305L42.1256 120.915C40.2531 119.303 38.7146 117.873 37.5141 116.622C36.3137 115.371 35.0977 113.837 33.8661 112.011C32.6346 110.185 31.7216 108.172 31.1272 105.97C30.5367 103.767 30.2414 101.315 30.2414 98.6192C30.2414 91.5524 32.3704 86.1017 36.6283 82.2711C40.8863 78.4405 46.7643 76.5096 54.2585 76.4747C67.6734 76.4747 74.4295 84.4312 74.5305 100.344L57.1723 102.069C57.1723 99.9323 57.149 98.3317 57.0985 97.2595C57.0479 96.1911 56.9081 95.0877 56.6789 93.9572C56.4497 92.8228 56.0767 92.0341 55.5678 91.5912C55.0588 91.1483 54.3751 90.9269 53.5204 90.9269C52.3043 90.958 51.3836 91.6029 50.7581 92.85C50.1326 94.1009 49.8218 95.3675 49.8218 96.6495C49.8218 97.341 49.8801 98.0131 49.9928 98.6736C50.1093 99.3302 50.2142 99.9168 50.3152 100.426C50.4124 100.935 50.626 101.494 50.9563 102.104C51.2865 102.714 51.5312 103.2 51.6944 103.557C51.8576 103.918 52.1878 104.396 52.6812 104.987C53.1746 105.581 53.5009 105.989 53.668 106.218C53.8312 106.447 54.2274 106.859 54.8529 107.45C55.4784 108.04 55.8552 108.394 55.9873 108.51C56.1194 108.627 56.5468 109.004 57.2694 109.645C57.992 110.286 58.3883 110.639 58.4543 110.705L63.1901 114.897C65.1948 116.704 66.8964 118.398 68.295 119.979C69.6936 121.556 71.034 123.374 72.316 125.43C73.5981 127.485 74.5616 129.719 75.2026 132.139C75.8436 134.556 76.1661 137.158 76.1661 139.956C76.1661 145.841 74.1536 150.791 70.1249 154.8C66.0884 158.806 60.7853 160.81 54.2119 160.81Z" fill="#D0D1DE"/>
<path d="M84.8872 159.528V77.7568H123.158V91.1717H104.911V109.42H118.524V123.328H104.911V146.164H123.357V159.528H84.8872Z" fill="#D0D1DE"/>
<path d="M167.521 159.008C164.215 160.208 160.229 160.807 155.559 160.807C150.893 160.807 146.915 160.204 143.624 159.008C140.338 157.807 137.723 156.016 135.784 153.631C133.842 151.246 132.447 148.437 131.593 145.197C130.738 141.96 130.311 138.138 130.311 133.732V103.549C130.311 99.1437 130.738 95.3209 131.593 92.0847C132.447 88.8484 133.846 86.0357 135.784 83.6503C137.723 81.2688 140.338 79.4739 143.624 78.2735C146.911 77.073 150.893 76.4747 155.559 76.4747C160.229 76.4747 164.215 77.0769 167.521 78.2735C170.823 79.4739 173.454 81.2649 175.412 83.6503C177.37 86.0357 178.78 88.8446 179.654 92.0847C180.524 95.3248 180.959 99.1476 180.959 103.549V133.732C180.959 138.138 180.524 141.96 179.654 145.197C178.784 148.437 177.37 151.246 175.412 153.631C173.454 156.016 170.823 157.811 167.521 159.008ZM155.559 146.949C156.647 146.949 157.533 146.712 158.224 146.234C158.912 145.756 159.405 145.057 159.704 144.136C160 143.215 160.186 142.376 160.272 141.622C160.353 140.865 160.392 139.929 160.392 138.81V98.4211C160.392 97.3022 160.349 96.3659 160.272 95.6084C160.19 94.8508 160 94.0233 159.704 93.1181C159.405 92.2129 158.912 91.5213 158.224 91.0474C157.533 90.5695 156.647 90.3325 155.559 90.3325C154.673 90.3325 153.916 90.5151 153.29 90.8764C152.665 91.2377 152.199 91.6573 151.884 92.1352C151.573 92.613 151.332 93.2696 151.169 94.1087C151.006 94.9479 150.913 95.6356 150.897 96.1795C150.882 96.7234 150.874 97.4693 150.874 98.425V138.817C150.874 139.738 150.882 140.48 150.897 141.036C150.913 141.595 151.006 142.294 151.169 143.134C151.332 143.973 151.573 144.629 151.884 145.107C152.199 145.581 152.665 146.012 153.29 146.389C153.916 146.766 154.67 146.949 155.559 146.949Z" fill="#D0D1DE"/>
<path d="M108.78 54.1087C108.78 54.1087 111.083 62.4109 112.214 63.7707C113.345 65.1304 117.047 67.1312 117.047 67.1312L116.064 68.8678C116.064 68.8678 109.343 65.4412 108.174 62.6402C107.494 61.0085 107.043 59.5982 106.814 58.3356C106.627 57.306 105.87 54.7497 106.247 53.7318C106.495 53.0636 108.251 52.7101 108.78 54.1087Z" fill="#00BAD1"/>
<path opacity="0.65" d="M108.78 54.1087C108.78 54.1087 111.083 62.4109 112.214 63.7707C113.345 65.1304 117.047 67.1312 117.047 67.1312L116.064 68.8678C116.064 68.8678 109.343 65.4412 108.174 62.6402C107.494 61.0085 107.043 59.5982 106.814 58.3356C106.627 57.306 105.87 54.7497 106.247 53.7318C106.495 53.0636 108.251 52.7101 108.78 54.1087Z" fill="#00A1CC"/>
<path d="M131.849 93.7435L133.546 92.1585C133.546 92.1585 140.334 91.6612 140.73 92.2556C141.126 92.85 134.296 96.0745 133.418 96.0163C132.54 95.958 131.961 94.4001 131.849 93.7435Z" fill="#110239"/>
<path d="M119.409 70.7871C119.409 70.7871 125.827 69.1554 126.356 70.2121C126.884 71.2688 133.547 92.1585 133.547 92.1585L131.849 93.7436C131.849 93.7436 124.705 76.1096 122.638 74.2681C120.567 72.4266 118.454 71.5175 119.409 70.7871Z" fill="#F88667"/>
<path d="M119.409 70.7871C119.409 70.7871 125.827 69.1554 126.356 70.2121C126.884 71.2688 133.547 92.1585 133.547 92.1585L131.849 93.7436C131.849 93.7436 124.705 76.1096 122.638 74.2681C120.567 72.4266 118.454 71.5175 119.409 70.7871Z" fill="#E45940"/>
<path d="M116.103 66.9409C116.588 66.8088 116.992 66.6495 117.435 66.4047C117.793 66.2105 118.139 66.024 118.566 66.0823C118.873 66.125 121.336 67.1506 120.679 67.613C120.466 67.7606 119.933 67.5003 119.724 67.4265C119.421 67.3177 119.118 67.1701 118.826 67.0419C119.09 67.0302 120.423 67.5935 120.283 67.9043C120.038 68.4521 118.686 67.7217 118.372 67.543C118.612 67.5819 119.448 67.8927 119.444 68.1996C119.444 68.6775 118.449 68.2773 118.236 68.1685C118.076 68.0869 117.956 67.9704 117.785 67.9471C117.579 67.9199 117.377 68.0131 117.183 68.052C116.841 68.1258 116.48 68.1064 116.13 68.0714C115.924 68.052 115.446 68.0947 115.345 67.9199C115.236 67.7334 115.318 67.3061 115.477 67.1701C115.648 67.0263 115.881 66.9991 116.103 66.9409Z" fill="#F88667"/>
<path d="M116.103 66.9409C116.588 66.8088 116.992 66.6495 117.435 66.4047C117.793 66.2105 118.139 66.024 118.566 66.0823C118.873 66.125 121.336 67.1506 120.679 67.613C120.466 67.7606 119.933 67.5003 119.724 67.4265C119.421 67.3177 119.118 67.1701 118.826 67.0419C119.09 67.0302 120.423 67.5935 120.283 67.9043C120.038 68.4521 118.686 67.7217 118.372 67.543C118.612 67.5819 119.448 67.8927 119.444 68.1996C119.444 68.6775 118.449 68.2773 118.236 68.1685C118.076 68.0869 117.956 67.9704 117.785 67.9471C117.579 67.9199 117.377 68.0131 117.183 68.052C116.841 68.1258 116.48 68.1064 116.13 68.0714C115.924 68.052 115.446 68.0947 115.345 67.9199C115.236 67.7334 115.318 67.3061 115.477 67.1701C115.648 67.0263 115.881 66.9991 116.103 66.9409Z" fill="#E45940"/>
<path d="M127.219 55.8491L128.726 56.4707L123.543 68.9805L122.017 68.1568L127.219 55.8491Z" fill="#110239"/>
<path d="M122.568 67.9394H112.696V69.474H122.568V67.9394Z" fill="#110239"/>
<path d="M95.2406 60.8065C96.5615 60.0528 96.7829 59.2175 96.0487 56.4552C95.3183 53.693 97.2297 50.8298 99.0712 50.0722C100.423 49.5166 101.612 49.268 102.432 47.8305C103.255 46.3892 101.697 43.3161 104.3 41.0395C106.196 39.3806 108.92 40.7054 108.92 40.7054C109.506 40.383 109.747 43.7979 109.79 46.3659C106.492 51.4125 107.432 58.0092 108.632 63.6619C108.663 63.8018 108.71 63.9183 108.753 64.0427C108.492 68.4172 108.286 72.038 108.286 72.038C108.286 72.038 100.357 76.5252 94.9648 72.6829C89.5801 68.8329 92.5949 62.3216 95.2406 60.8065Z" fill="#110239"/>
<path d="M118.554 92.7101L120.567 93.8678C120.567 93.8678 123.034 100.208 122.579 100.764C122.125 101.315 117.043 95.7326 116.841 94.8741C116.643 94.0155 117.964 93.0092 118.554 92.7101Z" fill="#110239"/>
<path d="M115.986 70.414C115.986 70.414 128.92 71.3192 130.128 72.477C131.336 73.6347 120.353 93.7435 120.353 93.7435L118.55 92.7062C118.55 92.7062 121.27 83.1452 121.973 80.9308C122.676 78.7163 124.036 76.0473 123.784 75.6977C123.531 75.3441 110.497 77.3099 110.598 73.6347C110.703 69.9595 115.986 70.414 115.986 70.414Z" fill="#F88667"/>
<path d="M109.608 48.596C109.608 48.596 108.248 52.2945 109.079 55.049L104.55 53.9534C104.55 53.9534 106.403 47.7646 107.195 46.7078C107.992 45.6511 109.608 48.596 109.608 48.596Z" fill="#F88667"/>
<path d="M107.723 51.9176C106.239 51.9176 105.47 53.0132 105.4 54.1593L104.553 53.9534C104.553 53.9534 106.406 47.7646 107.199 46.7078C107.991 45.6511 109.611 48.596 109.611 48.596C109.611 48.596 109.001 50.2587 108.85 52.1857C108.531 52.0225 108.162 51.9176 107.723 51.9176Z" fill="#E45940"/>
<path d="M110.077 43.7745C110.077 43.7745 111.837 44.6137 112.256 45.3246C112.676 46.0356 112.311 47.0146 112.346 47.6634C112.381 48.3122 112.559 49.2757 112.462 49.4311C112.365 49.5904 111.716 49.4311 111.612 49.571C111.507 49.7108 110.667 50.2353 110.403 50.8336C110.139 51.428 109.789 51.4824 109.176 51.1832C108.562 50.8841 106.215 47.7877 106.192 46.3309C106.165 44.8779 108.336 43.1801 110.077 43.7745Z" fill="#F88667"/>
<path d="M108.586 41.8051C108.586 41.8051 109.405 43.4484 109.491 44.0972C109.576 44.7499 108.955 46.673 108.586 46.9294C108.217 47.1858 108.527 44.7771 107.595 45.5152C106.663 46.2495 107.653 47.6403 107.595 47.9201C107.537 48.2037 107.113 49.1089 106.15 49.1943C105.186 49.2798 103.601 44.4935 104.65 43.3047C105.699 42.1159 107.482 41.8051 108.586 41.8051Z" fill="#110239"/>
<path d="M108.426 40.8414C108.426 40.8414 109.973 39.6798 111.589 40.9813C113.201 42.2828 113.147 44.2369 114.475 44.066C114.475 44.066 113.597 46.3309 111.67 45.7948C109.747 45.2587 107.758 42.2012 108.426 40.8414Z" fill="#110239"/>
<path d="M103.154 66.4358L109.152 65.9813C109.152 65.9813 112.276 69.4661 115.357 69.4661C118.403 69.4661 125.901 69.4661 125.901 69.4661C125.901 69.4661 125.329 74.2797 122.793 77.7606C122.793 77.7606 112.777 78.0753 107.894 77.6713C103.014 77.275 98.3714 71.8904 103.154 66.4358Z" fill="#FD425F"/>
<path d="M102.595 67.143C102.766 66.9099 102.948 66.6729 103.154 66.4398L109.153 65.9852C109.153 65.9852 112.191 69.373 115.233 69.4623C111.561 69.8353 104.537 70.6472 102.595 67.143Z" fill="#E42244"/>
<path d="M123.12 70.1772C121.593 70.0296 120.109 69.6644 118.601 69.474H125.214C124.561 69.8081 124.239 70.286 123.12 70.1772Z" fill="#E42244"/>
<path d="M105.128 51.867C105.128 51.867 107.882 52.951 108.814 53.052C108.814 53.052 110.753 57.3294 111.511 58.4871C112.264 59.6448 109.595 64.0737 109.448 65.9852C109.448 65.9852 107.843 67.5158 102.983 66.5757C102.979 66.5757 101.713 54.5593 105.128 51.867Z" fill="#00BAD1"/>
<path opacity="0.65" d="M104.39 54.4236C105.233 54.039 106.697 54.4314 107.109 55.2783C107.618 56.3234 107.094 58.1804 107.156 59.3109C107.222 60.4997 107.296 62.0809 107.595 63.2387C107.828 64.1439 108.418 65.2589 109.18 66.1719C108.558 66.5487 106.752 67.3024 102.983 66.572C102.983 66.572 102.21 59.2449 103.496 54.7538C103.846 54.6373 104.168 54.5246 104.39 54.4236Z" fill="#00A1CC"/>
<path d="M115.158 66.9409C115.644 66.8088 116.048 66.6495 116.491 66.4047C116.848 66.2105 117.194 66.024 117.622 66.0823C117.928 66.125 120.392 67.1506 119.735 67.613C119.521 67.7606 118.989 67.5003 118.779 67.4265C118.476 67.3177 118.173 67.1701 117.882 67.0419C118.146 67.0302 119.483 67.5935 119.339 67.9043C119.094 68.4521 117.742 67.7217 117.427 67.543C117.668 67.5819 118.503 67.8927 118.5 68.1996C118.5 68.6775 117.505 68.2773 117.291 68.1685C117.132 68.0869 117.012 67.9704 116.841 67.9471C116.635 67.9199 116.433 68.0131 116.239 68.052C115.897 68.1258 115.535 68.1064 115.186 68.0714C114.98 68.052 114.502 68.0947 114.401 67.9199C114.292 67.7334 114.374 67.3061 114.533 67.1701C114.704 67.0263 114.937 66.9991 115.158 66.9409Z" fill="#F88667"/>
<path d="M115.574 66.8787L115.046 68.8639C115.046 68.8639 102.062 67.3527 101.759 65.0527C101.456 62.7489 102.288 52.0302 105.419 53.1452C108.55 54.2563 105.458 62.0341 105.947 62.6363C106.437 63.2423 115.574 66.8787 115.574 66.8787Z" fill="#00BAD1"/>
<path d="M180.202 117.1H159.398C155.513 117.1 152.735 113.818 153.967 110.632C153.986 110.577 154.006 110.527 154.029 110.473C155.987 106.168 161.772 107.302 163.303 109.303C163.303 109.303 159.394 102.225 167.739 102.225C174.74 102.225 172.572 109.105 172.572 109.105C172.572 109.105 173.889 103.798 178 104.202C184.658 104.855 180.7 111.483 180.7 111.483C180.7 111.483 187.37 109.983 187.304 113.573C187.242 117.159 180.202 117.1 180.202 117.1Z" fill="#01C7E2"/>
<path d="M50.8972 119.346H36.6237C33.9586 119.346 32.051 117.093 32.898 114.905C32.9135 114.87 32.9251 114.831 32.9407 114.797C34.2849 111.844 38.2515 112.621 39.3043 113.992C39.3043 113.992 36.6237 109.136 42.3502 109.136C47.152 109.136 45.668 113.856 45.668 113.856C45.668 113.856 46.5732 110.216 49.3937 110.492C53.9625 110.939 51.2468 115.488 51.2468 115.488C51.2468 115.488 55.8234 114.459 55.7806 116.922C55.7263 119.389 50.8972 119.346 50.8972 119.346Z" fill="#01C7E2"/>
<path d="M104.467 144.12H75.5241C70.1201 144.12 66.2545 139.552 67.9678 135.119C67.995 135.045 68.0222 134.971 68.0572 134.897C70.7806 128.907 78.8264 130.488 80.9593 133.27C80.9593 133.27 75.5242 123.421 87.1326 123.421C96.8723 123.421 93.8575 132.994 93.8575 132.994C93.8575 132.994 95.6912 125.608 101.41 126.172C110.672 127.081 105.163 136.304 105.163 136.304C105.163 136.304 114.444 134.218 114.355 139.21C114.262 144.206 104.467 144.12 104.467 144.12Z" fill="#01C7E2"/>
<path d="M60.0428 79.5477C60.105 79.0698 60.1477 78.5881 60.1477 78.0908C60.1477 77.5974 60.105 77.1118 60.0428 76.6339L57.7973 76.2804C57.7274 75.9385 57.6302 75.6044 57.5215 75.278L59.3008 73.8406C58.9239 72.9354 58.4267 72.0923 57.8361 71.327L55.7072 72.1467C55.4779 71.8903 55.2332 71.6456 54.9768 71.4163L55.7965 69.2874C55.0312 68.6968 54.1881 68.1996 53.2829 67.8227L51.8455 69.602C51.5191 69.4933 51.185 69.3961 50.8431 69.3262L50.4935 67.0807C50.0156 67.0185 49.5339 66.9758 49.0366 66.9758C48.5393 66.9758 48.0576 67.0185 47.5797 67.0807L47.2262 69.3262C46.8843 69.3961 46.5502 69.4933 46.2239 69.602L44.7864 67.8227C43.8812 68.1996 43.0381 68.6968 42.2728 69.2874L43.0964 71.4163C42.84 71.6456 42.5953 71.8903 42.366 72.1467L40.2371 71.327C39.6465 72.0923 39.1493 72.9354 38.7724 73.8406L40.5517 75.278C40.443 75.6044 40.3458 75.9385 40.2759 76.2804L38.0304 76.6339C37.9682 77.1118 37.9255 77.5935 37.9255 78.0908C37.9255 78.5842 37.9682 79.0698 38.0304 79.5477L40.2759 79.8973C40.3458 80.2392 40.443 80.5733 40.5517 80.8996L38.7724 82.3371C39.1493 83.2423 39.6465 84.0854 40.2371 84.8507L42.366 84.031C42.5953 84.2874 42.84 84.5321 43.0964 84.7613L42.2728 86.8903C43.0381 87.4808 43.8812 87.9781 44.7864 88.355L46.2239 86.5756C46.5502 86.6844 46.8843 86.7815 47.2262 86.8515L47.5797 89.097C48.0576 89.1592 48.5393 89.2019 49.0366 89.2019C49.5339 89.2019 50.0156 89.1592 50.4935 89.097L50.8431 86.8515C51.185 86.7815 51.5191 86.6844 51.8455 86.5756L53.2829 88.355C54.1881 87.9781 55.0312 87.4808 55.7965 86.8903L54.9768 84.7613C55.2332 84.5321 55.4779 84.2874 55.7072 84.031L57.8361 84.8507C58.4267 84.0854 58.9239 83.2423 59.3008 82.3371L57.5215 80.8996C57.6302 80.5733 57.7274 80.2392 57.7973 79.8973L60.0428 79.5477ZM49.0366 83.9066C45.8237 83.9066 43.2207 81.3037 43.2207 78.0908C43.2207 74.8779 45.8237 72.2749 49.0366 72.2749C52.2495 72.2749 54.8525 74.8779 54.8525 78.0908C54.8525 81.3037 52.2495 83.9066 49.0366 83.9066Z" fill="#FD425F"/>
<path d="M49.0366 71.5524C45.4236 71.5524 42.4982 74.4817 42.4982 78.0909C42.4982 81.704 45.4275 84.6294 49.0366 84.6294C52.6497 84.6294 55.5751 81.7001 55.5751 78.0909C55.579 74.4778 52.6497 71.5524 49.0366 71.5524ZM49.0366 82.1585C46.7911 82.1585 44.969 80.3364 44.969 78.0909C44.969 75.8454 46.7911 74.0233 49.0366 74.0233C51.2822 74.0233 53.1042 75.8454 53.1042 78.0909C53.1042 80.3364 51.2822 82.1585 49.0366 82.1585Z" fill="#110239"/>
<path d="M156.947 136.696C157.192 136.218 157.421 135.725 157.607 135.208C157.794 134.688 157.93 134.163 158.043 133.639L155.816 132.427C155.871 132.038 155.898 131.653 155.906 131.269L158.318 130.43C158.264 129.334 158.058 128.266 157.724 127.236L155.175 127.298C155.032 126.941 154.869 126.595 154.682 126.257L156.345 124.326C155.762 123.417 155.063 122.578 154.251 121.84L152.071 123.169C151.768 122.932 151.454 122.706 151.119 122.504L151.593 120.014C151.116 119.769 150.622 119.54 150.102 119.354C149.581 119.167 149.057 119.031 148.532 118.918L147.32 121.145C146.931 121.09 146.547 121.067 146.162 121.055L145.323 118.643C144.227 118.697 143.159 118.903 142.13 119.237L142.192 121.786C141.834 121.929 141.489 122.092 141.151 122.279L139.224 120.616C138.315 121.199 137.475 121.898 136.737 122.71L138.066 124.89C137.829 125.193 137.604 125.507 137.402 125.841L134.911 125.368C134.666 125.845 134.437 126.339 134.251 126.855C134.064 127.376 133.928 127.901 133.816 128.425L136.042 129.637C135.987 130.026 135.964 130.41 135.952 130.795L133.54 131.634C133.594 132.73 133.8 133.798 134.134 134.828L136.683 134.765C136.827 135.123 136.99 135.469 137.176 135.807L135.513 137.737C136.096 138.646 136.795 139.486 137.607 140.224L139.787 138.895C140.09 139.132 140.405 139.357 140.739 139.559L140.265 142.05C140.743 142.295 141.236 142.524 141.753 142.71C142.273 142.897 142.798 143.033 143.322 143.145L144.534 140.919C144.923 140.974 145.308 140.997 145.692 141.009L146.531 143.421C147.627 143.367 148.695 143.161 149.725 142.827L149.663 140.278C150.02 140.134 150.366 139.971 150.704 139.785L152.635 141.448C153.544 140.865 154.383 140.166 155.121 139.354L153.792 137.174C154.029 136.871 154.255 136.556 154.457 136.222L156.947 136.696ZM143.746 137.139C140.37 135.931 138.614 132.217 139.822 128.841C141.03 125.465 144.744 123.709 148.12 124.917C151.496 126.125 153.252 129.839 152.044 133.215C150.836 136.591 147.118 138.347 143.746 137.139Z" fill="#01C7E2"/>
<path d="M148.391 124.155C144.596 122.796 140.415 124.773 139.06 128.569C137.7 132.364 139.677 136.545 143.473 137.9C147.269 139.26 151.449 137.283 152.805 133.487C154.161 129.691 152.187 125.515 148.391 124.155ZM144.401 135.301C142.043 134.458 140.812 131.859 141.659 129.497C142.506 127.135 145.101 125.907 147.463 126.754C149.821 127.597 151.053 130.196 150.206 132.559C149.359 134.921 146.76 136.144 144.401 135.301Z" fill="#110239"/>
<path d="M36.8183 76.3154H35.2137V77.2516H36.8183V76.3154Z" fill="#110239"/>
<path d="M33.7093 77.2516H32.2058V76.3154H33.7093V77.2516ZM30.7023 77.2516H29.1988V76.3154H30.7023V77.2516ZM27.6953 77.2516H26.1918V76.3154H27.6953V77.2516Z" fill="#110239"/>
<path d="M24.4874 77.4537H23.5472V76.3154H24.6894V77.2516H24.4874V77.4537Z" fill="#110239"/>
<path d="M24.4868 101.207H23.5466V99.8858H24.4868V101.207ZM24.4868 98.5688H23.5466V97.2479H24.4868V98.5688ZM24.4868 95.9309H23.5466V94.61H24.4868V95.9309ZM24.4868 93.2891H23.5466V91.9682H24.4868V93.2891ZM24.4868 90.6511H23.5466V89.3302H24.4868V90.6511ZM24.4868 88.0132H23.5466V86.6923H24.4868V88.0132ZM24.4868 85.3753H23.5466V84.0544H24.4868V85.3753ZM24.4868 82.7335H23.5466V81.4126H24.4868V82.7335ZM24.4868 80.0956H23.5466V78.7747H24.4868V80.0956Z" fill="#110239"/>
<path d="M24.6888 103.666H23.5466V102.528H24.4868V102.73H24.6888V103.666Z" fill="#110239"/>
<path d="M45.8617 103.666H44.5369V102.73H45.8617V103.666ZM43.216 103.666H41.8912V102.73H43.216V103.666ZM40.5703 103.666H39.2455V102.73H40.5703V103.666ZM37.9207 103.666H36.5959V102.73H37.9207V103.666ZM35.275 103.666H33.9503V102.73H35.275V103.666ZM32.6294 103.666H31.3046V102.73H32.6294V103.666ZM29.9837 103.666H28.6589V102.73H29.9837V103.666ZM27.3341 103.666H26.0132V102.73H27.3341V103.666Z" fill="#110239"/>
<path d="M48.329 103.868H47.3889V103.666H47.1868V102.73H48.329V103.868Z" fill="#110239"/>
<path d="M48.3296 114.062H47.3895V112.788H48.3296V114.062ZM48.3296 111.514H47.3895V110.239H48.3296V111.514ZM48.3296 108.965H47.3895V107.691H48.3296V108.965ZM48.3296 106.416H47.3895V105.142H48.3296V106.416Z" fill="#110239"/>
<path d="M48.5278 116.475H47.3895V115.336H48.3296V115.535H48.5278V116.475Z" fill="#110239"/>
<path d="M73.1349 116.475H71.7674V115.538H73.1349V116.475ZM70.3999 116.475H69.0324V115.538H70.3999V116.475ZM67.6687 116.475H66.3012V115.538H67.6687V116.475ZM64.9337 116.475H63.5662V115.538H64.9337V116.475ZM62.1987 116.475H60.8311V115.538H62.1987V116.475ZM59.4636 116.475H58.0961V115.538H59.4636V116.475ZM56.7324 116.475H55.3649V115.538H56.7324V116.475ZM53.9974 116.475H52.6299V115.538H53.9974V116.475ZM51.2624 116.475H49.8948V115.538H51.2624V116.475Z" fill="#110239"/>
<path d="M75.6408 116.677H74.7006V116.475H74.5025V115.535H75.6408V116.677Z" fill="#110239"/>
<path d="M75.6403 136.327H74.7001V134.925H75.6403V136.327ZM75.6403 133.518H74.7001V132.116H75.6403V133.518ZM75.6403 130.713H74.7001V129.311H75.6403V130.713ZM75.6403 127.905H74.7001V126.502H75.6403V127.905ZM75.6403 125.1H74.7001V123.697H75.6403V125.1ZM75.6403 122.291H74.7001V120.888H75.6403V122.291ZM75.6403 119.482H74.7001V118.079H75.6403V119.482Z" fill="#110239"/>
<path d="M75.8423 138.872H74.7001V137.73H75.6403V137.932H75.8423V138.872Z" fill="#110239"/>
<path d="M107.202 138.872H105.897V137.936H107.202V138.872ZM104.588 138.872H103.282V137.936H104.588V138.872ZM101.973 138.872H100.668V137.936H101.973V138.872ZM99.3624 138.872H98.057V137.936H99.3624V138.872ZM96.7478 138.872H95.4424V137.936H96.7478V138.872ZM94.1332 138.872H92.8278V137.936H94.1332V138.872ZM91.5224 138.872H90.2171V137.936H91.5224V138.872ZM88.9078 138.872H87.6025V137.936H88.9078V138.872ZM86.2932 138.872H84.9879V137.936H86.2932V138.872ZM83.6825 138.872H82.3771V137.936H83.6825V138.872ZM81.0679 138.872H79.7625V137.936H81.0679V138.872ZM78.4572 138.872H77.1518V137.936H78.4572V138.872Z" fill="#110239"/>
<path d="M109.65 138.872H108.508V137.932H108.71V137.73H109.65V138.872Z" fill="#110239"/>
<path d="M109.65 136.393H108.71V135.057H109.65V136.393ZM109.65 133.72H108.71V132.384H109.65V133.72ZM109.65 131.047H108.71V129.711H109.65V131.047ZM109.65 128.374H108.71V127.038H109.65V128.374ZM109.65 125.702H108.71V124.365H109.65V125.702ZM109.65 123.029H108.71V121.692H109.65V123.029ZM109.65 120.352H108.71V119.015H109.65V120.352ZM109.65 117.679H108.71V116.343H109.65V117.679ZM109.65 115.006H108.71V113.67H109.65V115.006ZM109.65 112.333H108.71V110.997H109.65V112.333ZM109.65 109.656H108.71V108.32H109.65V109.656Z" fill="#110239"/>
<path d="M109.65 106.984H108.71V105.845H109.848V106.786H109.65V106.984Z" fill="#110239"/>
<path d="M144.452 106.786H143.123V105.849H144.452V106.786ZM141.791 106.786H140.458V105.849H141.791V106.786ZM139.13 106.786H137.797V105.849H139.13V106.786ZM136.464 106.786H135.136V105.849H136.464V106.786ZM133.803 106.786H132.471V105.849H133.803V106.786ZM131.142 106.786H129.809V105.849H131.142V106.786ZM128.481 106.786H127.148V105.849H128.481V106.786ZM125.82 106.786H124.491V105.849H125.82V106.786ZM123.158 106.786H121.826V105.849H123.158V106.786ZM120.497 106.786H119.165V105.849H120.497V106.786ZM117.836 106.786H116.507V105.849H117.836V106.786ZM115.175 106.786H113.842V105.849H115.175V106.786ZM112.51 106.786H111.181V105.849H112.51V106.786Z" fill="#110239"/>
<path d="M146.923 106.984H145.982V106.786H145.78V105.845H146.923V106.984Z" fill="#110239"/>
<path d="M146.923 114.796H145.986V113.495H146.923V114.796ZM146.923 112.19H145.986V110.888H146.923V112.19ZM146.923 109.587H145.986V108.285H146.923V109.587Z" fill="#110239"/>
<path d="M146.919 116.098H145.983V117.376H146.919V116.098Z" fill="#110239"/>
<defs>
<filter id="filter0_d" x="0" y="0.642334" width="211.358" height="211.358" filterUnits="userSpaceOnUse" color-interpolation-filters="sRGB">
<feFlood flood-opacity="0" result="BackgroundImageFix"/>
<feColorMatrix in="SourceAlpha" type="matrix" values="0 0 0 0 0 0 0 0 0 0 0 0 0 0 0 0 0 0 127 0" result="hardAlpha"/>
<feOffset dy="6"/>
<feGaussianBlur stdDeviation="5"/>
<feColorMatrix type="matrix" values="0 0 0 0 0 0 0 0 0 0 0 0 0 0 0 0 0 0 0.15 0"/>
<feBlend mode="normal" in2="BackgroundImageFix" result="effect1_dropShadow"/>
<feBlend mode="normal" in="SourceGraphic" in2="effect1_dropShadow" result="shape"/>
</filter>
</defs>
</svg>
